M48
;Layer_Color=9474304
;FILE_FORMAT=4:4
METRIC,LZ
;TYPE=PLATED
T1F00S00C0.2000
T2F00S00C0.3000
T3F00S00C0.9900
T4F00S00C1.0000
T5F00S00C1.3000
T7F00S00C3.2000
;TYPE=NON_PLATED
T8F00S00C0.6500
%
T01
X0074875Y00038
X00766Y00037594
X00771514Y00065
X00800323Y00053677
X008445Y00067
X008695Y0006725
X0021175Y0006575
X00215Y00046
X00192811Y00020562
X0010625Y0004275
X00101Y00063355
X00082638Y0006222
X00034Y0005475
X00033Y000905
X0002975Y0009925
X0001425Y00104
X0000525Y0014625
X000085Y00173
X00047848Y001635
X0003525Y0014325
X00036604Y00134473
X000705Y0009775
X0010375Y00113
X00102Y0014
X00113068Y00141659
X0012025Y0014625
X00122842Y0016675
X0012025Y00182015
X0009625Y0018475
X00130259Y002199
X00113908Y00245015
X00116787Y00323153
X000945Y0033525
X0010125Y003435
X000892Y0035925
X00076916Y00370858
X00101183Y00373942
X00082722Y0039663
X00048752Y00359799
X00077785Y003089
X00154688Y00298
X00167407Y00320316
X00169293Y00338359
X0014425Y00338
X00143385Y00366442
X00162441Y00386602
X00170811Y00380266
X00178Y0042775
X00153383Y00156235
X0017075Y001015
X0016775Y0008425
X00223407Y00084
X00234911Y00087778
X00278657Y0008725
X00246704Y00125978
X00249741Y00134485
X00204322Y00139633
X001955Y0014
X0018625Y0013925
X00211408Y00174357
X0019475Y001945
X00256987Y00198199
X00262188Y00238
X00304989Y00212619
X00308Y001945
X00308638Y0017575
X00298Y001655
X0030863Y00128386
X003825Y0015825
X00385Y00184
X00361465Y0018525
X003655Y0017625
X003625Y00203
X003765Y002205
X00390279Y00214
X00401643Y00212581
X0041465Y00224
X00412812Y00233819
X004435Y0022425
X0044332Y0021175
X0044432Y0019375
X0043025Y0018975
X004085Y0017225
X00452889Y00168
X00499Y00172
X0049807Y00238363
X0045375Y0023375
X00446Y0029675
X00439463Y00302596
X00458683Y00304
X00465615Y00294614
X00483455Y00283
X004835Y00309
X00472164Y00320562
X0046525Y003285
X00484Y003355
X00510538Y00346962
X00533087Y00350163
X00532596Y003775
X00530868Y00399571
X00551533Y0039625
X00545963Y0041575
X005405Y0044425
X00548789Y00473136
X00530917Y00471877
X00578596Y004634
X00569519Y00369641
X00578596Y00355283
X0057855Y00323629
X0056925Y0032325
X00576535Y00299847
X00522Y0030525
X005065Y002985
X00504Y0029075
X0041575Y0029825
X00439639Y00334434
X00445519Y00361275
X00432599Y0038892
X0043175Y00402
X00449019Y00418532
X00456045Y004125
X00457152Y00433612
X00451419Y0044405
X00461865Y004569
X00433658Y004634
X00367274Y00442654
Y00427706
X0036925Y00398552
X00382393Y00359
X0039025Y0035725
X0039Y003665
X00417819Y0037542
X00337618Y00359684
X00324244Y0038892
X00315506Y00396518
X00288318Y00409677
X00269765Y00404648
X00272Y0038675
X0028626Y0037515
X00289244Y00345093
X00275Y00348934
X0026075Y00333
X00258908Y00323815
X00283729Y00325
X00288318Y00314158
X00318016Y00316609
X0031019Y00324537
X0030875Y00333
X00251752Y00365775
X00236714Y00365775
X00210439Y0037044
Y00382487
X002105Y0033975
X00201Y003375
X00216747Y00317408
X00188745Y00261301
X00188587Y00418383
X00185486Y00433777
X0023325Y00466574
X00285118Y00437435
X00332618Y0043956
Y00427995
X0050478Y00423
X00561583Y0025109
X00335Y002125
X005945Y00219314
X0059675Y0019092
X0059302Y00171098
X0060825Y00178
X00631373Y00158239
X006805Y001505
X0068825Y00177
X00691936Y00192936
X00710307Y00204177
X00725Y00216021
X0070375Y002415
X0068025Y0024425
X00623316Y00226874
X00643074Y00206744
X0062417Y002775
X00622471Y002875
X0058792Y00281124
X00585233Y00294826
X00586039Y00261276
X0061018Y003695
X00610288Y00383962
X0061125Y00393612
X00612375Y00403625
X00614723Y00414973
X00616529Y00423279
X006285Y0042575
X00620784Y00466044
X00610359Y00467655
X0058822Y004634
X0057992Y00407212
X00621049Y00378201
X006505Y00466
X006582Y0046205
X0068292Y00464349
X0071125Y0046425
X00701342Y00443778
X00693624Y00430654
X00809Y004307
X008165Y00439852
X0081075Y004545
X00796683Y00465608
X00803014Y00363824
X007915Y00359
X00760802Y00355283
X00765714Y003425
X0076413Y00329094
X00779819Y00319
X0081275Y00326344
X00840277Y002425
X0090263Y0027
X00927085Y00329094
X00913734Y00191706
X00910924Y00161886
X0087325Y0016275
X007875Y001755
X007595Y0017575
X0073075Y0017075
X0072925Y0015132
X007295Y00134
X00741526Y00133
X0076875Y0013025
X00795761Y0013075
X00808Y00114086
X008125Y00086
X0081525Y0007725
X00833777Y00098464
X00775117Y00105633
X007645Y0010425
X007295Y001015
X0072Y00084
X0071075Y00127
X007085Y0016375
X0071Y00480936
X00728415Y00500102
X00736Y00494
X007335Y005105
X007445Y0050775
X00743529Y00516145
X00745843Y00527285
X0073675Y005265
X00756Y0052725
X00745939Y00544439
X00762Y0054875
X00761877Y00559373
X00770994Y00558134
X00782134Y00556706
X00793273Y005565
X0078625Y00566
X0077468Y005685
X00753007Y00566257
X0075Y00589
Y00603467
X00732708Y00589706
X00690085Y00591346
X00687481Y00573879
X00679475Y00575461
X0068292Y00562406
X00684982Y00552976
X00686999Y00538087
X0067585Y00526345
X00677813Y0050517
X00686226Y00513583
X0064648Y00508906
X00635359Y00513382
X0064041Y00553467
X0061325Y0055675
X00603784Y00527406
X0058292Y00534031
X0058642Y00541748
X00581709Y00570648
X0058292Y00590906
X00582649Y00599155
X00580359Y00615906
X00591984Y00613906
X00616659Y00611079
X00637481Y00618953
X0064467Y00612251
X0064248Y00598002
X00655359Y00599155
X00670618Y00592805
X00678653Y00605398
X00729155Y00630905
X00775Y00633399
X00755Y0066601
X00815Y00695
X00840094Y005825
X0081Y00528467
X00800433Y00486406
X00818462Y0047684
X0086825Y0050725
X00915914Y00516
X00590359Y00503648
X00597485Y00669225
X005955Y0067775
X0061792Y0069034
X0063872Y00677438
X00635169Y0066601
X0065024Y00661677
X00561477Y00633399
X00549953Y00630406
X00544068Y00617949
X0053725Y005945
X00527996Y00578906
X0052075Y00573
X00505Y00575461
Y00584471
X00517448Y00607406
X0048425Y0060675
X0048075Y0059725
X00470998Y00591263
X00468011Y005798
X0047387Y00548544
X00484925Y00543788
X00485042Y00531303
X00523973Y00535015
X00534333Y00537705
X00535296Y00514202
X0052375Y0051375
X0051993Y00479839
X00533165Y00484276
X005415Y00492423
X00551829Y00490938
X00574392Y00526874
X00575359Y00603906
X00528739Y00634007
X00501061Y00665899
X00495348Y00660238
X004635Y00638406
X0046355Y00621522
X00451419Y006315
X00447389Y0064475
X0042575Y0065175
X00434236Y00684917
X0045Y0068285
X00451419Y0070215
X00411617Y00619545
X0038575Y0061925
X0037575Y006135
X004195Y0058075
X0041975Y00570604
X0041875Y0055804
X00438861Y00533898
X00428819Y00514162
X0046375Y0050025
X0046825Y004935
X0046809Y00478906
X00365878Y00477641
X00360308Y00501115
X00387923Y00533018
X00279626Y00533898
X0028575Y00561
X00283Y0056925
X0027075Y0056975
X00243606Y00569362
X0024725Y00591
X0024925Y00616
X0027225Y0062175
X0028837Y00622451
X0029475Y0064618
X00305057Y00646999
X00253464Y00650677
X00268814Y0066696
X00264354Y0067372
X00276256Y00694131
X00231465Y0068445
X0019875Y0069454
X00207209Y0065875
X0020825Y00629
X002075Y0059125
X00198Y00557
X00184183Y00554656
X001855Y00563
X00236714Y00480456
X00167093Y0051
X0011Y0051925
X0008Y00490448
X00078093Y00481381
X00063Y00533
X0006675Y005785
X0005025Y0059025
X00033125Y00582265
X00029592Y00618927
X0002746Y00643
X00074812Y006525
X000725Y006175
X0007175Y006065
X000905Y0062525
X0012075Y00623
X001595Y006255
X00164Y0061125
X00158592Y00594927
X00182651Y0062134
X0017075Y006445
X00167093Y006585
X00126296Y00571721
X0009575Y005695
X00019062Y00553062
T02
X00426519Y00255802
Y00266802
X00437519
Y00255802
T03
X004775Y00685138
X005225
T04
X00825Y00365
Y00415
X0097
Y0039
Y00365
T05
X0046495Y00660238
X0053505
T07
X0089Y0003
X0008
X0089Y0069
X0008
T08
X0005105Y003311
Y003889
M30
