G04*
G04 #@! TF.GenerationSoftware,Altium Limited,Altium Designer,22.1.2 (22)*
G04*
G04 Layer_Color=16711935*
%FSLAX44Y44*%
%MOMM*%
G71*
G04*
G04 #@! TF.SameCoordinates,74BE647B-5A68-4C54-96DD-97E0C3036DEC*
G04*
G04*
G04 #@! TF.FilePolarity,Negative*
G04*
G01*
G75*
%ADD31R,0.3750X1.1565*%
G04:AMPARAMS|DCode=32|XSize=1.1565mm|YSize=0.375mm|CornerRadius=0.1875mm|HoleSize=0mm|Usage=FLASHONLY|Rotation=90.000|XOffset=0mm|YOffset=0mm|HoleType=Round|Shape=RoundedRectangle|*
%AMROUNDEDRECTD32*
21,1,1.1565,0.0000,0,0,90.0*
21,1,0.7815,0.3750,0,0,90.0*
1,1,0.3750,0.0000,0.3908*
1,1,0.3750,0.0000,-0.3908*
1,1,0.3750,0.0000,-0.3908*
1,1,0.3750,0.0000,0.3908*
%
%ADD32ROUNDEDRECTD32*%
%ADD69R,0.8500X0.7500*%
%ADD73R,0.7500X0.8500*%
%ADD74R,0.7400X0.6400*%
%ADD81R,0.6400X0.7400*%
%ADD82R,1.0000X1.7500*%
%ADD84R,1.3000X1.2000*%
%ADD85R,1.9000X1.4500*%
%ADD86R,0.7500X0.6500*%
%ADD87R,0.6500X0.7500*%
%ADD95C,0.6500*%
%ADD96R,3.6000X2.4000*%
%ADD97R,1.6000X1.6000*%
%ADD98C,1.6000*%
%ADD99R,1.5400X1.5400*%
%ADD100C,1.5400*%
%ADD101C,2.0000*%
%ADD102C,3.3000*%
%ADD103C,0.5500*%
%ADD104C,0.6000*%
%ADD119R,1.1500X0.3000*%
G04:AMPARAMS|DCode=120|XSize=0.6mm|YSize=1.15mm|CornerRadius=0.15mm|HoleSize=0mm|Usage=FLASHONLY|Rotation=90.000|XOffset=0mm|YOffset=0mm|HoleType=Round|Shape=RoundedRectangle|*
%AMROUNDEDRECTD120*
21,1,0.6000,0.8500,0,0,90.0*
21,1,0.3000,1.1500,0,0,90.0*
1,1,0.3000,0.4250,0.1500*
1,1,0.3000,0.4250,-0.1500*
1,1,0.3000,-0.4250,-0.1500*
1,1,0.3000,-0.4250,0.1500*
%
%ADD120ROUNDEDRECTD120*%
G04:AMPARAMS|DCode=121|XSize=0.6mm|YSize=1.1mm|CornerRadius=0.15mm|HoleSize=0mm|Usage=FLASHONLY|Rotation=90.000|XOffset=0mm|YOffset=0mm|HoleType=Round|Shape=RoundedRectangle|*
%AMROUNDEDRECTD121*
21,1,0.6000,0.8000,0,0,90.0*
21,1,0.3000,1.1000,0,0,90.0*
1,1,0.3000,0.4000,0.1500*
1,1,0.3000,0.4000,-0.1500*
1,1,0.3000,-0.4000,-0.1500*
1,1,0.3000,-0.4000,0.1500*
%
%ADD121ROUNDEDRECTD121*%
%ADD122R,2.0000X2.1800*%
%ADD125R,1.1565X0.3750*%
G04:AMPARAMS|DCode=126|XSize=1.1565mm|YSize=0.375mm|CornerRadius=0.1875mm|HoleSize=0mm|Usage=FLASHONLY|Rotation=0.000|XOffset=0mm|YOffset=0mm|HoleType=Round|Shape=RoundedRectangle|*
%AMROUNDEDRECTD126*
21,1,1.1565,0.0000,0,0,0.0*
21,1,0.7815,0.3750,0,0,0.0*
1,1,0.3750,0.3908,0.0000*
1,1,0.3750,-0.3908,0.0000*
1,1,0.3750,-0.3908,0.0000*
1,1,0.3750,0.3908,0.0000*
%
%ADD126ROUNDEDRECTD126*%
%ADD129R,1.7062X1.1544*%
%ADD135R,1.0160X1.2090*%
%ADD136R,1.0160X1.2097*%
%ADD137R,1.1477X6.9907*%
%ADD138R,1.9050X2.7940*%
%ADD139R,1.1000X3.1000*%
%ADD140O,2.4000X0.7000*%
%ADD141R,2.6400X1.3700*%
%ADD142R,3.1000X1.1000*%
%ADD143O,1.8000X0.5500*%
%ADD144R,1.3000X1.5000*%
%ADD145R,1.7500X1.0000*%
%ADD146R,1.2500X1.2000*%
%ADD147R,4.4500X3.3000*%
%ADD148R,3.3500X1.8000*%
%ADD149R,1.1000X1.8000*%
D31*
X129342Y344266D02*
D03*
D32*
X122842D02*
D03*
X116342D02*
D03*
X109842D02*
D03*
Y365283D02*
D03*
X116342D02*
D03*
X122842D02*
D03*
X129342D02*
D03*
D69*
X401643Y353942D02*
D03*
Y364942D02*
D03*
Y330500D02*
D03*
Y341500D02*
D03*
X530583Y461099D02*
D03*
Y450099D02*
D03*
X103884Y317408D02*
D03*
Y328408D02*
D03*
D73*
X452889Y388920D02*
D03*
X441889D02*
D03*
Y375420D02*
D03*
X452889D02*
D03*
X439639Y323920D02*
D03*
X450639D02*
D03*
X441889Y402420D02*
D03*
X452889D02*
D03*
X560500Y171000D02*
D03*
X571500D02*
D03*
X469500Y172000D02*
D03*
X480500D02*
D03*
D74*
X143385Y357525D02*
D03*
Y347525D02*
D03*
X602920Y481406D02*
D03*
Y491406D02*
D03*
X591420Y481406D02*
D03*
Y491406D02*
D03*
X594500Y199670D02*
D03*
Y209670D02*
D03*
X279456Y485448D02*
D03*
Y495448D02*
D03*
X279626Y506904D02*
D03*
Y516904D02*
D03*
X428819Y504674D02*
D03*
Y494674D02*
D03*
X86000Y326616D02*
D03*
Y316616D02*
D03*
D81*
X718883Y598906D02*
D03*
X708883D02*
D03*
X712420Y587406D02*
D03*
X702420D02*
D03*
X548587Y530074D02*
D03*
X558587D02*
D03*
X550420Y542406D02*
D03*
X560420D02*
D03*
X570481Y616345D02*
D03*
X560481D02*
D03*
X438861Y545332D02*
D03*
X428861D02*
D03*
D82*
X110345Y388380D02*
D03*
X140845D02*
D03*
D84*
X530868Y432654D02*
D03*
Y411653D02*
D03*
D85*
X458750Y219000D02*
D03*
Y247000D02*
D03*
D86*
X276500Y555250D02*
D03*
Y545250D02*
D03*
D87*
X284250Y579500D02*
D03*
X274250D02*
D03*
X437519Y558130D02*
D03*
X427519D02*
D03*
X439236Y570560D02*
D03*
X429236D02*
D03*
D95*
X51050Y388900D02*
D03*
Y331100D02*
D03*
D96*
X895000Y333000D02*
D03*
Y447000D02*
D03*
D97*
X825000Y365000D02*
D03*
D98*
Y415000D02*
D03*
X970000Y365000D02*
D03*
Y390000D02*
D03*
Y415000D02*
D03*
D99*
X522500Y685138D02*
D03*
D100*
X477500D02*
D03*
D101*
X535050Y660238D02*
D03*
X464950D02*
D03*
D102*
X80000Y690000D02*
D03*
X890000D02*
D03*
Y30000D02*
D03*
X80000D02*
D03*
D103*
X95750Y569500D02*
D03*
X29750Y99250D02*
D03*
X33000Y90500D02*
D03*
X102000Y140000D02*
D03*
X194750Y194500D02*
D03*
X70500Y97750D02*
D03*
X106250Y42750D02*
D03*
X390000Y366500D02*
D03*
X211750Y65750D02*
D03*
X736750Y526500D02*
D03*
X522000Y305250D02*
D03*
X610180Y369500D02*
D03*
X66750Y578500D02*
D03*
X63000Y533000D02*
D03*
X764500Y104250D02*
D03*
X680500Y150500D02*
D03*
X710750Y127000D02*
D03*
X35250Y143250D02*
D03*
X688250Y177000D02*
D03*
X201000Y337500D02*
D03*
X759500Y175750D02*
D03*
X294750Y646180D02*
D03*
X762000Y548750D02*
D03*
X756000Y527250D02*
D03*
X283000Y569250D02*
D03*
X285750Y561000D02*
D03*
X249250Y616000D02*
D03*
X247250Y591000D02*
D03*
X185500Y563000D02*
D03*
X36604Y134473D02*
D03*
X8500Y173000D02*
D03*
X5250Y146250D02*
D03*
X787500Y175500D02*
D03*
X869500Y67250D02*
D03*
X210500Y339750D02*
D03*
X443500Y224250D02*
D03*
X365500Y176250D02*
D03*
X844500Y67000D02*
D03*
X298000Y165500D02*
D03*
X504780Y423000D02*
D03*
X545963Y415750D02*
D03*
X551533Y396250D02*
D03*
X744500Y507750D02*
D03*
X736000Y494000D02*
D03*
X728415Y500102D02*
D03*
X743529Y516145D02*
D03*
X733500Y510500D02*
D03*
X745843Y527285D02*
D03*
X745939Y544439D02*
D03*
X621049Y378201D02*
D03*
X610288Y383962D02*
D03*
X611250Y393612D02*
D03*
X443320Y211750D02*
D03*
X390250Y357250D02*
D03*
X612375Y403625D02*
D03*
X614723Y414973D02*
D03*
X616529Y423279D02*
D03*
X873250Y162750D02*
D03*
X868250Y507250D02*
D03*
X170750Y101500D02*
D03*
X390279Y214000D02*
D03*
X444320Y193750D02*
D03*
X608250Y178000D02*
D03*
X369250Y398552D02*
D03*
X270750Y569750D02*
D03*
X164000Y611250D02*
D03*
X120250Y146250D02*
D03*
X34000Y54750D02*
D03*
X375750Y613500D02*
D03*
X385750Y619250D02*
D03*
X387923Y533018D02*
D03*
X272000Y386750D02*
D03*
X71750Y606500D02*
D03*
X419500Y580750D02*
D03*
X540500Y444250D02*
D03*
X761877Y559373D02*
D03*
X753007Y566257D02*
D03*
X793273Y556500D02*
D03*
X782134Y556706D02*
D03*
X770994Y558134D02*
D03*
X774680Y568500D02*
D03*
X786250Y566000D02*
D03*
X800323Y53677D02*
D03*
X335000Y212500D02*
D03*
X308000Y194500D02*
D03*
X775117Y105633D02*
D03*
X808000Y114086D02*
D03*
X809000Y430700D02*
D03*
X812750Y326344D02*
D03*
X729250Y151320D02*
D03*
X729500Y134000D02*
D03*
X77785Y308900D02*
D03*
X766000Y37594D02*
D03*
X382500Y158250D02*
D03*
X418750Y558040D02*
D03*
X279626Y533898D02*
D03*
X419750Y570604D02*
D03*
X120750Y623000D02*
D03*
X96250Y184750D02*
D03*
X425750Y651750D02*
D03*
X72500Y617500D02*
D03*
X208250Y629000D02*
D03*
X14250Y104000D02*
D03*
X305057Y646999D02*
D03*
X159500Y625500D02*
D03*
X729500Y101500D02*
D03*
X504000Y290750D02*
D03*
X815250Y77250D02*
D03*
X650500Y466000D02*
D03*
X408500Y172250D02*
D03*
X90500Y625250D02*
D03*
X260750Y333000D02*
D03*
X453750Y233750D02*
D03*
X456045Y412500D02*
D03*
X195500Y140000D02*
D03*
X169293Y338359D02*
D03*
X89200Y359250D02*
D03*
X198750Y694540D02*
D03*
X595500Y677750D02*
D03*
X465250Y328500D02*
D03*
X178000Y427750D02*
D03*
X470998Y591263D02*
D03*
X480750Y597250D02*
D03*
X484250Y606750D02*
D03*
X308750Y333000D02*
D03*
X523750Y513750D02*
D03*
X207500Y591250D02*
D03*
X101250Y343500D02*
D03*
X628500Y425750D02*
D03*
X658200Y462050D02*
D03*
X463750Y500250D02*
D03*
X468250Y493500D02*
D03*
X94500Y335250D02*
D03*
X613250Y556750D02*
D03*
X506500Y298500D02*
D03*
X446000Y296750D02*
D03*
X431750Y402000D02*
D03*
X144250Y338000D02*
D03*
X520750Y573000D02*
D03*
X791500Y359000D02*
D03*
X711250Y464250D02*
D03*
X215000Y46000D02*
D03*
X810750Y454500D02*
D03*
X812500Y86000D02*
D03*
X537250Y594500D02*
D03*
X730750Y170750D02*
D03*
X430250Y189750D02*
D03*
X376500Y220500D02*
D03*
X768750Y130250D02*
D03*
X186250Y139250D02*
D03*
X304989Y212619D02*
D03*
X310190Y324537D02*
D03*
X318016Y316609D02*
D03*
X691936Y192936D02*
D03*
X103750Y113000D02*
D03*
X101000Y63355D02*
D03*
X167750Y84250D02*
D03*
X278657Y87250D02*
D03*
X272250Y621750D02*
D03*
X198000Y557000D02*
D03*
X170750Y644500D02*
D03*
X182651Y621340D02*
D03*
X110000Y519250D02*
D03*
X19062Y553062D02*
D03*
X29592Y618927D02*
D03*
X484000Y335500D02*
D03*
X533087Y350163D02*
D03*
X510538Y346962D02*
D03*
X483500Y309000D02*
D03*
X50250Y590250D02*
D03*
X33125Y582265D02*
D03*
X362500Y203000D02*
D03*
X708500Y163750D02*
D03*
X439463Y302596D02*
D03*
X415750Y298250D02*
D03*
X748750Y38000D02*
D03*
X498070Y238363D02*
D03*
X578550Y323629D02*
D03*
X576535Y299847D02*
D03*
X569250Y323250D02*
D03*
X532596Y377500D02*
D03*
X483455Y283000D02*
D03*
X585233Y294826D02*
D03*
X561583Y251090D02*
D03*
X586039Y261276D02*
D03*
X680250Y244250D02*
D03*
X703750Y241500D02*
D03*
X710307Y204177D02*
D03*
X465615Y294614D02*
D03*
X468090Y478906D02*
D03*
X499000Y172000D02*
D03*
X461865Y456900D02*
D03*
X472164Y320562D02*
D03*
X485042Y531303D02*
D03*
X463550Y621522D02*
D03*
X501061Y665899D02*
D03*
X495348Y660238D02*
D03*
X528739Y634007D02*
D03*
X549953Y630406D02*
D03*
X530868Y399571D02*
D03*
X720000Y84000D02*
D03*
X631373Y158239D02*
D03*
X593020Y171098D02*
D03*
X452889Y168000D02*
D03*
X596750Y190920D02*
D03*
X725000Y216021D02*
D03*
X385000Y184000D02*
D03*
X361465Y185250D02*
D03*
X308638Y175750D02*
D03*
X308630Y128386D02*
D03*
X580359Y615906D02*
D03*
X575359Y603906D02*
D03*
X582649Y599155D02*
D03*
X582920Y590906D02*
D03*
X771514Y65000D02*
D03*
X795761Y130750D02*
D03*
X412812Y233819D02*
D03*
X204322Y139633D02*
D03*
X243606Y569362D02*
D03*
X154688Y298000D02*
D03*
X439639Y334434D02*
D03*
X815000Y695000D02*
D03*
X755000Y666010D02*
D03*
X246704Y125978D02*
D03*
X468011Y579800D02*
D03*
X505000Y584471D02*
D03*
X517448Y607406D02*
D03*
X505000Y575461D02*
D03*
X473870Y548544D02*
D03*
X126296Y571721D02*
D03*
X130259Y219900D02*
D03*
X775000Y633399D02*
D03*
X544068Y617949D02*
D03*
X216747Y317408D02*
D03*
X258908Y323815D02*
D03*
X210439Y370440D02*
D03*
X167407Y320316D02*
D03*
X231465Y684450D02*
D03*
X610359Y467655D02*
D03*
X588220Y463400D02*
D03*
X578596D02*
D03*
X586420Y541748D02*
D03*
X581709Y570648D02*
D03*
X650240Y661677D02*
D03*
X643074Y206744D02*
D03*
X579920Y407212D02*
D03*
X597485Y669225D02*
D03*
X617920Y690340D02*
D03*
X638720Y677438D02*
D03*
X635169Y666010D02*
D03*
X82722Y396630D02*
D03*
X120250Y182015D02*
D03*
X122842Y166750D02*
D03*
X447389Y644750D02*
D03*
X616659Y611079D02*
D03*
X434236Y684917D02*
D03*
X268814Y666960D02*
D03*
X264354Y673720D02*
D03*
X253464Y650677D02*
D03*
X276256Y694131D02*
D03*
X840277Y242500D02*
D03*
X840094Y582500D02*
D03*
X915914Y516000D02*
D03*
X594500Y219314D02*
D03*
X450000Y682850D02*
D03*
X451419Y702150D02*
D03*
X288370Y622451D02*
D03*
X428819Y514162D02*
D03*
X682920Y562406D02*
D03*
X729155Y630905D02*
D03*
X367274Y427706D02*
D03*
Y442654D02*
D03*
X449019Y418532D02*
D03*
X288318Y409677D02*
D03*
X551829Y490938D02*
D03*
X541500Y492423D02*
D03*
X646480Y508906D02*
D03*
X682920Y464349D02*
D03*
X701342Y443778D02*
D03*
X796683Y465608D02*
D03*
X765714Y342500D02*
D03*
X417819Y375420D02*
D03*
X432599Y388920D02*
D03*
X800433Y486406D02*
D03*
X185486Y433777D02*
D03*
X188587Y418383D02*
D03*
X76916Y370858D02*
D03*
X48752Y359799D02*
D03*
X143385Y366442D02*
D03*
X116787Y323153D02*
D03*
X458683Y304000D02*
D03*
X451419Y631500D02*
D03*
X411617Y619545D02*
D03*
X360308Y501115D02*
D03*
X414650Y224000D02*
D03*
X211408Y174357D02*
D03*
X623316Y226874D02*
D03*
X622471Y287500D02*
D03*
X624170Y277500D02*
D03*
X587920Y281124D02*
D03*
X640410Y553467D02*
D03*
X603784Y527406D02*
D03*
X590359Y503648D02*
D03*
X574392Y526874D02*
D03*
X582920Y534031D02*
D03*
X463500Y638406D02*
D03*
X184183Y554656D02*
D03*
X113068Y141659D02*
D03*
X47848Y163500D02*
D03*
X233250Y466574D02*
D03*
X207209Y658750D02*
D03*
X167093Y658500D02*
D03*
X158592Y594927D02*
D03*
X236714Y480456D02*
D03*
X332618Y439560D02*
D03*
Y427995D02*
D03*
X269765Y404648D02*
D03*
X286260Y375150D02*
D03*
X251752Y365775D02*
D03*
X732708Y589706D02*
D03*
X690085Y591346D02*
D03*
X678653Y605398D02*
D03*
X687481Y573879D02*
D03*
X679475Y575461D02*
D03*
X484925Y543788D02*
D03*
X534333Y537705D02*
D03*
X433658Y463400D02*
D03*
X324244Y388920D02*
D03*
X210439Y382487D02*
D03*
X283729Y325000D02*
D03*
X289244Y345093D02*
D03*
X275000Y348934D02*
D03*
X236714Y365775D02*
D03*
X365878Y477641D02*
D03*
X256987Y198199D02*
D03*
X249741Y134485D02*
D03*
X337618Y359684D02*
D03*
X285118Y437435D02*
D03*
X315506Y396518D02*
D03*
X684982Y552976D02*
D03*
X686999Y538087D02*
D03*
X675850Y526345D02*
D03*
X677813Y505170D02*
D03*
X686226Y513583D02*
D03*
X620784Y466044D02*
D03*
X548789Y473136D02*
D03*
X533165Y484276D02*
D03*
X530917Y471877D02*
D03*
X519930Y479839D02*
D03*
X523973Y535015D02*
D03*
X833777Y98464D02*
D03*
X741526Y133000D02*
D03*
X438861Y533898D02*
D03*
X561477Y633399D02*
D03*
X637481Y618953D02*
D03*
X642480Y598002D02*
D03*
X655359Y599155D02*
D03*
X670618Y592805D02*
D03*
X760802Y355283D02*
D03*
X535296Y514202D02*
D03*
X457152Y433612D02*
D03*
X288318Y314158D02*
D03*
X170811Y380266D02*
D03*
X527996Y578906D02*
D03*
X101183Y373942D02*
D03*
X162441Y386602D02*
D03*
X710000Y480936D02*
D03*
X234911Y87778D02*
D03*
X80000Y490448D02*
D03*
X27460Y643000D02*
D03*
X74812Y652500D02*
D03*
X223407Y84000D02*
D03*
X82638Y62220D02*
D03*
X192811Y20562D02*
D03*
X913734Y191706D02*
D03*
X750000Y603467D02*
D03*
X803014Y363824D02*
D03*
X635359Y513382D02*
D03*
X779819Y319000D02*
D03*
X764130Y329094D02*
D03*
X591984Y613906D02*
D03*
X927085Y329094D02*
D03*
X902630Y270000D02*
D03*
X910924Y161886D02*
D03*
X818462Y476840D02*
D03*
X750000Y589000D02*
D03*
X810000Y528467D02*
D03*
X816500Y439852D02*
D03*
X644670Y612251D02*
D03*
X578596Y355283D02*
D03*
X569519Y369641D02*
D03*
X78093Y481381D02*
D03*
X401643Y212581D02*
D03*
X382393Y359000D02*
D03*
X693624Y430654D02*
D03*
X445519Y361275D02*
D03*
X451419Y444050D02*
D03*
X167093Y510000D02*
D03*
X188745Y261301D02*
D03*
X262188Y238000D02*
D03*
X113908Y245015D02*
D03*
X153383Y156235D02*
D03*
D104*
X426519Y255802D02*
D03*
Y266802D02*
D03*
X437519Y255802D02*
D03*
Y266802D02*
D03*
D119*
X61800Y377500D02*
D03*
Y372500D02*
D03*
Y367500D02*
D03*
Y362500D02*
D03*
Y357500D02*
D03*
Y352500D02*
D03*
Y347500D02*
D03*
Y342500D02*
D03*
D120*
X62000Y384000D02*
D03*
Y336000D02*
D03*
D121*
X62300Y392000D02*
D03*
Y328000D02*
D03*
D122*
X56050Y411100D02*
D03*
Y308900D02*
D03*
X16750Y411100D02*
D03*
Y308900D02*
D03*
D125*
X610517Y190920D02*
D03*
D126*
Y197420D02*
D03*
Y203920D02*
D03*
Y210420D02*
D03*
X631534D02*
D03*
Y203920D02*
D03*
Y197420D02*
D03*
Y190920D02*
D03*
D129*
X407854Y418532D02*
D03*
Y444050D02*
D03*
X383618Y418532D02*
D03*
Y444050D02*
D03*
X433617Y418532D02*
D03*
Y444050D02*
D03*
D135*
X51670Y331095D02*
D03*
D136*
Y388908D02*
D03*
D137*
X61799Y360004D02*
D03*
D138*
X465570Y349934D02*
D03*
X423660D02*
D03*
D139*
X62062Y650500D02*
D03*
X42062D02*
D03*
X19062Y600500D02*
D03*
X85062D02*
D03*
X48459Y70078D02*
D03*
X68459D02*
D03*
X91459Y120078D02*
D03*
X25459D02*
D03*
X135645Y25000D02*
D03*
X155645D02*
D03*
X178645Y75000D02*
D03*
X112645D02*
D03*
X223407Y25000D02*
D03*
X243407D02*
D03*
X266407Y75000D02*
D03*
X200407D02*
D03*
X152811Y649340D02*
D03*
X132811D02*
D03*
X109811Y599340D02*
D03*
X175811D02*
D03*
X239214Y649340D02*
D03*
X219214D02*
D03*
X196214Y599340D02*
D03*
X262214D02*
D03*
D140*
X306118Y494448D02*
D03*
Y507148D02*
D03*
Y519848D02*
D03*
Y532548D02*
D03*
Y545248D02*
D03*
Y557948D02*
D03*
Y570648D02*
D03*
Y583348D02*
D03*
X397118Y494448D02*
D03*
Y507148D02*
D03*
Y519848D02*
D03*
Y532548D02*
D03*
Y545248D02*
D03*
Y557948D02*
D03*
Y570648D02*
D03*
Y583348D02*
D03*
D141*
X781798Y648600D02*
D03*
X836398D02*
D03*
X781798Y674000D02*
D03*
X836398D02*
D03*
X781798Y699400D02*
D03*
X836398D02*
D03*
D142*
X750000Y50000D02*
D03*
X300000D02*
D03*
D143*
X465615Y359684D02*
D03*
Y353184D02*
D03*
Y346684D02*
D03*
Y340184D02*
D03*
X423615Y359684D02*
D03*
Y353184D02*
D03*
Y346684D02*
D03*
Y340184D02*
D03*
D144*
X669480Y553467D02*
D03*
X652480D02*
D03*
X428519Y283052D02*
D03*
X445519D02*
D03*
X557000Y336780D02*
D03*
X540000D02*
D03*
X583484Y556345D02*
D03*
X600484D02*
D03*
X620784Y513388D02*
D03*
X603784D02*
D03*
D145*
X575000Y223580D02*
D03*
Y193080D02*
D03*
D146*
X552115Y210124D02*
D03*
Y192624D02*
D03*
D147*
X507615Y201374D02*
D03*
D148*
X533000Y244500D02*
D03*
D149*
X556000Y313500D02*
D03*
X533000D02*
D03*
X510000D02*
D03*
M02*
