G04*
G04 #@! TF.GenerationSoftware,Altium Limited,Altium Designer,22.1.2 (22)*
G04*
G04 Layer_Color=16711935*
%FSLAX44Y44*%
%MOMM*%
G71*
G04*
G04 #@! TF.SameCoordinates,580B55D7-DBA2-4C77-87B0-4A933D30A280*
G04*
G04*
G04 #@! TF.FilePolarity,Positive*
G04*
G01*
G75*
%ADD151C,0.0510*%
%ADD152C,0.0000*%
%ADD153C,0.0508*%
%ADD154C,0.0600*%
D151*
X950000Y690000D02*
G03*
X970000Y670000I20000J0D01*
G01*
X970000Y50001D02*
G03*
X949999Y30000I0J-20001D01*
G01*
X30000Y670000D02*
G03*
X50000Y690000I0J20000D01*
G01*
X50000Y30000D02*
G03*
X30000Y50000I-20000J0D01*
G01*
D152*
X650000Y150000D02*
X700000Y100000D01*
X400000Y150000D02*
X650000D01*
X50000Y720000D02*
X290000D01*
X50000Y690000D02*
Y720000D01*
X700000Y0D02*
X950000D01*
X700000D02*
Y100013D01*
X350000Y100000D02*
X400000Y150000D01*
X350000Y0D02*
Y100000D01*
X50000Y0D02*
X350000D01*
X50000D02*
Y30000D01*
D153*
X949999Y25749D02*
Y30000D01*
Y25749D02*
X950000Y25750D01*
X290000Y720000D02*
X300000Y710000D01*
X700000D01*
X710000Y720000D01*
X970000Y670000D02*
X1000000D01*
X950000Y690000D02*
Y720000D01*
X710000D02*
X950000D01*
X1000000Y50000D02*
Y670000D01*
X970000Y50000D02*
X1000000D01*
X950000Y0D02*
Y25750D01*
D154*
X701150Y154459D02*
Y151127D01*
X701816Y150460D01*
X703149D01*
X703816Y151127D01*
Y154459D01*
X705148Y150460D02*
X706481D01*
X705815D01*
Y154459D01*
X705148Y153792D01*
X708481Y154459D02*
X711146D01*
Y153792D01*
X708481Y151127D01*
Y150460D01*
X341350Y183792D02*
Y187124D01*
X340684Y187790D01*
X339351D01*
X338684Y187124D01*
Y183792D01*
X334686Y187790D02*
X337351D01*
X334686Y185124D01*
Y184458D01*
X335352Y183792D01*
X336685D01*
X337351Y184458D01*
X333353D02*
X332686Y183792D01*
X331353D01*
X330687Y184458D01*
Y187124D01*
X331353Y187790D01*
X332686D01*
X333353Y187124D01*
Y184458D01*
X794070Y84233D02*
Y87565D01*
X793403Y88231D01*
X792070D01*
X791404Y87565D01*
Y84233D01*
X790071Y88231D02*
X788738D01*
X789404D01*
Y84233D01*
X790071Y84899D01*
X786739D02*
X786072Y84233D01*
X784739D01*
X784073Y84899D01*
Y85566D01*
X784739Y86232D01*
X784073Y86898D01*
Y87565D01*
X784739Y88231D01*
X786072D01*
X786739Y87565D01*
Y86898D01*
X786072Y86232D01*
X786739Y85566D01*
Y84899D01*
X786072Y86232D02*
X784739D01*
M02*
