G04*
G04 #@! TF.GenerationSoftware,Altium Limited,Altium Designer,22.1.2 (22)*
G04*
G04 Layer_Physical_Order=1*
G04 Layer_Color=255*
%FSLAX44Y44*%
%MOMM*%
G71*
G04*
G04 #@! TF.SameCoordinates,580B55D7-DBA2-4C77-87B0-4A933D30A280*
G04*
G04*
G04 #@! TF.FilePolarity,Positive*
G04*
G01*
G75*
%ADD14C,0.2540*%
%ADD15R,0.7500X0.6500*%
%ADD16R,5.0000X4.5000*%
%ADD17R,0.5500X1.3000*%
%ADD18R,0.7000X1.3000*%
G04:AMPARAMS|DCode=19|XSize=0.6mm|YSize=1mm|CornerRadius=0.051mm|HoleSize=0mm|Usage=FLASHONLY|Rotation=90.000|XOffset=0mm|YOffset=0mm|HoleType=Round|Shape=RoundedRectangle|*
%AMROUNDEDRECTD19*
21,1,0.6000,0.8980,0,0,90.0*
21,1,0.4980,1.0000,0,0,90.0*
1,1,0.1020,0.4490,0.2490*
1,1,0.1020,0.4490,-0.2490*
1,1,0.1020,-0.4490,-0.2490*
1,1,0.1020,-0.4490,0.2490*
%
%ADD19ROUNDEDRECTD19*%
%ADD20R,0.6500X0.7500*%
%ADD21R,0.6400X0.5400*%
%ADD22R,1.0000X0.5000*%
%ADD23R,0.9000X0.8000*%
%ADD24R,2.1700X1.9400*%
%ADD25O,0.3000X1.6000*%
%ADD26R,1.3000X2.0000*%
%ADD27R,1.0000X0.3000*%
%ADD28R,0.3750X1.1565*%
G04:AMPARAMS|DCode=29|XSize=1.1565mm|YSize=0.375mm|CornerRadius=0.1875mm|HoleSize=0mm|Usage=FLASHONLY|Rotation=90.000|XOffset=0mm|YOffset=0mm|HoleType=Round|Shape=RoundedRectangle|*
%AMROUNDEDRECTD29*
21,1,1.1565,0.0000,0,0,90.0*
21,1,0.7815,0.3750,0,0,90.0*
1,1,0.3750,0.0000,0.3908*
1,1,0.3750,0.0000,-0.3908*
1,1,0.3750,0.0000,-0.3908*
1,1,0.3750,0.0000,0.3908*
%
%ADD29ROUNDEDRECTD29*%
%ADD30R,1.7000X0.8000*%
%ADD31R,1.0000X0.6000*%
%ADD32R,1.5562X1.4546*%
%ADD33R,1.3500X1.8000*%
%ADD34R,1.4546X1.5562*%
%ADD35R,0.8000X0.5000*%
%ADD36R,2.5000X2.5000*%
%ADD37R,0.5400X0.6400*%
%ADD38R,0.9000X1.6500*%
%ADD39R,2.6000X1.0600*%
%ADD40R,5.7000X5.6320*%
%ADD41R,0.5000X0.8000*%
%ADD42R,0.5500X0.5000*%
%ADD43R,1.2000X1.1000*%
%ADD44R,1.8000X1.3500*%
%ADD45R,0.6500X0.5500*%
%ADD46R,0.5500X0.6500*%
%ADD47R,1.4000X1.2000*%
%ADD48R,3.2000X4.3500*%
%ADD49R,1.1000X1.1500*%
%ADD50R,1.1000X1.2000*%
%ADD51R,1.1544X1.7062*%
%ADD52O,0.3000X2.1000*%
%ADD53O,2.1000X0.3000*%
%ADD54R,1.5500X1.3000*%
%ADD95C,0.6500*%
%ADD99R,1.5400X1.5400*%
%ADD100C,1.5400*%
%ADD101C,2.0000*%
%ADD104C,0.5000*%
%ADD106C,0.5080*%
%ADD107C,0.6350*%
%ADD108C,0.7620*%
%ADD109C,0.3048*%
%ADD110C,1.0000*%
%ADD111R,3.5000X2.3000*%
%ADD112R,1.5000X1.5000*%
%ADD113C,1.5000*%
%ADD114C,3.2000*%
%ADD115C,0.4500*%
%ADD116C,0.4000*%
D14*
X534011Y647009D02*
G03*
X547042Y654556I1039J13229D01*
G01*
X663500Y561586D02*
X686999Y538087D01*
X663500Y599062D02*
X675855Y611416D01*
X663500Y561586D02*
Y599062D01*
X783990Y695000D02*
X815000D01*
X755000Y666010D02*
X783990Y695000D01*
X644250Y167000D02*
X720000Y91250D01*
Y84000D02*
Y91250D01*
X618000Y167000D02*
X644250D01*
X728947Y123738D02*
X728953Y123744D01*
X741994D01*
X742000Y123750D01*
X755550D01*
X728947Y123738D02*
X729664D01*
X729676Y123750D01*
Y134000D01*
X611740Y160740D02*
X618000Y167000D01*
X394740Y160740D02*
X611740D01*
X629612Y157864D02*
X630998D01*
X631373Y158239D01*
X629048Y157300D02*
X629612Y157864D01*
X396165Y157300D02*
X629048D01*
X126688Y10000D02*
X247750D01*
X294310Y56560D01*
X295425D02*
X396165Y157300D01*
X294310Y56560D02*
X295425D01*
X692781Y182719D02*
X697446Y178054D01*
X681969Y182719D02*
X692781D01*
X678065Y186623D02*
X681969Y182719D01*
X677499Y186960D02*
X677753Y186935D01*
X654981Y186960D02*
X677499D01*
X679637Y180387D02*
X681789Y182539D01*
X681789Y182539D01*
X677753Y186935D02*
X677886Y186802D01*
X677657Y175799D02*
X679637Y177779D01*
Y180387D01*
X702500Y175799D02*
Y176074D01*
X700520Y178054D02*
X702500Y176074D01*
X697446Y178054D02*
X700520D01*
X201000Y324723D02*
X208315Y317408D01*
X201000Y324723D02*
Y337500D01*
X751703Y165239D02*
Y171703D01*
X755750Y175750D02*
X759500D01*
X751703Y171703D02*
X755750Y175750D01*
X759500D02*
X759779Y175471D01*
X762637D01*
X766284Y171824D01*
Y167616D02*
Y171824D01*
Y167616D02*
X768264Y165636D01*
X756307Y554443D02*
X762000Y548750D01*
Y548355D02*
X765650Y544705D01*
X756307Y554443D02*
Y561680D01*
X762000Y548355D02*
Y548750D01*
X765650Y518802D02*
Y544705D01*
X744657Y538593D02*
X756279Y526971D01*
X735346Y538593D02*
X744657D01*
X756279Y521713D02*
Y526971D01*
Y521713D02*
X758770Y519222D01*
Y515952D02*
Y519222D01*
X721730Y537406D02*
X732607Y526529D01*
X737721D01*
X742535Y521715D02*
X745836D01*
X737721Y526529D02*
X742535Y521715D01*
X745836D02*
X751890Y515661D01*
X124759Y11929D02*
X126688Y10000D01*
X188529Y180409D02*
X195438Y173500D01*
X188250Y184500D02*
X188529Y184221D01*
X194668Y192230D02*
Y193150D01*
X192358Y189920D02*
X194668Y192230D01*
X192358Y188608D02*
Y189920D01*
X188529Y180409D02*
Y184221D01*
X195438Y173500D02*
X195938D01*
X188250Y184500D02*
X192358Y188608D01*
X247625Y591375D02*
X268762D01*
X270250Y592863D02*
Y610728D01*
X257139Y623840D02*
X270250Y610728D01*
X268762Y591375D02*
X270250Y592863D01*
X247250Y591000D02*
X247625Y591375D01*
X236714Y594927D02*
X243323D01*
X247250Y591000D01*
X174562Y579500D02*
X185500Y568562D01*
Y563000D02*
Y568562D01*
X176042Y563520D02*
X177510D01*
X174062Y565500D02*
X176042Y563520D01*
X177510D02*
X178030Y563000D01*
X185500D01*
X36604Y134473D02*
X36979Y134098D01*
X42929Y121500D02*
Y131296D01*
X36979Y134098D02*
X40127D01*
X42929Y131296D01*
X5529Y146529D02*
Y151012D01*
X7017Y152500D02*
X15000D01*
X5529Y151012D02*
X7017Y152500D01*
X5250Y146250D02*
X5529Y146529D01*
X9137Y141061D02*
X14898D01*
X5529Y144669D02*
X9137Y141061D01*
X14898D02*
X17459Y138500D01*
X5529Y144669D02*
Y145971D01*
X5250Y146250D02*
X5529Y145971D01*
X784000Y175500D02*
X787500D01*
X781261Y172761D02*
X784000Y175500D01*
X781261Y165664D02*
Y172761D01*
X790568Y175432D02*
X794408Y171592D01*
X787500Y175500D02*
X787568Y175432D01*
X790568D01*
X794408Y166989D02*
X795761Y165636D01*
X794408Y166989D02*
Y171592D01*
X795761Y150749D02*
Y166136D01*
X768264Y150749D02*
Y166136D01*
X864187Y87262D02*
X867959D01*
X862699Y76746D02*
Y85774D01*
X864187Y87262D01*
X867959D02*
X869177Y88480D01*
X862699Y76746D02*
X864679Y74766D01*
Y72071D02*
X869500Y67250D01*
X864679Y72071D02*
Y74766D01*
X876173Y75767D02*
X877152Y76746D01*
X869500Y67250D02*
X872750D01*
X876173Y70673D02*
Y75767D01*
X872750Y67250D02*
X876173Y70673D01*
X210500Y339750D02*
X210689Y339939D01*
Y347665D01*
X210500Y329504D02*
Y339750D01*
Y329504D02*
X210689Y329316D01*
X442107Y231889D02*
X442169Y231826D01*
Y229283D02*
Y231826D01*
Y229283D02*
X443783Y227670D01*
Y224928D02*
Y227670D01*
X442019Y238802D02*
X442107Y238714D01*
Y231889D02*
Y238714D01*
X443500Y224645D02*
X443783Y224928D01*
X458055Y212006D02*
X464610D01*
X443500Y224250D02*
X449275Y218475D01*
X443500Y224250D02*
Y224645D01*
X464610Y212006D02*
X465615Y211000D01*
X437019Y222854D02*
Y239375D01*
X451586Y218475D02*
X458055Y212006D01*
X432019Y222989D02*
X437750Y217258D01*
X437019Y222854D02*
X443041Y216832D01*
X437750Y207348D02*
Y217258D01*
X449275Y218475D02*
X451586D01*
X432019Y222989D02*
Y238802D01*
X443041Y212029D02*
Y216832D01*
X443320Y211750D02*
X443715D01*
X443041Y212029D02*
X443320Y211750D01*
X366515Y161994D02*
Y174840D01*
X348750Y175750D02*
X364605D01*
X365105Y176250D02*
X365500D01*
Y175855D02*
X366515Y174840D01*
X364605Y175750D02*
X365105Y176250D01*
X365500Y175855D02*
Y176250D01*
X844424Y88480D02*
X844924D01*
X842994Y87050D02*
X844424Y88480D01*
X836000Y76746D02*
X836527D01*
X839007Y74266D01*
Y72493D02*
Y74266D01*
X836282Y76746D02*
X838762Y79226D01*
X836000Y76746D02*
X836282D01*
X842994Y86550D02*
Y87050D01*
X838762Y82318D02*
X842994Y86550D01*
X838762Y79226D02*
Y82318D01*
X839007Y72493D02*
X844500Y67000D01*
X839007Y72493D02*
Y74766D01*
X844924Y67424D02*
X849719Y72219D01*
Y74766D02*
X851699Y76746D01*
X849719Y72219D02*
Y74766D01*
X837027Y76746D02*
X839007Y74766D01*
X298000Y165500D02*
Y182000D01*
Y157150D02*
Y165500D01*
X504780Y387998D02*
Y423000D01*
X499210Y388703D02*
X532093Y355820D01*
X495770Y379603D02*
X530693Y344680D01*
X485670Y559216D02*
X497900Y546986D01*
X482230Y557791D02*
X494460Y545561D01*
X492330Y378178D02*
X529268Y341240D01*
X488890Y376753D02*
X527843Y337800D01*
X485450Y372050D02*
X510538Y346962D01*
X458425Y542506D02*
X487580Y513351D01*
X482010Y366016D02*
X517316Y330710D01*
X454985Y540562D02*
X484140Y511408D01*
X448105Y537713D02*
X477260Y508558D01*
X440621Y540332D02*
X473820Y507133D01*
X499210Y388703D02*
Y425307D01*
X495770Y379603D02*
Y426732D01*
X475130Y363166D02*
X514466Y323830D01*
X478570Y364591D02*
Y433857D01*
X475130Y363166D02*
Y435281D01*
X508220Y470342D02*
Y551260D01*
X478570Y364591D02*
X515891Y327270D01*
X508220Y470342D02*
X510350Y468212D01*
X467777Y468726D02*
X468250Y468253D01*
X510350Y387293D02*
Y468212D01*
X478570Y433857D02*
X480700Y435987D01*
X477260Y437411D02*
Y508558D01*
X482010Y432432D02*
X484140Y434562D01*
X488890Y376753D02*
Y429582D01*
X491020Y431712D02*
Y516911D01*
X485450Y431007D02*
X487580Y433137D01*
X482010Y366016D02*
Y432432D01*
X487580Y433137D02*
Y513351D01*
X484140Y434562D02*
Y511408D01*
X488890Y429582D02*
X491020Y431712D01*
X492330Y428157D02*
X494460Y430287D01*
X468250Y359291D02*
X513240Y314300D01*
X494460Y430287D02*
Y545561D01*
X451545Y539137D02*
X480700Y509983D01*
Y435987D02*
Y509983D01*
X471690Y360715D02*
Y436706D01*
X461865Y546065D02*
X491020Y516911D01*
X499210Y425307D02*
X501340Y427437D01*
X475130Y435281D02*
X477260Y437411D01*
X492330Y378178D02*
Y428157D01*
X497900Y428862D02*
Y546986D01*
X468250Y359291D02*
Y468253D01*
X495770Y426732D02*
X497900Y428862D01*
X471690Y436706D02*
X473820Y438836D01*
X501340Y427437D02*
Y548410D01*
X489110Y560640D02*
X501340Y548410D01*
X485450Y372050D02*
Y431007D01*
X510350Y387293D02*
X534943Y362700D01*
X473820Y438836D02*
Y507133D01*
X471690Y360715D02*
X516680Y315725D01*
X504780Y423000D02*
Y549835D01*
X545963Y415750D02*
Y442243D01*
Y361259D02*
Y415750D01*
X551533Y396250D02*
Y439313D01*
Y360553D02*
Y396250D01*
X545963Y442243D02*
X560233Y456512D01*
X560543Y392518D02*
Y436166D01*
X557069Y359883D02*
X563239Y353712D01*
X557069Y359883D02*
Y393909D01*
X560509Y392484D02*
X560543Y392518D01*
X563983Y433859D02*
X571629Y441504D01*
X563983Y391093D02*
Y433859D01*
X563949Y362732D02*
Y391059D01*
X557069Y393909D02*
X557103Y393943D01*
Y438474D02*
X568262Y449632D01*
X545963Y361259D02*
X556359Y350863D01*
X557103Y393943D02*
Y438474D01*
X563949Y362732D02*
X570119Y356562D01*
X560509Y361307D02*
Y392484D01*
Y361307D02*
X566679Y355137D01*
X560543Y436166D02*
X569945Y445568D01*
X563949Y391059D02*
X563983Y391093D01*
X758990Y385761D02*
Y453487D01*
X745230Y394990D02*
Y459186D01*
X734488Y463039D02*
X735112Y463663D01*
X758990Y453487D02*
X765714Y460211D01*
X745230Y459186D02*
X749458Y463415D01*
X734488Y452711D02*
Y463039D01*
X762430Y383454D02*
Y452062D01*
X748670Y392683D02*
Y457761D01*
X686476Y307500D02*
X762430Y383454D01*
X683487Y327500D02*
X748670Y392683D01*
X765870Y381146D02*
Y450637D01*
X752110Y390376D02*
Y456337D01*
X738350Y399605D02*
Y462036D01*
X765870Y450637D02*
X772620Y457387D01*
X752110Y456337D02*
X757586Y461813D01*
X738350Y462036D02*
X741330Y465016D01*
X776060Y455962D02*
Y456844D01*
X741790Y397298D02*
Y460611D01*
X769310Y378839D02*
Y449212D01*
X755550Y388069D02*
Y454912D01*
X761650Y461012D02*
Y465424D01*
X745394Y464216D02*
Y472158D01*
X681992Y337500D02*
X741790Y397298D01*
X694262Y412486D02*
X734488Y452711D01*
X682740Y332500D02*
X745230Y394990D01*
X755550Y454912D02*
X761650Y461012D01*
X769180Y458812D02*
Y461459D01*
X762430Y452062D02*
X769180Y458812D01*
X688718Y292500D02*
X772750Y376532D01*
X684234Y322500D02*
X752110Y390376D01*
X706245Y367500D02*
X738350Y399605D01*
X772750Y447787D02*
X788514Y463551D01*
X753522Y462614D02*
Y468791D01*
X687971Y297500D02*
X769310Y378839D01*
X735112Y463663D02*
Y474388D01*
X687224Y302500D02*
X765870Y381146D01*
X685729Y312500D02*
X758990Y385761D01*
X741790Y460611D02*
X745394Y464216D01*
X772750Y376532D02*
Y447787D01*
X748670Y457761D02*
X753522Y462614D01*
X769310Y449212D02*
X776060Y455962D01*
X684981Y317500D02*
X755550Y388069D01*
X653821Y412486D02*
X694262D01*
X749458Y463415D02*
Y470474D01*
X772620Y457387D02*
Y459152D01*
X765714Y460211D02*
Y463741D01*
X741330Y465016D02*
Y473841D01*
X757586Y461813D02*
Y467108D01*
X741330Y473841D02*
X753510Y486021D01*
X753522Y468791D02*
X763830Y479099D01*
X757586Y467108D02*
X767270Y476791D01*
X776060Y456844D02*
X785074Y465858D01*
X761650Y465424D02*
X770710Y474484D01*
X749458Y470474D02*
X760390Y481406D01*
X765714Y463741D02*
X774150Y472176D01*
X772620Y459152D02*
X781570Y468102D01*
X769180Y461459D02*
X777590Y469869D01*
X745394Y472158D02*
X756950Y483713D01*
X735112Y474388D02*
X750070Y489346D01*
X739070Y512333D02*
X740828Y510575D01*
X762210Y517377D02*
Y538288D01*
X774150Y472176D02*
Y520031D01*
X753510Y486021D02*
Y511482D01*
X755330Y514527D02*
Y517797D01*
X767270Y476791D02*
Y517182D01*
X751890Y513102D02*
Y515661D01*
X744072Y500670D02*
X745010Y499732D01*
X744221Y507471D02*
X744500Y507750D01*
X769090Y520227D02*
X770710Y518606D01*
X744105Y507750D02*
X744500D01*
X777590Y469869D02*
Y553373D01*
X776564Y554399D02*
Y567936D01*
X744072Y500670D02*
Y501996D01*
X760390Y481406D02*
Y514332D01*
X750070Y489346D02*
Y510057D01*
X763830Y479099D02*
Y515757D01*
X772530Y521651D02*
Y553585D01*
X739070Y512333D02*
Y512807D01*
X741280Y510575D02*
X744105Y507750D01*
X756950Y483713D02*
Y512907D01*
X765650Y518802D02*
X767270Y517182D01*
X751890Y513102D02*
X753510Y511482D01*
X772530Y521651D02*
X774150Y520031D01*
X744221Y502145D02*
Y507471D01*
X744072Y501996D02*
X744221Y502145D01*
X769090Y520227D02*
Y552160D01*
X758770Y515952D02*
X760390Y514332D01*
X745320Y514808D02*
X750070Y510057D01*
X755330Y514527D02*
X756950Y512907D01*
X762210Y517377D02*
X763830Y515757D01*
X740828Y510575D02*
X741280D01*
X770710Y474484D02*
Y518606D01*
X742192Y514808D02*
X745320D01*
X776564Y554399D02*
X777590Y553373D01*
X751250Y549248D02*
X762210Y538288D01*
X761877Y559373D02*
X769090Y552160D01*
X769488Y556627D02*
X772530Y553585D01*
X735788Y516090D02*
X739070Y512807D01*
X745843Y527285D02*
X755330Y517797D01*
X745010Y490034D02*
Y499732D01*
X727608Y477723D02*
X741570Y491685D01*
X735721Y494279D02*
Y499292D01*
X731048Y476072D02*
X745010Y490034D01*
X741570Y491685D02*
Y498307D01*
X722920Y481162D02*
X735758Y494000D01*
X734070Y500942D02*
Y502324D01*
X737510Y502367D02*
X741570Y498307D01*
X734070Y500942D02*
X735721Y499292D01*
Y494279D02*
X736000Y494000D01*
X728867Y505672D02*
X730451D01*
X707508Y507318D02*
X721199D01*
X735630Y505629D02*
Y507975D01*
X721199Y507318D02*
X727938Y500579D01*
X723221Y496231D02*
X724148D01*
X735630Y505629D02*
X737510Y503749D01*
X731193Y504930D02*
X731464D01*
X724148Y496231D02*
X728020Y500102D01*
X707420Y507406D02*
X707508Y507318D01*
X727740Y500250D02*
X727938Y500448D01*
X718093Y516446D02*
X728867Y505672D01*
X728020Y500102D02*
X728415D01*
X727938Y500448D02*
Y500579D01*
X730451Y505672D02*
X731193Y504930D01*
X737510Y502367D02*
Y503749D01*
X731464Y504930D02*
X734070Y502324D01*
X720654Y493664D02*
X723221Y496231D01*
X720654Y488237D02*
Y493664D01*
X717480Y485063D02*
X720654Y488237D01*
X740034Y533093D02*
X745843Y527285D01*
X733221Y510384D02*
X735630Y507975D01*
X733221Y510384D02*
Y510779D01*
X737470Y519530D02*
X742192Y514808D01*
X742192D02*
X743529Y516145D01*
X718093Y521446D02*
X728760Y510779D01*
X731847Y516090D02*
X735788D01*
X728760Y510779D02*
X733221D01*
X720619Y527318D02*
X731847Y516090D01*
X733272Y519530D02*
X737470D01*
X732967Y533093D02*
X740034D01*
X726533Y547406D02*
X735346Y538593D01*
X723653Y542406D02*
X732967Y533093D01*
X707420Y542406D02*
X723653D01*
X733989Y549529D02*
X734989D01*
X733182Y550336D02*
X733989Y549529D01*
X728782Y550336D02*
X733182D01*
X707420Y547406D02*
X726533D01*
X721712Y557406D02*
X728782Y550336D01*
X716544Y522406D02*
X717504Y521446D01*
X718093D01*
X707420Y522406D02*
X716544D01*
X727608Y456444D02*
Y477723D01*
X707508Y527318D02*
X720619D01*
X730646Y522156D02*
X733272Y519530D01*
X716544Y517406D02*
X717505Y516446D01*
X730646Y522156D02*
Y523490D01*
X691778Y420614D02*
X727608Y456444D01*
X691778Y420614D02*
Y420614D01*
X707420Y517406D02*
X716544D01*
X717505Y516446D02*
X718093D01*
X707420Y537406D02*
X721730D01*
Y532406D02*
X730646Y523490D01*
X707420Y527406D02*
X707508Y527318D01*
X707420Y532406D02*
X721730D01*
X609250Y369250D02*
X613138Y373138D01*
X601270Y368382D02*
Y368511D01*
X601980Y369221D01*
X608721D01*
X609000Y369500D01*
X600000Y367112D02*
X601270Y368382D01*
X613138Y373138D02*
Y378166D01*
X610288Y383962D02*
X618826Y392500D01*
X607060Y380734D02*
X610288Y383962D01*
X611250Y393612D02*
X613111D01*
X600000D02*
X611250D01*
X561420Y633342D02*
X562962Y634885D01*
Y635415D01*
X446329Y209136D02*
X451833D01*
X443715Y211750D02*
X446329Y209136D01*
X451833D02*
X452639Y208330D01*
X612375Y403625D02*
X613500Y402500D01*
X608788Y407212D02*
X612375Y403625D01*
X614723Y414973D02*
X622197Y407500D01*
X609497Y420199D02*
X614723Y414973D01*
X616529Y423279D02*
X619703Y420104D01*
X613384Y426423D02*
X616529Y423279D01*
X873479Y162750D02*
X875468Y160761D01*
X873250Y162750D02*
X873479D01*
X875468Y160761D02*
X887870D01*
X873529Y168486D02*
X881630Y176586D01*
Y177086D01*
X873250Y162750D02*
X873529Y163029D01*
Y168486D01*
X876258Y512758D02*
X879500Y516000D01*
X871678Y512758D02*
X876258D01*
X868529Y509609D02*
X871678Y512758D01*
X868529Y507529D02*
Y509609D01*
X868250Y507250D02*
X868529Y507529D01*
Y505721D02*
Y506971D01*
X868250Y507250D02*
X868529Y506971D01*
Y505721D02*
X874418Y499832D01*
X883000D01*
X390558Y214279D02*
Y218701D01*
X392046Y220189D02*
X396850D01*
X390558Y218701D02*
X392046Y220189D01*
X390279Y209714D02*
Y214000D01*
Y209714D02*
X399710Y200282D01*
X390279Y214000D02*
X390558Y214279D01*
X443750Y193750D02*
X444320D01*
X451409Y196940D02*
X452639Y198170D01*
X444320Y193750D02*
X446632Y191438D01*
X448943D01*
X452389Y187992D01*
X444715Y193750D02*
X447905Y196940D01*
X451409D01*
X443750Y193750D02*
X444715D01*
X452639Y198170D02*
X452889D01*
X437750Y207348D02*
X438750Y206348D01*
Y189390D02*
X444099Y184041D01*
X438750Y189390D02*
Y206348D01*
X452389Y187992D02*
X452889D01*
X256889Y623840D02*
X257139D01*
X270471Y570029D02*
Y570671D01*
X260715Y580427D02*
X270471Y570671D01*
Y570029D02*
X270750Y569750D01*
X267588Y566427D02*
X270750Y569589D01*
Y569750D01*
X261485Y566427D02*
X267588D01*
X260215D02*
X261485D01*
X260215Y580427D02*
X261485Y579157D01*
Y566277D02*
Y566427D01*
X260215Y580427D02*
X260715D01*
X165488Y600500D02*
X174062D01*
X164000Y601988D02*
Y611250D01*
Y601988D02*
X165488Y600500D01*
X160380Y611250D02*
X164000D01*
X157960Y608830D02*
X160380Y611250D01*
X155420Y608830D02*
X157960D01*
X150276Y613974D02*
X155420Y608830D01*
X174062Y579500D02*
X174562D01*
X91323Y576460D02*
X95221Y572562D01*
X87250Y576460D02*
X91323D01*
X95105Y569500D02*
X95500D01*
X87092Y565656D02*
X89072Y567636D01*
X86865Y576845D02*
X87250Y576460D01*
X95221Y569779D02*
Y572562D01*
X89072Y567636D02*
X93241D01*
X95105Y569500D01*
X95221Y569779D02*
X95500Y569500D01*
X86332Y565506D02*
Y565656D01*
Y565506D02*
X88162Y563676D01*
X86592Y565656D02*
X87092D01*
X120529Y145971D02*
X122565D01*
X116069Y150285D02*
X120104Y146250D01*
X120250D01*
X120529Y145971D01*
X106938Y154515D02*
X111168Y150285D01*
X116069D01*
X122565Y145971D02*
X131635Y136900D01*
Y133150D02*
Y136900D01*
X375220Y613500D02*
X375750D01*
X366214Y614079D02*
X374641D01*
X375220Y613500D01*
X376230Y620897D02*
Y625080D01*
X381320Y615803D02*
X383443Y613680D01*
X361712Y618581D02*
X366214Y614079D01*
X383443Y613680D02*
X393332D01*
X376230Y620897D02*
X381320Y615807D01*
Y615803D02*
Y615807D01*
X361712Y618581D02*
Y621340D01*
X368900Y632411D02*
X376230Y625080D01*
X393332Y613680D02*
X405302Y625649D01*
X436161D01*
X329370Y632411D02*
X368900D01*
X60020Y600362D02*
X62250Y602592D01*
X65842D01*
X60020Y596770D02*
Y600362D01*
X65842Y602592D02*
X69375Y606125D01*
X71375D01*
X72000Y606750D01*
X71750Y606617D02*
X81736Y616603D01*
X71750Y606500D02*
Y606617D01*
X81736Y616603D02*
Y622913D01*
X751250Y549248D02*
Y564105D01*
X753007Y565862D01*
Y566257D01*
X751463Y567406D02*
X752612Y566257D01*
X707420Y567406D02*
X751463D01*
X752612Y566257D02*
X753007D01*
X761877Y559373D02*
X762017Y559513D01*
X756307Y561680D02*
X758577Y563950D01*
X707420Y577406D02*
X754600D01*
X767447Y558668D02*
X769488Y556627D01*
X754735Y572406D02*
X758577Y568564D01*
X707420Y582406D02*
X754465D01*
X767447Y569424D01*
X761877Y559373D02*
Y559373D01*
X762017Y559513D02*
Y569989D01*
X707420Y572406D02*
X754735D01*
X754600Y577406D02*
X762017Y569989D01*
X767447Y558668D02*
Y569424D01*
X758577Y563950D02*
Y568564D01*
X785074Y537013D02*
X787704Y539643D01*
X793250Y540325D02*
Y556477D01*
Y556500D02*
Y604777D01*
X782134Y538938D02*
Y556706D01*
X787704Y539643D02*
Y559013D01*
X781509Y538313D02*
X782134Y538938D01*
X769488Y556627D02*
X770994Y558134D01*
X776000Y568500D02*
X776564Y567936D01*
X786250Y566000D02*
Y603900D01*
X786527Y560190D02*
X787704Y559013D01*
X781509Y512289D02*
Y538313D01*
X786250Y566000D02*
X786527Y565723D01*
X793250Y556477D02*
X793273Y556500D01*
X786527Y560190D02*
Y565723D01*
X781116Y511897D02*
X781509Y512289D01*
X780250Y556706D02*
Y602023D01*
X781116Y511897D02*
X781570Y511443D01*
X732175Y665852D02*
X793250Y604777D01*
X788514Y535588D02*
X793250Y540325D01*
X774680Y568500D02*
X776000D01*
X724548Y657724D02*
X780250Y602023D01*
X728362Y661788D02*
X786250Y603900D01*
X776000Y568500D02*
Y598396D01*
X720735Y653660D02*
X776000Y598396D01*
X785074Y465858D02*
Y537013D01*
X788514Y463551D02*
Y535588D01*
X781570Y468102D02*
Y511443D01*
X667908Y653660D02*
X720735D01*
X660011Y665852D02*
X732175D01*
X667037Y657724D02*
X724548D01*
X800323Y53677D02*
X801470Y54824D01*
X798238Y51592D02*
X800323Y53677D01*
X344130Y212370D02*
X344260Y212240D01*
X335130Y212370D02*
X344130D01*
X325500Y212500D02*
X325500Y212500D01*
X335000D01*
X335130Y212370D01*
X298000Y157150D02*
X304380Y150770D01*
X306105Y193000D02*
X307605Y194500D01*
X308125Y194625D02*
X321125D01*
X308000Y194500D02*
X308125Y194625D01*
X298000Y193000D02*
X306105D01*
X307605Y194500D02*
X308000D01*
X321125Y194625D02*
X321250Y194750D01*
X304380Y150770D02*
X304880D01*
X775117Y105633D02*
X783070Y113586D01*
X773970Y104486D02*
X775117Y105633D01*
X808000Y114086D02*
X815039D01*
X794070D02*
X808000D01*
X809000Y430700D02*
X858800D01*
X799014D02*
X809000D01*
X812750Y326344D02*
X833842D01*
X803014D02*
X812750D01*
X729250Y151320D02*
X735557D01*
X717776D02*
X729250D01*
X729676Y134000D02*
Y137574D01*
X723750Y143000D02*
Y143625D01*
X729221Y134279D02*
X729500Y134000D01*
X729221Y134279D02*
Y137529D01*
X723750Y143000D02*
X729221Y137529D01*
X723750Y143500D02*
X729676Y137574D01*
X721250Y143500D02*
X723750D01*
X721250Y143500D02*
X721250Y143500D01*
X712222Y143500D02*
X713710Y144988D01*
Y147253D01*
X693750Y143500D02*
X712222D01*
X713710Y147253D02*
X717776Y151320D01*
X735557D02*
X736004Y150873D01*
X740149D01*
X741526Y152250D01*
X763054Y37594D02*
X766000D01*
X780199D01*
X96250Y179286D02*
X97738Y177798D01*
X104656D02*
X106938Y175515D01*
X97738Y177798D02*
X104656D01*
X96250Y179286D02*
Y185000D01*
X100765Y189515D02*
X106938D01*
X96250Y185000D02*
X100765Y189515D01*
X105668D02*
Y189665D01*
X425750Y651750D02*
X426145D01*
X428601Y649294D01*
X421885Y651471D02*
X425471D01*
X407354Y644640D02*
X415054D01*
X428601Y649294D02*
X434294D01*
X436161Y647427D01*
X415054Y644640D02*
X421885Y651471D01*
X425471D02*
X425750Y651750D01*
X60020Y619721D02*
X61500Y618241D01*
X71229D02*
X71970Y617500D01*
X60020Y619721D02*
Y620706D01*
X61500Y618241D02*
X71229D01*
X71970Y617500D02*
X72500D01*
X14250Y104000D02*
Y114291D01*
X17459Y117500D01*
X24573Y106500D02*
X35880D01*
X39650Y102730D01*
X14250Y104000D02*
X22073D01*
X24573Y106500D01*
X209079Y349275D02*
X210689Y347665D01*
X209079Y349275D02*
X212299D01*
X206689Y349275D02*
X209079D01*
X204582Y347668D02*
X208081D01*
X180433Y349275D02*
X202975D01*
X206689D01*
X202975D02*
X204582Y347668D01*
X206689Y349275D02*
Y349275D01*
X305037Y646979D02*
Y661673D01*
Y644065D02*
Y646979D01*
X305057Y646999D01*
X150276Y613974D02*
Y619307D01*
X148796Y620787D02*
X150276Y619307D01*
X159500Y625500D02*
X160030D01*
X162617Y622913D01*
X170736D01*
X815250Y77780D02*
X818070Y80600D01*
Y88307D01*
X815250Y77250D02*
Y77780D01*
X24622Y91500D02*
X32500D01*
X21035Y95087D02*
X24622Y91500D01*
X20785Y95087D02*
X21035D01*
X647972Y464002D02*
X649970Y466000D01*
X650500D01*
X641668Y464002D02*
X647972D01*
X90680Y605778D02*
Y625070D01*
X90500Y625250D02*
X90680Y625070D01*
X211462Y146786D02*
Y146786D01*
X197208Y151230D02*
X207019D01*
X195000Y140895D02*
Y151562D01*
Y140895D02*
X195500Y140395D01*
Y140000D02*
Y140395D01*
X207019Y151230D02*
X211462Y146786D01*
X195938Y152500D02*
X197208Y151230D01*
X195000Y151562D02*
X195938Y152500D01*
X207278Y311838D02*
X238503D01*
X174863Y338010D02*
X187949Y324924D01*
X194192D02*
X207278Y311838D01*
X174143Y344973D02*
X174863Y344253D01*
X187949Y324924D02*
X194192D01*
X174863Y338010D02*
Y344253D01*
X174143Y344973D02*
Y360275D01*
X292940Y673770D02*
X305037Y661673D01*
X595500Y677750D02*
X596030D01*
X598022Y675758D01*
X598829D01*
X616420Y658167D01*
X161169Y409102D02*
X169397Y417330D01*
Y419147D01*
X178000Y427750D01*
X471529Y591263D02*
X474887Y587905D01*
X479790Y602820D02*
X483720Y606750D01*
X478443Y602820D02*
X479790D01*
X470998Y591263D02*
X471529D01*
X475180Y594943D02*
X478790Y591333D01*
X474887Y587905D02*
X475350D01*
X481125Y594210D02*
X482230Y593105D01*
X481125Y594210D02*
Y596875D01*
X475180Y594943D02*
Y599557D01*
X480750Y597250D02*
X481125Y596875D01*
X482230Y557791D02*
Y593105D01*
X483720Y606750D02*
X484250D01*
X475180Y599557D02*
X478443Y602820D01*
X478790Y556366D02*
Y591333D01*
X475350Y554941D02*
Y587905D01*
X489777Y597399D02*
Y600581D01*
X489820Y615415D02*
X493218Y618812D01*
X489777Y600581D02*
X489820Y600624D01*
Y615415D01*
X331156Y333000D02*
X334049Y330107D01*
X308750Y333000D02*
X331156D01*
X334049Y330107D02*
X355924D01*
X633015Y417500D02*
X636500D01*
X632785Y417730D02*
Y421465D01*
Y417730D02*
X633015Y417500D01*
X628500Y425750D02*
X632785Y421465D01*
X631051Y456480D02*
X660507D01*
X661420Y470596D02*
X662980Y469035D01*
X667210Y458318D02*
Y467000D01*
X661932Y453040D02*
X667210Y458318D01*
X551533Y439313D02*
X565292Y453072D01*
X661420Y470596D02*
Y486406D01*
X656420Y470731D02*
X658200Y468951D01*
X663770Y459743D02*
Y465575D01*
X662980Y466365D02*
Y469035D01*
X660507Y456480D02*
X663770Y459743D01*
X666420Y467790D02*
X667210Y467000D01*
X629626Y453040D02*
X661932D01*
X662980Y466365D02*
X663770Y465575D01*
X658200Y462050D02*
Y468951D01*
X666420Y467790D02*
Y486406D01*
X565292Y453072D02*
X629594D01*
X629626Y453040D01*
X631019Y456512D02*
X631051Y456480D01*
X560233Y456512D02*
X631019D01*
X641420Y463754D02*
X641668Y464002D01*
X462441Y488139D02*
Y495568D01*
X463375Y496502D01*
Y499875D02*
X463750Y500250D01*
X463375Y496502D02*
Y499875D01*
X492550Y562065D02*
X504780Y549835D01*
X495990Y563490D02*
X508220Y551260D01*
X504780Y387998D02*
X533518Y359260D01*
X511660Y488640D02*
X519930Y480370D01*
X462520Y481330D02*
X468250Y487060D01*
X499430Y564915D02*
X511660Y552685D01*
Y488640D02*
Y552685D01*
X468250Y487060D02*
Y493500D01*
X458897Y484596D02*
X462441Y488139D01*
X496031Y308969D02*
X506500Y298500D01*
X496031Y308969D02*
Y310469D01*
X485938Y320562D02*
X496031Y310469D01*
X439217Y296750D02*
X446000D01*
X437019Y294552D02*
X439217Y296750D01*
X505000Y575461D02*
X505308D01*
X519614Y579592D02*
X523370Y583348D01*
X521280Y573000D02*
X521874Y572406D01*
X555420D01*
X509439Y579592D02*
X519614D01*
X520750Y573000D02*
X521280D01*
X505308Y575461D02*
X509439Y579592D01*
X717480Y462603D02*
Y485063D01*
X710000Y455123D02*
X717480Y462603D01*
X710000Y452436D02*
Y455123D01*
X800433Y454102D02*
X800632Y454301D01*
X810551D01*
X810750Y454500D01*
X818868Y92919D02*
X823340Y88448D01*
X818323Y92919D02*
X818868D01*
X816527Y94715D02*
X818323Y92919D01*
X810746Y91606D02*
X814771D01*
X818070Y88307D01*
X816527Y94715D02*
Y112598D01*
X823340Y88448D02*
X823840D01*
X294000Y60000D02*
X394740Y160740D01*
X437062Y164180D02*
X444099Y171217D01*
X397477D02*
X404515Y164180D01*
X437062D01*
X86593Y601690D02*
X90680Y605778D01*
X537250Y594500D02*
X537780D01*
X540686Y597406D02*
X555420D01*
X537780Y594500D02*
X540686Y597406D01*
X430233Y189767D02*
Y199973D01*
Y189767D02*
X430250Y189750D01*
X430217Y199989D02*
X430233Y199973D01*
X305048Y212560D02*
X314441D01*
X314500Y212500D01*
X304989Y212619D02*
X305048Y212560D01*
X318016Y316609D02*
X354307D01*
X310190Y324537D02*
X356487D01*
X691936Y192936D02*
X697607Y198607D01*
X471836Y347664D02*
Y349486D01*
Y347664D02*
X484000Y335500D01*
X460047Y361275D02*
X471836Y349486D01*
X529953Y341240D02*
X541580Y329613D01*
X531378Y344680D02*
X545020Y331038D01*
X529268Y341240D02*
X529953D01*
X527843Y337800D02*
X528529D01*
X538140Y328189D01*
X530693Y344680D02*
X531378D01*
X545020Y303221D02*
Y331038D01*
X538140Y297005D02*
Y328189D01*
X541580Y298430D02*
Y329613D01*
X305380Y150770D02*
X311209Y156600D01*
X320990D01*
X304880Y150770D02*
X305380D01*
X346250Y237500D02*
Y293010D01*
X373450Y210300D02*
X383945D01*
X346250Y237500D02*
X373450Y210300D01*
X708500Y163750D02*
X713500Y168750D01*
Y175799D01*
X432353Y292684D02*
Y302820D01*
X432107Y292438D02*
X432353Y292684D01*
X432107Y283140D02*
Y292438D01*
X432019Y283802D02*
X432107Y283140D01*
X498070Y238363D02*
X535033D01*
X492500Y233914D02*
X495957Y230457D01*
X492500Y233914D02*
Y245000D01*
X516721Y269221D01*
X516680Y289993D02*
Y315725D01*
X599741Y242500D02*
X623781Y218460D01*
X513281Y286594D02*
X516680Y289993D01*
X599410Y267500D02*
X636500D01*
X621474Y215020D02*
X647930D01*
X555340Y310143D02*
Y346337D01*
X538140Y297005D02*
X577473Y257672D01*
X551900Y307836D02*
Y344912D01*
X531260Y294155D02*
X570593Y254822D01*
X633665Y206420D02*
X633988Y206744D01*
X519865Y330710D02*
X525001Y325574D01*
X633988Y206744D02*
X643074D01*
X527820Y292730D02*
X567153Y253397D01*
X527820Y292730D02*
Y313557D01*
X486990Y250062D02*
X513281Y276353D01*
X516721Y285169D02*
X522250Y290698D01*
X581195Y267045D02*
X588382D01*
X587208Y242500D02*
X599741D01*
X551306Y302683D02*
X582879Y271109D01*
X522151Y318694D02*
X522684D01*
X623781Y218460D02*
X646505D01*
X574033Y255675D02*
X587208Y242500D01*
X522250Y290698D02*
Y311250D01*
X525001Y325574D02*
X525533D01*
X534700Y295580D02*
X574033Y256247D01*
X522684Y318694D02*
X527820Y313557D01*
X534700Y295580D02*
Y316407D01*
X518440Y327270D02*
X523576Y322133D01*
X525533Y325574D02*
X534700Y316407D01*
X555340Y310143D02*
X583396Y282087D01*
X582879Y271109D02*
X595801D01*
X624326Y206420D02*
X633665D01*
X517015Y323830D02*
X522151Y318694D01*
X501447Y279625D02*
X513240Y291418D01*
X592839Y262588D02*
X610193D01*
X513240Y291418D02*
Y314300D01*
X524109Y322133D02*
X531260Y314982D01*
X523576Y322133D02*
X524109D01*
X545020Y303221D02*
X547242Y300999D01*
X548950Y352727D02*
X555340Y346337D01*
X551900Y307836D02*
X584562Y275173D01*
X517316Y330710D02*
X519865D01*
X541580Y298430D02*
X580913Y259097D01*
X548460Y305528D02*
X551306Y302683D01*
X547242Y300999D02*
X581195Y267045D01*
X531260Y294155D02*
Y314982D01*
X588382Y267045D02*
X592839Y262588D01*
X548460Y305528D02*
Y343487D01*
X515891Y327270D02*
X518440D01*
X570593Y254250D02*
X587343Y237500D01*
X598994D01*
X621474Y215020D01*
X580814Y233436D02*
X597310D01*
X624326Y206420D01*
X514466Y323830D02*
X517015D01*
X595801Y271109D02*
X599410Y267500D01*
X567153Y247097D02*
Y253397D01*
Y247097D02*
X580814Y233436D01*
X516721Y269221D02*
Y285169D01*
X513281Y276353D02*
Y286594D01*
X545510Y351302D02*
X551900Y344912D01*
X583396Y282087D02*
X587893D01*
X584562Y275173D02*
X597485D01*
X493322Y272000D02*
X493822D01*
X501447Y279625D01*
Y279625D01*
X578550Y323098D02*
Y323629D01*
Y323098D02*
X582481Y319168D01*
Y304648D02*
Y319168D01*
X536732Y359260D02*
X536976Y359016D01*
X538157Y362700D02*
X538401Y362456D01*
X536976Y359016D02*
X538476D01*
X538401Y362456D02*
X539901D01*
X548950Y353407D01*
X538476Y359016D02*
X545510Y351982D01*
X525298Y384798D02*
X532596Y377500D01*
X525298Y384798D02*
Y474587D01*
X532093Y355820D02*
X535307D01*
X537307Y353820D02*
X538807D01*
X534943Y362700D02*
X538157D01*
X535307Y355820D02*
X537307Y353820D01*
X533518Y359260D02*
X536732D01*
X538807Y353820D02*
X542070Y350557D01*
Y349877D02*
X548460Y343487D01*
X573310Y333232D02*
X620341D01*
X574110Y337296D02*
X618658D01*
X551533Y360553D02*
X559799Y352287D01*
X563239Y353032D02*
Y353712D01*
X570119Y355882D02*
Y356562D01*
X559799Y351608D02*
Y352287D01*
X570119Y355882D02*
X576513Y349488D01*
X563239Y353032D02*
X574911Y341360D01*
X575712Y345424D02*
X615291D01*
X556359Y350183D02*
Y350863D01*
X559799Y351608D02*
X574110Y337296D01*
X545510Y351302D02*
Y351982D01*
X556359Y350183D02*
X573310Y333232D01*
X566679Y354457D02*
Y355137D01*
X576513Y349488D02*
X613607D01*
X566679Y354457D02*
X575712Y345424D01*
X574911Y341360D02*
X616974D01*
X542070Y349877D02*
Y350557D01*
X548950Y352727D02*
Y353407D01*
X472164Y320562D02*
X485938D01*
X486990Y222010D02*
Y250062D01*
X493178Y266428D02*
Y271856D01*
X493322Y272000D01*
X478989Y252239D02*
X493178Y266428D01*
X483455Y283000D02*
X493322D01*
X478989Y232762D02*
Y252239D01*
X535033Y238363D02*
X540382Y243712D01*
X554205D01*
X486990Y222010D02*
X499000Y210000D01*
X495957Y230457D02*
X504534D01*
X585233Y294826D02*
Y301896D01*
X582481Y304648D02*
X585233Y301896D01*
X616974Y341360D02*
X628114Y352500D01*
X620341Y333232D02*
X629379Y342270D01*
X618658Y337296D02*
X628862Y347500D01*
X615291Y345424D02*
X627366Y357500D01*
X586414Y258584D02*
X586644Y258355D01*
X586039Y261276D02*
X586414Y260901D01*
X554205Y243712D02*
X561583Y251090D01*
X586414Y258584D02*
Y260901D01*
X574033Y255675D02*
Y256247D01*
X577473Y257100D02*
Y257672D01*
Y257100D02*
X587073Y247500D01*
X570593Y254250D02*
Y254822D01*
X580913Y258525D02*
X586938Y252500D01*
X636500D01*
X587073Y247500D02*
X636500D01*
X580913Y258525D02*
Y259097D01*
X703905Y208141D02*
X705813D01*
X709777Y204177D01*
X699501Y212545D02*
X703905Y208141D01*
X697607Y198607D02*
X722595D01*
X725000Y201012D01*
X709777Y204177D02*
X710307D01*
X650320Y212545D02*
X699501D01*
X499000Y172000D02*
Y210000D01*
X504534Y230457D02*
X526439Y208552D01*
X474365Y229794D02*
X475845Y231274D01*
X477501D02*
X478989Y232762D01*
X474365Y229294D02*
Y229794D01*
X475845Y231274D02*
X477501D01*
X361476Y368967D02*
X387715Y395206D01*
X381176Y382920D02*
X451285D01*
X365540Y327842D02*
Y367284D01*
X381176Y382920D01*
X387715Y395206D02*
X415407D01*
X361476Y329525D02*
Y368967D01*
X468465Y473403D02*
Y478531D01*
X468090Y478906D02*
X468465Y478531D01*
X457019Y469074D02*
Y469075D01*
X462520Y474576D01*
X468465Y473403D02*
X468909Y472959D01*
X462520Y474576D02*
Y481330D01*
X519930Y479839D02*
Y480370D01*
X448105Y537713D02*
Y598048D01*
X451545Y539137D02*
Y596623D01*
X454985Y540562D02*
Y595198D01*
X467777Y468726D02*
Y471826D01*
X468909Y472959D01*
X455354Y475866D02*
X458897Y479410D01*
Y484596D01*
X425074Y469074D02*
X457019D01*
X398065Y475866D02*
X455354D01*
X440554Y456900D02*
X461865D01*
X445519Y361275D02*
X460047D01*
X440621Y612062D02*
X450080Y621522D01*
X440621Y540332D02*
Y612062D01*
X479355Y536990D02*
X485042Y531303D01*
X461865Y546065D02*
Y592348D01*
X458425Y542506D02*
Y593773D01*
X450080Y621522D02*
X463550D01*
X476000Y616189D02*
Y636918D01*
X474512Y638406D02*
X476000Y636918D01*
X463500Y638406D02*
X474512D01*
X451613Y631694D02*
X466438D01*
X472560Y625572D01*
X451419Y631500D02*
X451613Y631694D01*
X472560Y617614D02*
Y625572D01*
X469120Y619062D02*
Y623961D01*
X466350Y606539D02*
X476000Y616189D01*
X448105Y598048D02*
X469120Y619062D01*
X464925Y609979D02*
X472560Y617614D01*
X465990Y627092D02*
X469120Y623961D01*
X495348Y645416D02*
Y660238D01*
X503537Y624372D02*
X516142Y636977D01*
X482897Y643271D02*
X486338Y639831D01*
X495348Y601286D02*
Y616077D01*
X467775Y603099D02*
X486338Y621662D01*
X489777Y646121D02*
X493218Y642681D01*
X469199Y599659D02*
X489777Y620237D01*
X498787Y614652D02*
X500098Y615962D01*
X489777Y646121D02*
Y662545D01*
X502228Y611549D02*
X503537Y612859D01*
X486338Y644696D02*
X489777Y641256D01*
X496657Y617387D02*
Y644106D01*
X495348Y645416D02*
X496657Y644106D01*
X500098Y615962D02*
Y657057D01*
X486338Y663970D02*
X499182Y676815D01*
X495348Y616077D02*
X496657Y617387D01*
X482897Y665395D02*
X495348Y677845D01*
X486338Y644696D02*
Y663970D01*
X502228Y598436D02*
Y611549D01*
X493131Y665899D02*
X501061D01*
X486338Y621662D02*
Y639831D01*
X482897Y643271D02*
Y665395D01*
X498787Y599861D02*
Y614652D01*
X493218Y618812D02*
Y642681D01*
X489777Y620237D02*
Y641256D01*
X503537Y612859D02*
Y624372D01*
X531674Y674287D02*
X584545D01*
X531554Y674168D02*
X531674Y674287D01*
X584545D02*
X606420Y652413D01*
X517208Y674168D02*
X531554D01*
X500098Y657057D02*
X517208Y674168D01*
X509502Y702340D02*
X605920D01*
X617920Y690340D01*
X495348Y688185D02*
X509502Y702340D01*
X499182Y687155D02*
X510372Y698345D01*
X530355D01*
X534362Y694338D02*
X594146D01*
X530355Y698345D02*
X534362Y694338D01*
X594146D02*
X608791Y679693D01*
X495348Y677845D02*
Y688185D01*
X489777Y662545D02*
X493131Y665899D01*
X499182Y676815D02*
Y687155D01*
X544680Y630031D02*
X549578D01*
X549953Y630406D01*
X547042Y654556D02*
X547732Y656012D01*
X531469Y646325D02*
X532211Y647067D01*
X522121Y636977D02*
X531469Y646325D01*
X516142Y636977D02*
X522121D01*
X533283Y647067D02*
X534011Y647009D01*
X532211Y647067D02*
X533283D01*
X536726Y624336D02*
X538986D01*
X535296Y622906D02*
X536726Y624336D01*
X538986D02*
X544680Y630031D01*
X535296Y622406D02*
Y622906D01*
X538986Y623519D02*
X546375D01*
X525500Y474789D02*
Y484489D01*
X525298Y474587D02*
X525500Y474789D01*
Y484489D02*
X530858Y489846D01*
X596508Y474398D02*
X600001Y470906D01*
X600194D02*
X603166Y467934D01*
X610080D01*
X600001Y470906D02*
X600194D01*
X596420Y486406D02*
X596508Y486318D01*
Y474398D02*
Y486318D01*
X834500Y224000D02*
X866756D01*
X779819Y278680D02*
X834500Y224000D01*
X866756D02*
X893256Y197500D01*
X444099Y171217D02*
Y184041D01*
X397477Y171217D02*
Y196768D01*
X147750Y60000D02*
X294000D01*
X126730Y81020D02*
X147750Y60000D01*
X725000Y201012D02*
Y216021D01*
X646505Y218460D02*
X653075Y225031D01*
X784901D01*
X782594Y221591D02*
X791569Y212616D01*
X784901Y225031D02*
X901184Y108748D01*
X654500Y221591D02*
X782594D01*
X647930Y215020D02*
X654500Y221591D01*
X640591Y201350D02*
X654981Y186960D01*
X588980Y201350D02*
X640591D01*
X586000Y204330D02*
X588980Y201350D01*
X586000Y204330D02*
Y208552D01*
X583250Y206080D02*
X583528D01*
X586000Y208552D01*
X526439D02*
X586000D01*
X360775Y156754D02*
X361275D01*
X366515Y161994D01*
X360698Y156677D02*
X360775Y156754D01*
X348068Y156677D02*
X360698D01*
X347990Y156600D02*
X348068Y156677D01*
X344260Y211740D02*
Y212240D01*
Y211740D02*
X348750Y207250D01*
Y194750D02*
Y207250D01*
X324835Y166754D02*
X360775D01*
X320990Y162910D02*
X324835Y166754D01*
X320990Y156600D02*
Y162910D01*
X308638Y175750D02*
X321250D01*
X383945Y210300D02*
X397477Y196768D01*
X372318Y319077D02*
Y348924D01*
X382393Y359000D01*
X346250Y293010D02*
X372318Y319077D01*
X755054Y45594D02*
X763054Y37594D01*
X755054Y45594D02*
Y76191D01*
X328927Y631968D02*
X329370Y632411D01*
X317134Y631968D02*
X328927D01*
X656420Y470731D02*
Y486406D01*
X523370Y583348D02*
X525618Y585597D01*
X517700Y588467D02*
X522819Y583348D01*
X517200Y588467D02*
X517700D01*
X522819Y583348D02*
X523370D01*
X574984Y603531D02*
X575359Y603906D01*
X574984Y602257D02*
Y603531D01*
X566093Y593366D02*
X574984Y602257D01*
X564544Y592406D02*
X565504Y593366D01*
X566093D01*
X555420Y592406D02*
X564544D01*
X570900Y587406D02*
X582649Y599155D01*
X555420Y587406D02*
X570900D01*
X577480Y583906D02*
Y586010D01*
X582390Y590906D02*
X582920D01*
X577480Y586010D02*
X579277Y587806D01*
X579290D01*
X582390Y590906D01*
X549220Y657500D02*
X592399D01*
X547732Y656012D02*
X549220Y657500D01*
X536409Y623519D02*
X538986D01*
X773970Y67986D02*
Y76191D01*
X771514Y65000D02*
Y65530D01*
X773970Y67986D01*
X412812Y233819D02*
X417795Y238802D01*
X422019D01*
X199264Y130087D02*
X199514D01*
X203947Y139258D02*
X204322Y139633D01*
X203947Y134519D02*
Y139258D01*
X199514Y130087D02*
X203947Y134519D01*
X211462Y137794D02*
X218907Y130350D01*
Y126850D02*
Y130350D01*
X211462Y137794D02*
Y146786D01*
X192688Y195130D02*
X194668Y193150D01*
X192188Y195130D02*
X192688D01*
X468011Y554403D02*
Y579800D01*
X509828Y589299D02*
Y607664D01*
X515141Y612976D01*
X505000Y584471D02*
X509828Y589299D01*
X484925Y543788D02*
Y550231D01*
X485670Y559216D02*
Y593292D01*
X475350Y554941D02*
X479440Y550851D01*
X492550Y562065D02*
Y589686D01*
X489110Y560640D02*
Y591111D01*
X468011Y554403D02*
X473870Y548544D01*
X479440Y546236D02*
Y550851D01*
X478790Y556366D02*
X484925Y550231D01*
X499430Y564915D02*
Y586836D01*
X479355Y546151D02*
X479440Y546236D01*
X495990Y563490D02*
Y588261D01*
X489110Y591111D02*
X493218Y595218D01*
X499430Y586836D02*
X503537Y590943D01*
Y594882D01*
X492550Y589686D02*
X496657Y593793D01*
X500098Y592368D02*
Y596306D01*
X493218Y595218D02*
Y599156D01*
X495990Y588261D02*
X500098Y592368D01*
X496657Y593793D02*
Y597731D01*
X485670Y593292D02*
X489777Y597399D01*
X525618Y585597D02*
X537973D01*
X540542Y583028D01*
X500098Y596306D02*
X502228Y598436D01*
X493218Y599156D02*
X495348Y601286D01*
X496657Y597731D02*
X498787Y599861D01*
X503537Y594882D02*
X505667Y597012D01*
Y610124D02*
X511959Y616416D01*
X505667Y597012D02*
Y610124D01*
X177953Y372940D02*
X179933Y374920D01*
X174143Y368630D02*
X177953Y372440D01*
X179933Y374920D02*
X180433D01*
X177953Y372440D02*
Y372940D01*
X174143Y360275D02*
Y368630D01*
Y360275D02*
X180433D01*
X511959Y616416D02*
X534850D01*
X543859Y607406D01*
X522054Y612976D02*
X526066Y608964D01*
X515141Y612976D02*
X522054D01*
X543859Y607406D02*
X555420D01*
X527496Y602406D02*
X535792D01*
X526066Y603836D02*
Y608964D01*
Y603836D02*
X527496Y602406D01*
X545053Y617494D02*
X555332D01*
X544068Y617949D02*
X544598D01*
X547488Y622406D02*
X555420D01*
X544598Y617949D02*
X545053Y617494D01*
X546375Y623519D02*
X547488Y622406D01*
X535296D02*
X536409Y623519D01*
X208315Y317408D02*
X216747D01*
X229188Y323316D02*
X246204D01*
X246704Y323815D02*
X258908D01*
X228689Y322816D02*
X229188Y323316D01*
X246204D02*
X246704Y323815D01*
X212382Y371088D02*
X214256Y369214D01*
X210969Y370440D02*
X211999Y371470D01*
X213659Y373130D01*
X219774Y360360D02*
X219859Y360275D01*
X219774Y360360D02*
Y367418D01*
X217978Y369214D02*
X219774Y367418D01*
X214256Y369214D02*
X217978D01*
X218291Y373130D02*
X220271Y375110D01*
X210439Y370440D02*
X210969D01*
X213659Y373130D02*
X218291D01*
X610080Y467934D02*
X610359Y467655D01*
X588220Y463400D02*
Y463796D01*
X586420Y465596D02*
Y486406D01*
Y465596D02*
X588220Y463796D01*
X578596Y463400D02*
X578875Y463680D01*
Y467995D02*
X581420Y470540D01*
X578875Y463680D02*
Y467995D01*
X581420Y470540D02*
Y486406D01*
X569098Y464126D02*
X576420Y471448D01*
X538668Y464126D02*
X569098D01*
X576420Y471448D02*
Y486406D01*
X479355Y536990D02*
Y546151D01*
X469176Y599659D02*
X469199D01*
X466326Y606539D02*
X466350D01*
X467751Y603099D02*
X467775D01*
X464902Y609979D02*
X464925D01*
X731121Y560336D02*
X733682D01*
X729051Y562406D02*
X731121Y560336D01*
X707420Y562406D02*
X729051D01*
X733682Y560336D02*
X735112Y558906D01*
X555420Y557406D02*
X570762D01*
X586420Y541748D01*
X532179Y567406D02*
X578072D01*
X581314Y570648D02*
X581709D01*
X578072Y567406D02*
X581314Y570648D01*
X641500Y658104D02*
X645655Y653950D01*
X650240Y661282D02*
Y661677D01*
X647451Y655746D02*
Y658493D01*
X650240Y661282D01*
X645655Y653950D02*
X647451Y655746D01*
X628942Y232500D02*
X636500D01*
X623316Y226874D02*
X628942Y232500D01*
X623991Y227153D02*
X624338Y227500D01*
X636500D01*
X646758Y208983D02*
X650320Y212545D01*
X645708Y208983D02*
X646758D01*
X643074Y206970D02*
X643695D01*
X645708Y208983D01*
X238503Y311838D02*
X238726Y312060D01*
X270789D01*
X240151Y308620D02*
X282780D01*
X239928Y308398D02*
X240151Y308620D01*
X205853Y308398D02*
X239928D01*
X282780Y308620D02*
X288318Y314158D01*
X203026Y311225D02*
X205853Y308398D01*
X186834Y311225D02*
X203026D01*
X159756Y338303D02*
X186834Y311225D01*
X270789Y312060D02*
X283729Y325000D01*
X616420Y638406D02*
Y658167D01*
X601426Y663154D02*
Y664950D01*
X597485Y668892D02*
Y669225D01*
Y668892D02*
X601426Y664950D01*
Y663154D02*
X611420Y653160D01*
X606420Y638406D02*
Y652413D01*
X611420Y638406D02*
Y653160D01*
X608791Y679693D02*
X636465D01*
X593143Y656756D02*
X601332Y648567D01*
X592399Y657500D02*
X593143Y656756D01*
X636465Y679693D02*
X638720Y677438D01*
X651420Y638406D02*
Y651837D01*
X656420Y638406D02*
Y651973D01*
X655810Y656227D02*
Y661651D01*
X656420Y651973D02*
X659250Y654803D01*
X622908Y666267D02*
X634912D01*
X655810Y661651D02*
X660011Y665852D01*
X659250Y660226D02*
X660812Y661788D01*
X651420Y651837D02*
X655810Y656227D01*
X661420Y652107D02*
X667037Y657724D01*
X634912Y666267D02*
X635169Y666010D01*
X627908Y658535D02*
X641070D01*
X621420Y664779D02*
X622908Y666267D01*
X621420Y638406D02*
Y664779D01*
X659250Y654803D02*
Y660226D01*
X661420Y638406D02*
Y652107D01*
X641070Y658535D02*
X641500Y658104D01*
X636420Y653024D02*
X641500Y658104D01*
X636420Y638406D02*
Y653024D01*
X538232Y562406D02*
X555420D01*
X126669Y166471D02*
X129405Y163734D01*
Y159380D02*
Y163734D01*
Y159380D02*
X131635Y157150D01*
X123122Y166471D02*
X126669D01*
X122842Y166750D02*
X123122Y166471D01*
X103188Y191645D02*
X103688D01*
X105668Y189665D01*
X42929Y97500D02*
Y101000D01*
X41199Y102730D02*
X42929Y101000D01*
X39650Y102730D02*
X41199D01*
X88162Y563676D02*
X89292D01*
X89442Y563526D01*
X445849Y636004D02*
X447389Y637544D01*
Y644750D01*
X445849Y629193D02*
Y636004D01*
X616659Y611079D02*
X622181Y605557D01*
X646170D01*
X596420Y623412D02*
Y638406D01*
Y623412D02*
X622178Y597653D01*
X641592D01*
X591420Y622664D02*
X622247Y591836D01*
X648977D01*
X242427Y682200D02*
Y688163D01*
X242390Y688201D02*
X242427Y688163D01*
X577480Y583906D02*
X596420Y564967D01*
X555332Y617494D02*
X555420Y617406D01*
X445849Y629193D02*
X449112Y625930D01*
X458132Y627092D02*
X465990D01*
X456970Y625930D02*
X458132Y627092D01*
X449112Y625930D02*
X456970D01*
X451545Y596623D02*
X464902Y609979D01*
X454985Y595198D02*
X466326Y606539D01*
X458425Y593773D02*
X467751Y603099D01*
X461865Y592348D02*
X469176Y599659D01*
X305037Y644065D02*
X317134Y631968D01*
X264387Y706000D02*
X276256Y694131D01*
X143915Y706000D02*
X264387D01*
X134750Y696835D02*
X143915Y706000D01*
X134750Y685131D02*
Y696835D01*
Y685131D02*
X144750Y675131D01*
X146750D01*
X620000Y420104D02*
X627604Y412500D01*
X636500D01*
X600000Y433612D02*
X600684Y432928D01*
X611896D02*
X613384Y431440D01*
X619703Y420104D02*
X620000D01*
X613384Y426423D02*
Y431440D01*
X600684Y432928D02*
X611896D01*
X682920Y562406D02*
X707420D01*
X729155Y622406D02*
Y630905D01*
X367148Y442780D02*
Y448464D01*
X365878Y449734D02*
Y477641D01*
Y449734D02*
X367148Y448464D01*
Y442780D02*
X367274Y442654D01*
X288318Y409677D02*
X291400Y412760D01*
X257040Y413941D02*
X276177D01*
X303516Y386602D01*
X321926D01*
X299556Y412760D02*
X306056D01*
X543120Y494438D02*
Y502406D01*
X541500Y492818D02*
X543120Y494438D01*
X541500Y492423D02*
Y492818D01*
X534032Y502406D02*
X543120D01*
X555420D01*
X530858Y489846D02*
X536200D01*
X539193Y486853D01*
X547697D01*
X551781Y490938D01*
X560060Y491292D02*
Y491974D01*
X552697Y477440D02*
Y483929D01*
X560060Y491292D01*
X551781Y490938D02*
X551829D01*
X535296Y513513D02*
Y514202D01*
X538192Y509510D02*
X539727Y507976D01*
X542227D01*
X542709Y507494D02*
X555332D01*
X535296Y513513D02*
X538192Y510617D01*
X542227Y507976D02*
X542709Y507494D01*
X538192Y509510D02*
Y510617D01*
X555332Y507494D02*
X555420Y507406D01*
X560060Y491974D02*
X569920Y501833D01*
Y502406D02*
X573796Y506283D01*
X569920Y501833D02*
Y502406D01*
X548789Y473136D02*
Y473531D01*
X573796Y506283D02*
Y519102D01*
X548789Y473531D02*
X552697Y477440D01*
X565580Y527318D02*
X573796Y519102D01*
X646420Y486406D02*
Y508846D01*
X682920Y464349D02*
X683026Y464455D01*
X691920D01*
X722920Y457503D02*
Y481162D01*
X707030Y441613D02*
X722920Y457503D01*
X701342Y443778D02*
X710000Y452436D01*
X701644Y436202D02*
X707030Y441588D01*
X699172Y436202D02*
X701644D01*
X693624Y430654D02*
X699172Y436202D01*
X707030Y441588D02*
Y441613D01*
X830551Y514243D02*
X855972D01*
X802993Y486685D02*
X830551Y514243D01*
X800712Y486685D02*
X802993D01*
X800433Y486406D02*
X800712Y486685D01*
X121500Y87500D02*
X126730Y82270D01*
X120250Y87500D02*
X121500D01*
X126730Y81020D02*
Y82270D01*
X124759Y11929D02*
Y20561D01*
X185486Y425042D02*
Y433777D01*
X161671Y401228D02*
X185486Y425042D01*
X104362Y409102D02*
X161169D01*
X107286Y401228D02*
X161671D01*
X166227Y396023D02*
X188587Y418383D01*
X144794Y396023D02*
X166227D01*
X71260Y376000D02*
X104362Y409102D01*
X76916Y370858D02*
X107286Y401228D01*
X122713Y373942D02*
X144794Y396023D01*
X101183Y373942D02*
X122713D01*
X64953Y376000D02*
X71260D01*
X48752Y359799D02*
X64953Y376000D01*
X411617Y600906D02*
Y619545D01*
X210000Y172949D02*
X212189Y175138D01*
X622471Y287500D02*
X636500D01*
Y292500D02*
X688718D01*
X624170Y277500D02*
X636500D01*
X627046Y272500D02*
X636500D01*
X600727Y271930D02*
X626477D01*
X627046Y272500D01*
X597485Y275173D02*
X600727Y271930D01*
X536362Y602976D02*
X545726D01*
X535792Y602406D02*
X536362Y602976D01*
X546296Y602406D02*
X555420D01*
X545726Y602976D02*
X546296Y602406D01*
X113014Y141659D02*
X113068D01*
X148796Y596787D02*
X150656Y594927D01*
X158592D01*
X246704Y365775D02*
Y374919D01*
Y360275D02*
Y365775D01*
X332618Y427995D02*
Y439560D01*
X248278Y405179D02*
X257040Y413941D01*
X280530Y369420D02*
X286260Y375150D01*
X261117Y369420D02*
X280530D01*
X246704Y365775D02*
X251752D01*
X690085Y591346D02*
X691145Y592406D01*
X684920Y586181D02*
X690085Y591346D01*
X678653Y605398D02*
X678932Y605119D01*
X684442D01*
X686335Y603226D01*
X684920Y580906D02*
Y586181D01*
X679475Y575461D02*
X684920Y580906D01*
X687920Y575254D02*
X691803Y579137D01*
X691145Y592406D02*
X707420D01*
X192703Y369420D02*
Y374405D01*
Y360789D02*
Y369420D01*
X697259Y587318D02*
X707332D01*
X691803Y579137D02*
Y581862D01*
X697259Y587318D01*
X707332D02*
X707420Y587406D01*
X591420Y622664D02*
Y638406D01*
X538981Y532135D02*
X539252Y532406D01*
X524368Y535015D02*
X527248Y532135D01*
X523973Y535015D02*
X524368D01*
X527248Y532135D02*
X538981D01*
X539252Y532406D02*
X555420D01*
X439880Y457574D02*
X440554Y456900D01*
X439485Y457574D02*
X439880D01*
X433658Y463400D02*
X439485Y457574D01*
X405917Y466519D02*
X422519D01*
X402550Y469886D02*
X405917Y466519D01*
X422519D02*
X425074Y469074D01*
X321926Y386602D02*
X324244Y388920D01*
X236735Y395000D02*
X246914Y405179D01*
X212673Y395000D02*
X236735D01*
X246914Y405179D02*
X248278D01*
X202014Y384341D02*
X212673Y395000D01*
X202014Y375829D02*
Y384341D01*
X195605Y369420D02*
X202014Y375829D01*
X192703Y369420D02*
X195605D01*
X210689Y347665D02*
X212299Y349275D01*
X357412Y331595D02*
Y388799D01*
X354307Y316609D02*
X365540Y327842D01*
X355924Y330107D02*
X357412Y331595D01*
X285403Y348934D02*
X289244Y345093D01*
X275000Y348934D02*
X285403D01*
X233439Y349275D02*
X236042Y346672D01*
X234686Y340855D02*
X235400Y341570D01*
X236042Y346672D02*
X236542D01*
X232469Y340855D02*
X233957Y342343D01*
X236542Y346672D02*
X239144Y349275D01*
X219703Y336922D02*
X223636Y340855D01*
X233957Y342343D02*
Y344088D01*
X239144Y349275D02*
X246704D01*
X232469Y340855D02*
X234686D01*
X235400Y341570D02*
X253412D01*
X233957Y344088D02*
X236542Y346672D01*
X223636Y340855D02*
X232469D01*
X215405Y332532D02*
X215769D01*
X219859Y349275D02*
X233439D01*
X219703Y336466D02*
Y336922D01*
X212189Y329316D02*
X215405Y332532D01*
X215769D02*
X219703Y336466D01*
X210689Y329316D02*
X212189D01*
X233439Y365775D02*
Y375110D01*
Y360275D02*
Y365775D01*
X253412Y341570D02*
X258637Y346795D01*
Y347295D01*
X260617Y349275D02*
X261117D01*
X258637Y347295D02*
X260617Y349275D01*
X233439Y365775D02*
X236714D01*
X340880Y459259D02*
Y465386D01*
X319615Y437994D02*
X340880Y459259D01*
X369592Y471374D02*
Y473478D01*
X371448Y475334D01*
X369592Y471374D02*
X371080Y469886D01*
X356951Y476592D02*
X363570Y483211D01*
X319615Y434336D02*
Y437994D01*
X368185Y483211D02*
X371448Y479948D01*
X371080Y469886D02*
X402550D01*
X387281Y486651D02*
X398065Y475866D01*
X356951Y389259D02*
Y476592D01*
X319056Y433777D02*
X319615Y434336D01*
X371448Y475334D02*
Y479948D01*
X362146Y486651D02*
X387281D01*
X340880Y465386D02*
X362146Y486651D01*
X363570Y483211D02*
X368185D01*
X159756Y338303D02*
Y346815D01*
X165046Y352105D01*
X165546D01*
X291400Y412760D02*
X299556D01*
X285618Y418543D02*
X291400Y412760D01*
X285118Y418543D02*
X285618D01*
X691492Y552976D02*
X692062Y552406D01*
X707420D01*
X684982Y552976D02*
X691492D01*
X675850Y526345D02*
X687481D01*
X686420Y486406D02*
Y513388D01*
X677813Y504775D02*
X681420Y501168D01*
Y486406D02*
Y501168D01*
X686226Y513583D02*
X686420Y513388D01*
X677813Y504775D02*
Y505170D01*
X533165Y478170D02*
X543769Y467566D01*
X551096D01*
X530917Y471877D02*
X538668Y464126D01*
X555005Y471475D02*
Y472919D01*
X551096Y467566D02*
X555005Y471475D01*
Y472919D02*
X560557Y478472D01*
Y480853D02*
X566110Y486406D01*
X560557Y478472D02*
Y480853D01*
X566110Y486406D02*
X571420D01*
X533165Y478170D02*
Y484276D01*
X261117Y369420D02*
Y374649D01*
Y360275D02*
Y369420D01*
X808890Y93461D02*
X810746Y91606D01*
X170532Y379986D02*
X170811Y380266D01*
X170532Y379487D02*
Y379986D01*
X166046Y375000D02*
X170532Y379487D01*
X165546Y375000D02*
X166046D01*
X165546Y352105D02*
Y364000D01*
X527996Y578906D02*
X539799D01*
X540542Y583028D02*
X545674D01*
X539799Y578906D02*
X541299Y577406D01*
X555420D01*
X546296Y582406D02*
X555420D01*
X545674Y583028D02*
X546296Y582406D01*
X193217Y360275D02*
X193217Y360275D01*
X206689D02*
X206689Y360274D01*
X193217Y360275D02*
X206689D01*
X212299Y349275D02*
X219859D01*
X212299Y349275D02*
X212299Y349275D01*
X246704Y374920D02*
X246704Y374919D01*
Y360275D02*
X246704Y360275D01*
X260846Y374920D02*
X261117Y374649D01*
X192188Y374920D02*
X192703Y374405D01*
Y360789D02*
X193217Y360275D01*
X233439Y360275D02*
X233439Y360275D01*
X740512Y152250D02*
Y156261D01*
X414650Y200000D02*
X420519D01*
X427019Y217098D02*
X433117Y211000D01*
X632850Y465184D02*
Y469799D01*
X636420Y473369D01*
Y486406D01*
X631420Y638406D02*
Y657047D01*
X632473Y658100D01*
X627690Y222500D02*
X636500D01*
X623316Y226874D02*
X627690Y222500D01*
X626420Y638406D02*
Y657047D01*
X627908Y658535D01*
X646420Y638406D02*
Y653184D01*
X707420Y557406D02*
X721712D01*
X528739Y563466D02*
Y563966D01*
X532179Y567406D01*
X641420Y463754D02*
Y486406D01*
X691420D02*
X691508Y486318D01*
Y464866D02*
Y486318D01*
Y464866D02*
X691920Y464455D01*
X707420Y622406D02*
X729155D01*
X803014Y349528D02*
Y363824D01*
X635359Y512446D02*
Y513382D01*
X631420Y508507D02*
X635359Y512446D01*
X631420Y486406D02*
Y508507D01*
X707420Y483517D02*
Y502406D01*
Y483517D02*
X710000Y480936D01*
X779819Y278680D02*
Y319000D01*
X893256Y197500D02*
X934750D01*
X855972Y514243D02*
X879229Y537500D01*
X934750D01*
X740512Y156261D02*
X740703Y156452D01*
Y165239D01*
X558645Y643606D02*
Y644606D01*
Y643606D02*
X558975Y643276D01*
X559283D01*
X564152Y638406D01*
X565953D01*
X803200Y93461D02*
X808890D01*
X801470Y95191D02*
X803200Y93461D01*
X565953Y638406D02*
X571420D01*
X562962Y635415D02*
X565953Y638406D01*
X764130Y329094D02*
X774064Y339028D01*
X791014D01*
X791514Y338528D01*
Y326844D02*
Y338528D01*
Y326844D02*
X792014Y326344D01*
X803014D02*
Y338528D01*
X833842Y326344D02*
X872498Y365000D01*
X970000D01*
X799014Y430700D02*
X799723Y431410D01*
Y442392D01*
X800433Y443102D01*
X858800Y430700D02*
X874500Y415000D01*
X970000D01*
X765714Y342500D02*
X788014Y364800D01*
Y430700D01*
Y443200D01*
X815039Y114086D02*
X816527Y112598D01*
X823840Y79433D02*
Y88448D01*
Y79433D02*
X826027Y77245D01*
Y76746D02*
Y77245D01*
X806761Y165636D02*
X817327D01*
X821725Y170034D01*
Y182459D01*
X791569Y212616D02*
X821725Y182459D01*
X646170Y605557D02*
X651195Y610582D01*
X669273D01*
X680703Y622012D01*
X685098D01*
X691332Y628246D01*
Y638318D01*
X691420Y638406D01*
X888151Y76746D02*
X898738D01*
X901184Y79191D01*
Y108748D01*
X591322Y614568D02*
X591984Y613906D01*
X590186Y614568D02*
X591322D01*
X576508Y628246D02*
X590186Y614568D01*
X576508Y628246D02*
Y638318D01*
X576420Y638406D02*
X576508Y638318D01*
X791199Y37594D02*
X791259Y37655D01*
Y51533D01*
X791320Y51592D01*
X798238D01*
X801470Y54824D02*
Y76191D01*
X773970Y95191D02*
Y104486D01*
X783070Y113586D02*
Y114086D01*
X773970Y95191D02*
X783726D01*
X785819Y93098D01*
Y65791D02*
Y93098D01*
X781320Y61291D02*
X785819Y65791D01*
X781320Y53523D02*
Y61291D01*
Y53523D02*
X781849Y52993D01*
X782719D01*
X781320Y51592D02*
X782719Y52993D01*
X601332Y638494D02*
X601420Y638406D01*
X601332Y638494D02*
Y648567D01*
X586644Y258355D02*
X587499Y257500D01*
X636500D01*
X610281Y262500D02*
X636500D01*
X610193Y262588D02*
X610281Y262500D01*
X636500Y297500D02*
X687971D01*
X660812Y661788D02*
X728362D01*
X636500Y302500D02*
X687224D01*
X636500Y307500D02*
X686476D01*
X666420Y652172D02*
X667908Y653660D01*
X666420Y638406D02*
Y652172D01*
X636500Y312500D02*
X685729D01*
X636500Y317500D02*
X684981D01*
X636500Y322500D02*
X684234D01*
X636500Y327500D02*
X683487D01*
X636500Y332500D02*
X682740D01*
X636500Y337500D02*
X681992D01*
X636270Y342270D02*
X636500Y342500D01*
X629379Y342270D02*
X636270D01*
X628862Y347500D02*
X636500D01*
X628114Y352500D02*
X636500D01*
X568262Y449632D02*
X628169D01*
X657187Y420614D01*
X691778D01*
X627366Y357500D02*
X636500D01*
X569945Y445568D02*
X626486D01*
X655504Y416550D01*
X693461D01*
X731048Y454137D01*
Y476072D01*
X626619Y362500D02*
X636500D01*
X613607Y349488D02*
X626619Y362500D01*
X571629Y441504D02*
X624802D01*
X653821Y412486D01*
X636500Y367500D02*
X706245D01*
X613138Y378166D02*
X622471Y387500D01*
X636500D01*
X600000Y380734D02*
X607060D01*
X618826Y392500D02*
X636500D01*
X613111Y393612D02*
X617000Y397500D01*
X636500D01*
X600000Y407212D02*
X608788D01*
X613500Y402500D02*
X636500D01*
X600000Y420199D02*
X609497D01*
X622197Y407500D02*
X636500D01*
X689113Y602406D02*
X707420D01*
X688293Y603226D02*
X689113Y602406D01*
X686335Y603226D02*
X688293D01*
X648977Y591836D02*
X655359Y598219D01*
X675389Y597406D02*
X707420D01*
X670788Y592805D02*
X675389Y597406D01*
X707420Y607406D02*
X707508Y607318D01*
X717581D01*
X724296Y600602D01*
Y598470D02*
Y600602D01*
Y598470D02*
X732404Y590363D01*
X902630Y304639D02*
X927085Y329094D01*
X902630Y270000D02*
Y304639D01*
X910362Y161324D02*
X910924Y161886D01*
X899433Y161324D02*
X910362D01*
X898870Y160761D02*
X899433Y161324D01*
X684448Y612406D02*
X707420D01*
X683458Y611416D02*
X684448Y612406D01*
X675855Y611416D02*
X683458D01*
X818462Y476840D02*
X878568D01*
X894000Y492272D01*
Y499832D01*
X707420Y617406D02*
X707508Y617318D01*
X721432D01*
X722920Y615830D01*
Y608341D02*
Y615830D01*
Y608341D02*
X728361Y602900D01*
Y600153D02*
Y602900D01*
Y600153D02*
X731755Y596759D01*
X737451D01*
X740126Y594084D01*
X744916D01*
X750000Y589000D01*
X810000Y518179D02*
Y528467D01*
X792578Y500757D02*
X810000Y518179D01*
X792578Y485468D02*
Y500757D01*
Y485468D02*
X816500Y461545D01*
Y439852D02*
Y461545D01*
X636500Y242500D02*
X648161D01*
X760802Y355141D01*
X644670Y612251D02*
X645606D01*
X648001Y614646D01*
X667589D01*
X676420Y623476D01*
Y638406D01*
X636270Y372270D02*
X636500Y372500D01*
X630642Y372270D02*
X636270D01*
X613654Y355283D02*
X630642Y372270D01*
X578596Y355283D02*
X613654D01*
X636500Y619934D02*
X637725Y618709D01*
X665906D01*
X671420Y624223D01*
Y638406D01*
X628859Y377500D02*
X636500D01*
X611927Y360568D02*
X628859Y377500D01*
X584593Y360568D02*
X611927D01*
X575519Y369641D02*
X584593Y360568D01*
X569519Y369641D02*
X575519D01*
X625665Y382500D02*
X636500D01*
X437019Y283802D02*
Y294552D01*
X422019Y280700D02*
Y283802D01*
X421807Y280488D02*
X422019Y280700D01*
X409337Y280488D02*
X421807D01*
X405393Y276544D02*
X409337Y280488D01*
X405393Y228732D02*
Y276544D01*
X396850Y220189D02*
X405393Y228732D01*
X399710Y200282D02*
X414613D01*
X414650Y200245D01*
Y200000D02*
Y200245D01*
X420519Y187838D02*
Y200000D01*
X413314Y212581D02*
X414650Y211244D01*
X401643Y212581D02*
X413314D01*
X433117Y211000D02*
X433617D01*
X427019Y217098D02*
Y222524D01*
X555420Y527406D02*
X555508Y527318D01*
X427019Y222524D02*
Y238802D01*
X422730Y222524D02*
X427019D01*
X421460Y223794D02*
X422730Y222524D01*
X414856Y223794D02*
X421460D01*
X555508Y527318D02*
X565580D01*
X692920Y516834D02*
X697259Y512494D01*
X687481Y526345D02*
X692920Y520906D01*
Y516834D02*
Y520906D01*
X697259Y512494D02*
X707332D01*
X707420Y512406D01*
X457152Y433612D02*
X461615Y429148D01*
Y393250D02*
Y429148D01*
X451285Y382920D02*
X461615Y393250D01*
X582850Y534101D02*
X583484Y533467D01*
X574544Y542406D02*
X583484Y533467D01*
X555420Y542406D02*
X574544D01*
X574263Y526345D02*
X574920D01*
X574258Y527007D02*
X574920Y526345D01*
X574258Y527007D02*
Y531710D01*
X568562Y537406D02*
X574258Y531710D01*
X555420Y537406D02*
X568562D01*
X356951Y389259D02*
X357412Y388799D01*
X590359Y503648D02*
X590890Y503118D01*
X590359Y502712D02*
Y503648D01*
Y502712D02*
X591420Y501652D01*
Y486406D02*
Y501652D01*
X435958Y428590D02*
X451419Y444050D01*
X435958Y413809D02*
Y428590D01*
X429775Y407626D02*
X435958Y413809D01*
X427827Y407626D02*
X429775D01*
X415407Y395206D02*
X427827Y407626D01*
X356487Y324537D02*
X361476Y329525D01*
X596420Y486406D02*
Y564967D01*
X261485Y566277D02*
X263464Y564297D01*
X263965D01*
X148796Y593787D02*
Y596787D01*
X210000Y172440D02*
Y172949D01*
X208741Y171181D02*
X210000Y172440D01*
X208741Y164016D02*
Y171181D01*
Y164016D02*
X218907Y153850D01*
Y150850D02*
Y153850D01*
X110264Y132102D02*
Y138909D01*
X113014Y141659D01*
X436161Y636649D02*
Y647427D01*
X291618Y675000D02*
Y676500D01*
Y675000D02*
X292847Y673770D01*
X292940D01*
D15*
X755550Y123750D02*
D03*
Y112750D02*
D03*
X304880Y150770D02*
D03*
Y139770D02*
D03*
X298000Y193000D02*
D03*
Y182000D02*
D03*
X206689Y349275D02*
D03*
Y360274D02*
D03*
X193217Y349275D02*
D03*
Y360275D02*
D03*
X246704Y374920D02*
D03*
Y385920D02*
D03*
X233439Y375110D02*
D03*
Y386110D02*
D03*
X220271Y375110D02*
D03*
Y386110D02*
D03*
X180433Y374920D02*
D03*
Y385920D02*
D03*
X260846Y374920D02*
D03*
Y385920D02*
D03*
X192188Y374920D02*
D03*
Y385920D02*
D03*
X493322Y272000D02*
D03*
Y283000D02*
D03*
X246704Y334816D02*
D03*
Y323815D02*
D03*
X246704Y349275D02*
D03*
Y360275D02*
D03*
X233439Y349275D02*
D03*
Y360275D02*
D03*
X219859Y349275D02*
D03*
Y360275D02*
D03*
X180433Y349275D02*
D03*
Y360275D02*
D03*
X261117Y349275D02*
D03*
Y360275D02*
D03*
X436161Y647427D02*
D03*
Y658427D02*
D03*
Y625649D02*
D03*
Y636649D02*
D03*
X15000Y152500D02*
D03*
Y163500D02*
D03*
X86592Y565656D02*
D03*
Y554656D02*
D03*
X260215Y555427D02*
D03*
Y566427D02*
D03*
X174062Y554500D02*
D03*
Y565500D02*
D03*
X195938Y204000D02*
D03*
Y193000D02*
D03*
X106938Y200515D02*
D03*
Y189515D02*
D03*
X165546Y364000D02*
D03*
Y375000D02*
D03*
X430217Y199989D02*
D03*
Y210989D02*
D03*
X465615Y200000D02*
D03*
Y211000D02*
D03*
X414650Y200245D02*
D03*
Y211244D02*
D03*
X800433Y454102D02*
D03*
Y443102D02*
D03*
X742000Y112750D02*
D03*
Y123750D02*
D03*
X803014Y338528D02*
D03*
Y349528D02*
D03*
X728947Y112738D02*
D03*
Y123738D02*
D03*
D16*
X403617Y432920D02*
D03*
Y327920D02*
D03*
D17*
X60020Y623471D02*
D03*
X50520D02*
D03*
X41020D02*
D03*
X42929Y97500D02*
D03*
X52429D02*
D03*
X61929D02*
D03*
X131635Y133150D02*
D03*
X141135D02*
D03*
X150635D02*
D03*
X218907Y126850D02*
D03*
X228407D02*
D03*
X237907D02*
D03*
X148796Y620787D02*
D03*
X139296D02*
D03*
X129796D02*
D03*
X236714Y618927D02*
D03*
X227215D02*
D03*
X217715D02*
D03*
D18*
X41020Y599471D02*
D03*
X60020D02*
D03*
X61929Y121500D02*
D03*
X42929D02*
D03*
X150635Y157150D02*
D03*
X131635D02*
D03*
X237907Y150850D02*
D03*
X218907D02*
D03*
X129796Y596787D02*
D03*
X148796D02*
D03*
X217715Y594927D02*
D03*
X236714D02*
D03*
D19*
X693750Y162500D02*
D03*
Y153000D02*
D03*
Y143500D02*
D03*
X721250D02*
D03*
Y162500D02*
D03*
X348750Y175750D02*
D03*
Y185250D02*
D03*
Y194750D02*
D03*
X321250D02*
D03*
Y175750D02*
D03*
X801470Y76191D02*
D03*
Y85691D02*
D03*
Y95191D02*
D03*
X773970D02*
D03*
Y76191D02*
D03*
D20*
X677657Y175799D02*
D03*
X666657D02*
D03*
X677527Y162500D02*
D03*
X666527D02*
D03*
X702500Y175799D02*
D03*
X713500D02*
D03*
X355260Y212240D02*
D03*
X344260D02*
D03*
X325500Y212500D02*
D03*
X314500D02*
D03*
X253390Y688201D02*
D03*
X242390D02*
D03*
X851699Y76746D02*
D03*
X862699D02*
D03*
X888151D02*
D03*
X877152D02*
D03*
X740703Y165239D02*
D03*
X751703D02*
D03*
X779264Y165636D02*
D03*
X768264D02*
D03*
X806761D02*
D03*
X795761D02*
D03*
X253464Y675540D02*
D03*
X242464D02*
D03*
Y662500D02*
D03*
X253464D02*
D03*
X47848Y137030D02*
D03*
X58848D02*
D03*
X55592Y579849D02*
D03*
X44592D02*
D03*
X223175Y576050D02*
D03*
X234175D02*
D03*
X133796Y580427D02*
D03*
X144796D02*
D03*
X232689Y166750D02*
D03*
X221688D02*
D03*
X146636Y175515D02*
D03*
X135635D02*
D03*
X589000Y433612D02*
D03*
X600000D02*
D03*
X589000Y420199D02*
D03*
X600000D02*
D03*
X589000Y407212D02*
D03*
X600000D02*
D03*
X589000Y393612D02*
D03*
X600000D02*
D03*
Y380734D02*
D03*
X589000D02*
D03*
X589000Y367112D02*
D03*
X600000D02*
D03*
X898870Y160761D02*
D03*
X887870D02*
D03*
X799014Y430700D02*
D03*
X788014D02*
D03*
X794070Y114086D02*
D03*
X783070D02*
D03*
X883000Y499832D02*
D03*
X894000D02*
D03*
X780199Y37594D02*
D03*
X791199D02*
D03*
X124759Y20561D02*
D03*
X135759D02*
D03*
X837027Y76746D02*
D03*
X826027D02*
D03*
X792014Y326344D02*
D03*
X803014D02*
D03*
D21*
X360775Y166754D02*
D03*
Y156754D02*
D03*
X527996Y602406D02*
D03*
Y592406D02*
D03*
X285118Y418543D02*
D03*
Y428543D02*
D03*
X517200Y598467D02*
D03*
Y588467D02*
D03*
X729155Y612406D02*
D03*
Y622406D02*
D03*
X869177Y98480D02*
D03*
Y88480D02*
D03*
X823840Y98448D02*
D03*
Y88448D02*
D03*
X844924Y98480D02*
D03*
Y88480D02*
D03*
X741526Y142250D02*
D03*
Y152250D02*
D03*
X768264Y140749D02*
D03*
Y150749D02*
D03*
X795761Y140749D02*
D03*
Y150749D02*
D03*
X452889Y187992D02*
D03*
Y177992D02*
D03*
X420519Y187838D02*
D03*
Y177838D02*
D03*
X788014Y443200D02*
D03*
Y453200D02*
D03*
X735112Y558906D02*
D03*
Y548906D02*
D03*
X791014Y339028D02*
D03*
Y349028D02*
D03*
D22*
X347990Y137600D02*
D03*
Y147100D02*
D03*
Y156600D02*
D03*
X320990Y137600D02*
D03*
Y147100D02*
D03*
Y156600D02*
D03*
D23*
X755054Y76191D02*
D03*
Y95192D02*
D03*
X735054Y85691D02*
D03*
D24*
X432019Y261302D02*
D03*
D25*
X422019Y238802D02*
D03*
X427019D02*
D03*
X432019D02*
D03*
X437019D02*
D03*
X442019D02*
D03*
X422019Y283802D02*
D03*
X427019D02*
D03*
X432019D02*
D03*
X437019D02*
D03*
X442019D02*
D03*
D26*
X663500Y440500D02*
D03*
Y199500D02*
D03*
D27*
X636500Y222500D02*
D03*
Y227500D02*
D03*
Y232500D02*
D03*
Y237500D02*
D03*
Y242500D02*
D03*
Y247500D02*
D03*
Y252500D02*
D03*
Y257500D02*
D03*
Y262500D02*
D03*
Y267500D02*
D03*
Y272500D02*
D03*
Y277500D02*
D03*
Y282500D02*
D03*
Y287500D02*
D03*
Y292500D02*
D03*
Y297500D02*
D03*
Y302500D02*
D03*
Y307500D02*
D03*
Y312500D02*
D03*
Y317500D02*
D03*
Y327500D02*
D03*
Y332500D02*
D03*
Y337500D02*
D03*
Y342500D02*
D03*
Y347500D02*
D03*
Y352500D02*
D03*
Y357500D02*
D03*
Y362500D02*
D03*
Y367500D02*
D03*
Y372500D02*
D03*
Y377500D02*
D03*
Y382500D02*
D03*
Y387500D02*
D03*
Y392500D02*
D03*
Y397500D02*
D03*
Y402500D02*
D03*
Y407500D02*
D03*
Y412500D02*
D03*
Y417500D02*
D03*
Y322500D02*
D03*
D28*
X299556Y412760D02*
D03*
D29*
X306056D02*
D03*
X312556D02*
D03*
X319056D02*
D03*
Y433777D02*
D03*
X312556D02*
D03*
X306056D02*
D03*
X299556D02*
D03*
D30*
X258908Y219900D02*
D03*
X202908D02*
D03*
Y232600D02*
D03*
X258908Y283400D02*
D03*
Y296100D02*
D03*
X202908Y283400D02*
D03*
Y296100D02*
D03*
X111092Y533100D02*
D03*
X167093D02*
D03*
Y520400D02*
D03*
X111092Y469600D02*
D03*
Y456900D02*
D03*
X167093Y469600D02*
D03*
Y456900D02*
D03*
X199204Y530074D02*
D03*
X255204D02*
D03*
Y517374D02*
D03*
X199204Y466574D02*
D03*
Y453874D02*
D03*
X255204Y466574D02*
D03*
Y453874D02*
D03*
X24429Y261100D02*
D03*
Y248400D02*
D03*
X80429Y261100D02*
D03*
Y248400D02*
D03*
X24429Y197600D02*
D03*
Y184900D02*
D03*
X80429D02*
D03*
X78093Y456900D02*
D03*
Y469600D02*
D03*
X22092Y456900D02*
D03*
Y469600D02*
D03*
X78093Y520400D02*
D03*
Y533100D02*
D03*
X22092D02*
D03*
X113908Y298115D02*
D03*
Y285415D02*
D03*
X169907Y298115D02*
D03*
Y285415D02*
D03*
X113908Y234615D02*
D03*
Y221915D02*
D03*
X169907D02*
D03*
D31*
X122750Y684631D02*
D03*
X146750Y694131D02*
D03*
Y675131D02*
D03*
X202465Y685040D02*
D03*
X226465Y694540D02*
D03*
Y675540D02*
D03*
X161486Y685040D02*
D03*
X185486Y694540D02*
D03*
Y675540D02*
D03*
D32*
X286260Y298673D02*
D03*
Y280158D02*
D03*
D33*
X212189Y196739D02*
D03*
X240189D02*
D03*
X123812Y197600D02*
D03*
X151812D02*
D03*
X33848Y163500D02*
D03*
X61848D02*
D03*
X158796Y556120D02*
D03*
X130796D02*
D03*
X71569Y554828D02*
D03*
X43569D02*
D03*
X240673Y554449D02*
D03*
X212673D02*
D03*
X65209Y75000D02*
D03*
X37209D02*
D03*
X37312Y643000D02*
D03*
X65312D02*
D03*
X240465Y643927D02*
D03*
X212465D02*
D03*
X154312Y643000D02*
D03*
X126312D02*
D03*
X222929Y103015D02*
D03*
X250929D02*
D03*
X126688Y112015D02*
D03*
X154688D02*
D03*
D34*
X134128Y322800D02*
D03*
X152643D02*
D03*
X43171Y287400D02*
D03*
X61687D02*
D03*
X147069Y431291D02*
D03*
X128554D02*
D03*
X58010D02*
D03*
X39494D02*
D03*
X233946Y430000D02*
D03*
X215431D02*
D03*
D35*
X228689Y322816D02*
D03*
Y335816D02*
D03*
X210689Y329316D02*
D03*
D36*
X291618Y490906D02*
D03*
Y600906D02*
D03*
X411617Y490906D02*
D03*
Y600906D02*
D03*
D37*
X558645Y644606D02*
D03*
X548645D02*
D03*
X87927Y90978D02*
D03*
X77927D02*
D03*
X77878Y104000D02*
D03*
X87878D02*
D03*
X12583Y626340D02*
D03*
X22583D02*
D03*
X24883Y614785D02*
D03*
X14883D02*
D03*
X197188Y633073D02*
D03*
X187188D02*
D03*
X191214Y621340D02*
D03*
X201214D02*
D03*
X111583Y627287D02*
D03*
X101583D02*
D03*
X103883Y614785D02*
D03*
X113883D02*
D03*
X264107Y138850D02*
D03*
X254107D02*
D03*
X256407Y125978D02*
D03*
X266407D02*
D03*
X167407Y127993D02*
D03*
X177407D02*
D03*
X175812Y141950D02*
D03*
X165812D02*
D03*
X781320Y51592D02*
D03*
X791320D02*
D03*
X641420Y463754D02*
D03*
X631420D02*
D03*
X535296Y622406D02*
D03*
X525296D02*
D03*
X534032Y502406D02*
D03*
X524032D02*
D03*
X691920Y464455D02*
D03*
X701920D02*
D03*
X528739Y563466D02*
D03*
X518739D02*
D03*
D38*
X319743Y456900D02*
D03*
X289244D02*
D03*
D39*
X407354Y690340D02*
D03*
Y644640D02*
D03*
D40*
X341854Y667500D02*
D03*
D41*
X291618Y676500D02*
D03*
X298118Y658500D02*
D03*
X285118D02*
D03*
D42*
X20785Y84927D02*
D03*
Y95087D02*
D03*
X81736Y633073D02*
D03*
Y622913D02*
D03*
X256889Y623840D02*
D03*
Y634000D02*
D03*
X170736Y622913D02*
D03*
Y633073D02*
D03*
X199264Y130087D02*
D03*
Y119927D02*
D03*
X110264Y132102D02*
D03*
Y121942D02*
D03*
X452889Y198170D02*
D03*
Y208330D02*
D03*
D43*
X17459Y117500D02*
D03*
Y138500D02*
D03*
X86593Y601690D02*
D03*
Y580690D02*
D03*
X260215Y580427D02*
D03*
Y601427D02*
D03*
X174062Y579500D02*
D03*
Y600500D02*
D03*
X195938Y173500D02*
D03*
Y152500D02*
D03*
X106938Y175515D02*
D03*
Y154515D02*
D03*
D44*
X84513Y150804D02*
D03*
Y122804D02*
D03*
X22092Y569300D02*
D03*
Y597300D02*
D03*
X262188Y183729D02*
D03*
Y155729D02*
D03*
X173645Y188357D02*
D03*
Y160357D02*
D03*
X198209Y576721D02*
D03*
Y604721D02*
D03*
X111092Y569300D02*
D03*
Y597300D02*
D03*
X465615Y275000D02*
D03*
Y247000D02*
D03*
X445819Y513673D02*
D03*
Y485673D02*
D03*
D45*
X165546Y352105D02*
D03*
Y342105D02*
D03*
D46*
X474365Y229294D02*
D03*
X464365D02*
D03*
D47*
X583250Y189080D02*
D03*
Y206080D02*
D03*
D48*
X385643Y277433D02*
D03*
D49*
X394393Y232933D02*
D03*
X376893D02*
D03*
D50*
X178646Y20562D02*
D03*
X157645D02*
D03*
X900500Y516000D02*
D03*
X879500D02*
D03*
X902630Y177086D02*
D03*
X881630D02*
D03*
D51*
X361712Y621340D02*
D03*
X336194D02*
D03*
D52*
X691420Y638406D02*
D03*
X686420D02*
D03*
X681420D02*
D03*
X676420D02*
D03*
X671420D02*
D03*
X666420D02*
D03*
X661420D02*
D03*
X656420D02*
D03*
X651420D02*
D03*
X646420D02*
D03*
X641420D02*
D03*
X636420D02*
D03*
X631420D02*
D03*
X626420D02*
D03*
X621420D02*
D03*
X616420D02*
D03*
X611420D02*
D03*
X606420D02*
D03*
X601420D02*
D03*
X596420D02*
D03*
X591420D02*
D03*
X586420D02*
D03*
X581420D02*
D03*
X576420D02*
D03*
X571420D02*
D03*
Y486406D02*
D03*
X576420D02*
D03*
X581420D02*
D03*
X586420D02*
D03*
X591420D02*
D03*
X596420D02*
D03*
X601420D02*
D03*
X606420D02*
D03*
X611420D02*
D03*
X616420D02*
D03*
X621420D02*
D03*
X626420D02*
D03*
X631420D02*
D03*
X636420D02*
D03*
X641420D02*
D03*
X646420D02*
D03*
X651420D02*
D03*
X656420D02*
D03*
X661420D02*
D03*
X666420D02*
D03*
X671420D02*
D03*
X676420D02*
D03*
X681420D02*
D03*
X686420D02*
D03*
X691420D02*
D03*
D53*
X555420Y622406D02*
D03*
Y617406D02*
D03*
Y612406D02*
D03*
Y607406D02*
D03*
Y602406D02*
D03*
Y597406D02*
D03*
Y592406D02*
D03*
Y587406D02*
D03*
Y582406D02*
D03*
Y577406D02*
D03*
Y572406D02*
D03*
Y567406D02*
D03*
Y562406D02*
D03*
Y557406D02*
D03*
Y552406D02*
D03*
Y547406D02*
D03*
Y542406D02*
D03*
Y537406D02*
D03*
Y532406D02*
D03*
Y527406D02*
D03*
Y522406D02*
D03*
Y517406D02*
D03*
Y512406D02*
D03*
Y507406D02*
D03*
Y502406D02*
D03*
X707420D02*
D03*
Y507406D02*
D03*
Y512406D02*
D03*
Y517406D02*
D03*
Y522406D02*
D03*
Y527406D02*
D03*
Y532406D02*
D03*
Y537406D02*
D03*
Y542406D02*
D03*
Y547406D02*
D03*
Y552406D02*
D03*
Y557406D02*
D03*
Y562406D02*
D03*
Y567406D02*
D03*
Y572406D02*
D03*
Y577406D02*
D03*
Y582406D02*
D03*
Y587406D02*
D03*
Y592406D02*
D03*
Y597406D02*
D03*
Y602406D02*
D03*
Y607406D02*
D03*
Y612406D02*
D03*
Y617406D02*
D03*
Y622406D02*
D03*
D54*
X199750Y42500D02*
D03*
Y87500D02*
D03*
X120250Y42500D02*
D03*
Y87500D02*
D03*
X934750Y197500D02*
D03*
Y242500D02*
D03*
X855250Y197500D02*
D03*
Y242500D02*
D03*
X934750Y537500D02*
D03*
Y582500D02*
D03*
X855250Y537500D02*
D03*
Y582500D02*
D03*
D95*
X51050Y388900D02*
D03*
Y331100D02*
D03*
D99*
X522500Y685138D02*
D03*
D100*
X477500D02*
D03*
D101*
X535050Y660238D02*
D03*
X464950D02*
D03*
D104*
X426519Y255802D02*
D03*
Y266802D02*
D03*
X437519Y255802D02*
D03*
Y266802D02*
D03*
D106*
X764500Y104137D02*
Y104250D01*
X757014Y96652D02*
X764500Y104137D01*
X683000Y153000D02*
X693750D01*
X680500Y150500D02*
X683000Y153000D01*
X755550Y112750D02*
X755550Y112750D01*
X742000Y112750D02*
X755550D01*
X742000Y112750D02*
X742000Y112750D01*
X728960Y112750D02*
X742000D01*
X728947Y112738D02*
X728960Y112750D01*
X729500Y101500D02*
Y112250D01*
X756514Y96652D02*
X757014D01*
X755054Y95192D02*
X756514Y96652D01*
X106729Y51229D02*
X113896Y58396D01*
X106750Y33250D02*
Y47000D01*
X106729Y47021D02*
X106750Y47000D01*
X106729Y47021D02*
Y51229D01*
X106750Y33250D02*
X110500Y29500D01*
X42128Y143250D02*
X47138Y138240D01*
X35250Y143250D02*
X42128D01*
X688250Y177000D02*
X689889Y175361D01*
X677527Y163000D02*
X678237Y163710D01*
X689889Y175361D02*
X692130Y173120D01*
X688250Y173223D02*
Y177000D01*
X677527Y162500D02*
Y163000D01*
X678237Y163710D02*
X678737D01*
X688250Y173223D01*
X692130Y162960D02*
X692590Y162500D01*
X693750D01*
X692130Y162960D02*
Y173120D01*
X110500Y29500D02*
X132073D01*
X135049Y21271D02*
Y26524D01*
X132073Y29500D02*
X135049Y26524D01*
Y21271D02*
X135759Y20561D01*
X113896Y58396D02*
X132104D01*
X157645Y32855D01*
Y20562D02*
Y32855D01*
X294750Y646180D02*
X295142D01*
X298118Y649156D02*
Y658500D01*
X295142Y646180D02*
X298118Y649156D01*
X246323Y618927D02*
X249250Y616000D01*
X250396Y617146D01*
X254604D01*
X260179Y611571D01*
X236714Y618927D02*
X246323D01*
X47138Y137494D02*
Y138240D01*
X42585Y151098D02*
X47471D01*
X47480Y151090D02*
X51688D01*
X25520Y150690D02*
X42176D01*
X47471Y151098D02*
X47480Y151090D01*
X42176Y150690D02*
X42585Y151098D01*
X23288Y152922D02*
Y168046D01*
X47138Y137494D02*
X51788Y132844D01*
X51688Y151090D02*
X59558Y158960D01*
X23288Y152922D02*
X25520Y150690D01*
X18334Y173000D02*
X23288Y168046D01*
X8500Y173000D02*
X18334D01*
X8500Y169500D02*
Y173000D01*
X14290Y164210D02*
X15000Y163500D01*
X13790Y164210D02*
X14290D01*
X8500Y169500D02*
X13790Y164210D01*
X735309Y548746D02*
X735772D01*
X734989Y549066D02*
X735309Y548746D01*
X735772D02*
X740079Y544439D01*
X745939D01*
X625349Y382500D02*
X625665D01*
X621049Y378201D02*
X625349Y382500D01*
X152643Y105555D02*
X166695D01*
X170750Y101500D01*
X150478Y105555D02*
X152643D01*
X152643Y105555D01*
X150478Y105555D02*
X154688Y109765D01*
X369250Y398552D02*
X381157Y410460D01*
X401117Y432920D02*
X403617D01*
X381157Y410460D02*
Y412960D01*
X401117Y432920D01*
X406674Y328500D02*
X432353Y302820D01*
X385643Y309969D02*
X404174Y328500D01*
X406674D01*
X385643Y277433D02*
Y309969D01*
X260179Y601463D02*
Y611571D01*
Y601463D02*
X260215Y601427D01*
X63807Y577857D02*
X66292Y575371D01*
X63025Y578638D02*
X63457Y578207D01*
X64000Y578750D02*
X64350Y578400D01*
Y533100D02*
X78093D01*
X34000Y54750D02*
X47500D01*
X52750Y60000D01*
X37209Y58380D02*
Y77250D01*
X34000Y54750D02*
Y55171D01*
X37209Y58380D01*
X88723Y146594D02*
X95656D01*
X102250Y137250D02*
Y140000D01*
X84513Y150804D02*
X88723Y146594D01*
X95656D02*
X102250Y140000D01*
X59250Y148500D02*
X70500Y137250D01*
X102250D01*
X58848Y127580D02*
Y137030D01*
Y148098D01*
X342194Y667500D02*
X385750Y623944D01*
Y619250D02*
Y623944D01*
X341854Y667500D02*
X342194D01*
X69522Y638103D02*
X76706D01*
X81566Y633073D02*
X98043D01*
X65312Y642313D02*
X69522Y638103D01*
X76706D02*
X81526Y633283D01*
Y633113D02*
Y633283D01*
Y633113D02*
X81566Y633073D01*
X65312Y643000D02*
Y645250D01*
Y640750D02*
Y643000D01*
X62081Y637520D02*
X65312Y640750D01*
X271880Y386630D02*
X272000Y386750D01*
X261556Y386630D02*
X271880D01*
X65209Y75805D02*
X66540Y77135D01*
Y93540D02*
X70250Y97250D01*
X66540Y77135D02*
Y93540D01*
X62139D02*
X66540D01*
X61929Y93750D02*
Y97500D01*
Y93750D02*
X62139Y93540D01*
X113883Y615285D02*
X120750Y622151D01*
X113883Y614785D02*
Y615285D01*
X120750Y622151D02*
Y623000D01*
X50520Y637520D02*
X62081D01*
X50520Y623471D02*
Y637520D01*
X208250Y628876D02*
Y629000D01*
X201374Y622000D02*
X208250Y628876D01*
X58848Y148098D02*
X59250Y148500D01*
X465315Y189130D02*
Y199700D01*
X454337Y178152D02*
X465315Y189130D01*
Y199700D02*
X465615Y200000D01*
X453049Y178152D02*
X454337D01*
X452889Y177992D02*
X453049Y178152D01*
X497737Y297589D02*
X504000Y291327D01*
Y290750D02*
Y291327D01*
X468591Y297589D02*
X497737D01*
X420019Y177838D02*
X420519D01*
X414431Y172250D02*
X420019Y177838D01*
X408500Y172250D02*
X414431D01*
X245494Y335526D02*
X245994D01*
X246704Y334816D01*
X245204Y335816D02*
X245494Y335526D01*
X246704Y334816D02*
X258934D01*
X260750Y333000D01*
X230149Y335816D02*
X245204D01*
X456726Y229294D02*
X464365D01*
X453750Y232270D02*
Y233750D01*
Y232270D02*
X456726Y229294D01*
X59558Y148700D02*
Y158960D01*
X9049Y125978D02*
X9881Y126810D01*
X30099D01*
X7209Y89653D02*
Y125978D01*
X30099Y126810D02*
X35619Y121290D01*
X20785Y84927D02*
X21035D01*
X7209Y125978D02*
X9049D01*
X165546Y342105D02*
X169293Y338359D01*
X185486Y694540D02*
X198750D01*
X226465D01*
X236341D01*
X523750Y513750D02*
X524032Y513468D01*
Y502406D02*
Y513468D01*
X195959Y604721D02*
X209709D01*
Y593459D02*
Y603707D01*
X207500Y591250D02*
X209709Y593459D01*
Y604721D02*
X212120D01*
X51772Y347105D02*
X82645D01*
X94500Y335250D01*
X791014Y349028D02*
Y358514D01*
X791500Y359000D01*
X711045Y464455D02*
X711250Y464250D01*
X701920Y464455D02*
X711045D01*
X199750Y42500D02*
X203250Y46000D01*
X215000D01*
X812280Y85780D02*
X812500Y86000D01*
X801558Y85780D02*
X812280D01*
X801470Y85691D02*
X801558Y85780D01*
X730750Y170000D02*
Y170750D01*
X723710Y162960D02*
X730750Y170000D01*
X464365Y229294D02*
Y245750D01*
X376893Y220893D02*
Y232933D01*
X376500Y220500D02*
X376893Y220893D01*
X768264Y130736D02*
X768750Y130250D01*
X768264Y130736D02*
Y140749D01*
X175972Y141950D02*
X183550D01*
X186250Y139250D01*
X212465Y641677D02*
Y643927D01*
X191374Y621500D02*
Y625971D01*
X193698Y628295D01*
X197028Y632413D02*
Y632913D01*
X193698Y628295D02*
Y629083D01*
X217715Y618927D02*
Y636427D01*
X201214Y621340D02*
X201374Y621500D01*
X217714Y618927D02*
X217715Y618927D01*
X201374Y621500D02*
Y622000D01*
X197028Y632913D02*
X197188Y633073D01*
X212465Y641677D02*
X217715Y636427D01*
X191214Y621340D02*
X191374Y621500D01*
X193698Y629083D02*
X197028Y632413D01*
X721710Y162960D02*
X723710D01*
X721250Y162500D02*
X721710Y162960D01*
X180678Y623313D02*
Y648539D01*
X185486Y653346D01*
X180678Y623313D02*
X182651Y621340D01*
X14594Y627022D02*
X15566Y627000D01*
X12743Y626340D02*
X13911D01*
X14883Y614285D02*
X18373Y610795D01*
Y610006D02*
X20605Y607775D01*
X8373Y502695D02*
Y621630D01*
X20605Y598787D02*
Y607775D01*
X8373Y621630D02*
X12743Y626000D01*
Y626340D01*
X13911D02*
X14594Y627022D01*
X18373Y610006D02*
Y610795D01*
X8373Y502695D02*
X11349Y499719D01*
X20605Y598787D02*
X22092Y597300D01*
X14883Y614285D02*
Y614785D01*
X22092Y597300D02*
X24342D01*
X12743Y635660D02*
X20083Y643000D01*
X12743Y626500D02*
Y635660D01*
X12583Y626340D02*
X12743Y626500D01*
X20083Y643000D02*
X27460D01*
X37312D01*
X24883Y615285D02*
X28525Y618927D01*
X29592D01*
X260846Y385920D02*
X261556Y386630D01*
X478500Y304000D02*
X483500Y309000D01*
X458683Y304000D02*
X478500D01*
X103883Y614785D02*
Y615285D01*
X107373Y618775D01*
Y621788D01*
X50495Y590495D02*
X54882Y586109D01*
X32500Y583250D02*
Y588408D01*
X33125Y582265D02*
Y582625D01*
X32500Y583250D02*
X33125Y582625D01*
X28552Y592356D02*
X32500Y588408D01*
X24342Y597300D02*
X28552Y593090D01*
Y592356D02*
Y593090D01*
X49191Y607775D02*
X51704Y610287D01*
X50310Y623261D02*
X50520Y623471D01*
X50310Y615616D02*
Y623261D01*
X49633Y614939D02*
X50310Y615616D01*
X65209Y75000D02*
Y75805D01*
X52750Y60000D02*
X71347D01*
X52750D02*
Y66304D01*
X53657Y67210D01*
X355260Y211740D02*
Y212240D01*
Y211740D02*
X362500Y204500D01*
Y203000D02*
Y204500D01*
X693750Y153000D02*
X693750Y153000D01*
X415750Y298250D02*
X424043D01*
X427019Y295274D01*
X432578Y302596D02*
X439463D01*
X432353Y302820D02*
X432578Y302596D01*
X465615Y294614D02*
X468591Y297589D01*
X458683Y294155D02*
Y304000D01*
X453219Y288691D02*
X458683Y294155D01*
X465615Y275000D02*
Y294614D01*
X680250Y244250D02*
X701000D01*
X703750Y241500D01*
X443059Y288691D02*
X453219D01*
X525456Y622566D02*
Y629106D01*
X528432Y634007D02*
X528739D01*
X525456Y631031D02*
X528432Y634007D01*
X525456Y629106D02*
X525456Y631031D01*
X528739Y634007D02*
X547612Y643506D01*
X548485Y644108D02*
X548645Y644606D01*
X547612Y643506D02*
X548485Y644108D01*
X525296Y622406D02*
X525456Y622566D01*
X587613Y171098D02*
X593020D01*
X583250Y175460D02*
X587613Y171098D01*
X452889Y168000D02*
Y177992D01*
X583250Y175460D02*
Y189080D01*
X371225Y146026D02*
Y170225D01*
X362800Y137600D02*
X371225Y146026D01*
X347990Y137600D02*
X362800D01*
X371225Y170225D02*
X385000Y184000D01*
X320990Y137600D02*
X347990D01*
X320990D02*
Y147100D01*
X348750Y185250D02*
X361465D01*
X347990Y137600D02*
Y147100D01*
X306090Y130926D02*
X308630Y128386D01*
X306090Y130926D02*
Y139060D01*
X305380Y139770D02*
X306090Y139060D01*
X304880Y139770D02*
X305380D01*
X199264Y119927D02*
X199304Y119887D01*
X199474D01*
X228407Y126850D02*
X228407Y126850D01*
Y130350D01*
X209886Y109475D02*
X214734D01*
X218719D01*
X228407Y126850D02*
Y130350D01*
X227947Y126390D02*
X228407Y126850D01*
X227947Y121002D02*
Y126390D01*
X223412Y116468D02*
X227947Y121002D01*
X219991Y116468D02*
X223412D01*
X214734Y111210D02*
X219991Y116468D01*
X222929Y103015D02*
Y105265D01*
X218719Y109475D02*
X222929Y105265D01*
X199474Y119887D02*
X209886Y109475D01*
X218134Y98220D02*
X222929Y103015D01*
X218134Y98220D02*
X223407Y92948D01*
Y84000D02*
Y92948D01*
X261425Y115158D02*
X265434Y119168D01*
X260821Y115158D02*
X261425D01*
X250929Y105265D02*
X260821Y115158D01*
X250929Y103015D02*
Y105265D01*
X265434Y119168D02*
Y126000D01*
X250929Y100765D02*
Y105265D01*
X241621Y114573D02*
Y120895D01*
Y114573D02*
X250929Y105265D01*
X234911Y87778D02*
X237941D01*
X250929Y100765D01*
X150635Y133150D02*
X150635Y133150D01*
Y133150D01*
X336194Y621340D02*
X337020Y622166D01*
Y625606D01*
X304118D02*
X337020D01*
X300963Y622451D02*
X304118Y625606D01*
X795761Y130750D02*
Y140749D01*
X239215Y583427D02*
X251233Y571409D01*
X239214Y583427D02*
X239215D01*
X201745Y576721D02*
X216287D01*
X195959D02*
X201745D01*
X243117Y571068D02*
X244214Y569971D01*
X238657Y571068D02*
X243117D01*
X234175Y575550D02*
Y576050D01*
X251233Y563020D02*
Y571409D01*
X234175Y575550D02*
X238657Y571068D01*
X240673Y554449D02*
X243606Y557381D01*
Y569362D01*
X251233Y563020D02*
X254886Y559367D01*
X255775D02*
X259005Y556137D01*
X259504D02*
X260215Y555427D01*
X259005Y556137D02*
X259504D01*
X254886Y559367D02*
X255775D01*
X239003Y583610D02*
X239003Y583610D01*
X223176Y583610D02*
X239003D01*
X154688Y298000D02*
X154803Y298115D01*
X169907D01*
X524926Y594977D02*
X527496Y592406D01*
X517540Y598627D02*
X521190Y594977D01*
X527496Y592406D02*
X527996D01*
X521190Y594977D02*
X524926D01*
X517448Y598627D02*
X517540D01*
X87878Y104000D02*
Y119440D01*
X84513Y122804D02*
X87878Y119440D01*
X241621Y120895D02*
X246704Y125978D01*
X517448Y598627D02*
Y607406D01*
X125511Y570936D02*
X126296Y571721D01*
X133086Y571919D02*
Y580217D01*
X133796Y559120D02*
Y571721D01*
X126296D02*
X132888D01*
X133086Y571919D01*
Y580217D02*
X133796Y580927D01*
X129796Y584612D02*
Y593787D01*
X114092Y570050D02*
X114978Y570936D01*
X125511D01*
X188798Y635183D02*
Y636251D01*
X187188Y633573D02*
X188798Y635183D01*
X187188Y633073D02*
Y633573D01*
X196214Y643927D02*
X212465D01*
X189746Y637459D02*
X196214Y643927D01*
X189746Y637459D02*
X189876Y637329D01*
X188798Y636251D02*
X189876Y637329D01*
X191214Y620840D02*
Y621340D01*
Y620840D02*
X191749Y620305D01*
Y608931D02*
Y620305D01*
Y608931D02*
X195959Y604721D01*
X115368Y220455D02*
X129704D01*
X130259Y219900D01*
X41980Y585930D02*
X43882Y584028D01*
Y580559D02*
Y584028D01*
X41980Y585930D02*
Y598511D01*
X43882Y580559D02*
X44592Y579849D01*
X41020Y599471D02*
X41980Y598511D01*
X41020Y575776D02*
X43311Y578067D01*
X38526Y573282D02*
X41020Y575776D01*
X43311D02*
Y578067D01*
Y573000D02*
Y575776D01*
X25792Y573000D02*
X38526D01*
X22092Y570008D02*
X25438Y573354D01*
X38526Y573000D02*
X43311D01*
X68222Y575371D02*
X69592Y574000D01*
X66292Y575371D02*
X68222D01*
X56302Y578638D02*
X63025D01*
X55592Y579348D02*
X56302Y578638D01*
X152643Y322800D02*
X155127Y320316D01*
X167407D01*
X243253Y191425D02*
X256987D01*
X240189Y194489D02*
X243253Y191425D01*
X264107Y155729D02*
X264438D01*
X274998Y166289D01*
Y192057D01*
X261077Y205979D02*
X274998Y192057D01*
X254941Y205979D02*
X261077D01*
X241019Y219900D02*
X254941Y205979D01*
X202908Y219900D02*
X241019D01*
X245263Y144306D02*
X246818Y145860D01*
X250069D01*
X259938Y155729D01*
X262188D01*
X264107Y138350D02*
Y138850D01*
X245263Y142818D02*
Y144306D01*
X241295Y138850D02*
X245263Y142818D01*
X235019Y138850D02*
X241295D01*
X264107Y138350D02*
Y153811D01*
X262188Y155729D02*
X264107Y153811D01*
X240189Y194489D02*
Y198989D01*
X229629Y209549D02*
X240189Y198989D01*
X201988Y209549D02*
X229629D01*
X196438Y204000D02*
X201988Y209549D01*
X195938Y204000D02*
X196438D01*
X231465Y684450D02*
X233715Y682200D01*
X242427D01*
X216287Y576721D02*
X219395Y579829D01*
X219814Y583610D02*
X223176D01*
X217714D02*
Y594927D01*
X184435Y588245D02*
X195959Y576721D01*
X579920Y407212D02*
X589000D01*
X589000D02*
Y413706D01*
X45311Y554828D02*
X47779Y552360D01*
Y548368D02*
Y552360D01*
Y548368D02*
X54129Y542019D01*
X85382Y552240D02*
Y553946D01*
X82129Y548987D02*
X85382Y552240D01*
X54129Y542019D02*
X79897D01*
X85382Y553946D02*
X86092Y554656D01*
X82129Y544250D02*
Y548987D01*
X86092Y554656D02*
X86592D01*
X79897Y542019D02*
X82129Y544250D01*
X37312Y643000D02*
X40560Y639752D01*
Y623931D02*
Y639752D01*
Y623931D02*
X41020Y623471D01*
X34902Y605477D02*
X36949Y603431D01*
X40060D01*
X41020Y602471D01*
X29592Y616899D02*
Y618927D01*
Y616899D02*
X34902Y611589D01*
Y605477D02*
Y611589D01*
X126312Y640750D02*
Y643000D01*
X184233Y275590D02*
X212986D01*
X175868Y283955D02*
X184233Y275590D01*
X169907Y285415D02*
X171367Y283955D01*
X175868D01*
X212986Y275590D02*
X220796Y283400D01*
X258908D01*
X268251Y281940D02*
X270034Y280158D01*
X260368Y281940D02*
X268251D01*
X270034Y280158D02*
X286260D01*
X285752Y298673D02*
X286260D01*
X280515Y303910D02*
X285752Y298673D01*
X242102Y303910D02*
X280515D01*
X234292Y296100D02*
X242102Y303910D01*
X202908Y296100D02*
X234292D01*
X258908Y283400D02*
X260368Y281940D01*
X62541Y261100D02*
X76003Y274563D01*
X86856Y285415D01*
X117052Y440866D02*
X127844Y430074D01*
X138218Y419700D01*
X202908Y232600D02*
Y243000D01*
X188745Y257162D02*
X202908Y243000D01*
X188745Y257162D02*
Y261301D01*
X258908Y219900D02*
Y234719D01*
Y283400D02*
Y296100D01*
X202908Y283400D02*
Y296100D01*
Y219900D02*
Y232600D01*
X198408Y296100D02*
X202908D01*
X187993Y306515D02*
X198408Y296100D01*
X145439Y306515D02*
X187993D01*
X137039Y298115D02*
X145439Y306515D01*
X130689Y298115D02*
X137039D01*
X258908Y234719D02*
X262188Y238000D01*
X518739Y553154D02*
Y563466D01*
Y553154D02*
X519491Y553906D01*
X530467D01*
X535249Y558688D01*
Y559423D01*
X538232Y562406D01*
X518739Y553154D02*
X534188Y537705D01*
X534333D01*
X256615Y643927D02*
X256889Y644200D01*
X240465Y643927D02*
X256615D01*
X227014Y615227D02*
Y618927D01*
X240465Y641677D02*
Y642272D01*
X227674Y619387D02*
Y628886D01*
X240465Y641677D01*
X224524Y612737D02*
X227014Y615227D01*
X224524Y610849D02*
Y612737D01*
X221988Y608313D02*
X224524Y610849D01*
X215712Y608313D02*
X221988D01*
X212120Y604721D02*
X215712Y608313D01*
X201745Y575435D02*
X208463Y568717D01*
X182128Y615507D02*
Y620304D01*
X184435Y588245D02*
Y613200D01*
X182128Y615507D02*
X184435Y613200D01*
X185486Y653346D02*
Y675540D01*
X154312Y643000D02*
Y645250D01*
X158522Y636540D02*
X167099D01*
X154312Y640750D02*
Y643000D01*
X170566Y633073D02*
X170736D01*
X167099Y636540D02*
X170566Y633073D01*
X154312Y640750D02*
X158522Y636540D01*
X167093Y510000D02*
Y520400D01*
Y533100D01*
X133086Y558410D02*
Y558410D01*
X133796Y559120D01*
X130796Y556120D02*
X133086Y558410D01*
X111092Y533100D02*
Y569300D01*
X133086Y581637D02*
X133796Y580927D01*
Y580427D02*
Y580927D01*
X132772Y581637D02*
X133086D01*
X129796Y584612D02*
X132772Y581637D01*
X144796Y549867D02*
Y580427D01*
X154956Y549867D02*
X160003Y554913D01*
X144796Y549867D02*
X154956D01*
X123139Y607097D02*
X135916D01*
X139296Y610477D01*
X113342Y597300D02*
X123139Y607097D01*
X111092Y597300D02*
X113342D01*
X103883Y602259D02*
Y614785D01*
X108842Y597300D02*
X111092D01*
X103883Y602259D02*
X108842Y597300D01*
X108093Y622509D02*
Y624556D01*
X110802Y627265D01*
X107373Y621788D02*
X108093Y622509D01*
X98043Y631328D02*
Y633073D01*
Y631328D02*
X101583Y627787D01*
Y627287D02*
Y627787D01*
Y627287D02*
X101743Y627447D01*
Y628735D01*
X109548Y636540D01*
X122102D01*
X126312Y640750D01*
X129336Y639976D02*
Y639976D01*
Y621247D02*
Y639976D01*
X129796Y639516D01*
X129336Y621247D02*
X129796Y620787D01*
X126312Y643000D02*
X129336Y639976D01*
X18373Y619563D02*
X21801Y622991D01*
Y626318D01*
X14883Y615285D02*
X18373Y618775D01*
X14883Y614785D02*
Y615285D01*
X18373Y618775D02*
Y619563D01*
X11349Y499719D02*
X70729D01*
X80000Y490448D01*
X49633Y612358D02*
X51704Y610287D01*
X49191Y591799D02*
Y607775D01*
X54882Y580559D02*
Y586109D01*
Y580559D02*
X55592Y579849D01*
X43311Y578067D02*
X44592Y579348D01*
Y579849D01*
X32354Y561288D02*
X39359D01*
X43569Y557079D01*
X22092Y569300D02*
X24342D01*
X43569Y554828D02*
Y557079D01*
X24342Y569300D02*
X32354Y561288D01*
X29323Y535830D02*
Y535830D01*
X22092Y533100D02*
X26593D01*
X29323Y535830D02*
X39359Y545867D01*
Y550619D02*
X43569Y554828D01*
X39359Y545867D02*
Y550619D01*
X253245Y456900D02*
Y476600D01*
X76737Y396630D02*
X82722D01*
X54108Y374000D02*
X76737Y396630D01*
X48123Y374000D02*
X54108D01*
X38604Y360273D02*
Y364482D01*
Y360273D02*
X51772Y347105D01*
X38604Y364482D02*
X48123Y374000D01*
X72878Y109500D02*
X77878Y104500D01*
Y104000D02*
Y104500D01*
X66209Y109500D02*
X72878D01*
X228511Y144857D02*
Y156677D01*
X220313Y164875D02*
X228511Y156677D01*
X52428Y113976D02*
Y131061D01*
X51788Y131702D02*
Y132844D01*
Y131702D02*
X52428Y131061D01*
X20825Y84887D02*
X29572D01*
X20785Y84927D02*
X20825Y84887D01*
X29572D02*
X37209Y77250D01*
X69419Y80015D02*
X82024D01*
X65209Y75805D02*
X69419Y80015D01*
X84437Y86988D02*
X87927Y90478D01*
X82024Y80015D02*
X84437Y82428D01*
X87927Y90478D02*
Y90978D01*
X84437Y82428D02*
Y86988D01*
X77927Y91478D02*
X81417Y94968D01*
Y96251D01*
X84388Y99222D01*
Y100010D02*
X87878Y103500D01*
X77927Y90978D02*
Y91478D01*
X84388Y99222D02*
Y100010D01*
X87878Y103500D02*
Y104000D01*
X93043Y100015D02*
X103188D01*
X91363D02*
X93043D01*
X87878Y103500D02*
X91363Y100015D01*
X94109Y85872D02*
X94437Y86200D01*
X93043Y100015D02*
X94437Y98620D01*
X94109Y82427D02*
Y85872D01*
X94437Y86200D02*
Y98620D01*
X83061Y73175D02*
X84857D01*
X75798Y65911D02*
X83061Y73175D01*
X84857D02*
X94109Y82427D01*
X52428Y78527D02*
X53657Y77299D01*
Y67210D02*
Y77299D01*
X71347Y60000D02*
X75798Y64451D01*
Y65911D01*
X52428Y78527D02*
Y97500D01*
X165651Y142110D02*
Y143966D01*
X153383Y156235D02*
X165651Y143966D01*
Y142110D02*
X165812Y141950D01*
X175812Y149934D02*
Y153505D01*
X171602Y157715D02*
X175812Y153505D01*
X150282Y185715D02*
X171003D01*
X173645Y188357D01*
X149675Y158110D02*
Y162464D01*
Y158110D02*
X150635Y157150D01*
X146636Y165440D02*
Y175515D01*
Y165440D02*
X149611Y162464D01*
X149675D01*
X150635Y133150D02*
X151096Y132690D01*
Y115608D02*
Y132690D01*
Y115608D02*
X154688Y112015D01*
X141135Y121451D02*
Y133150D01*
X138160Y118475D02*
X141135Y121451D01*
X130898Y118475D02*
X138160D01*
X126688Y114265D02*
X130898Y118475D01*
X138945Y136650D02*
Y165228D01*
X136345Y167828D02*
X138945Y165228D01*
X136345Y167828D02*
Y174305D01*
X141135Y133150D02*
Y136650D01*
X135635Y175015D02*
X136345Y174305D01*
X143826Y139340D02*
Y142582D01*
X141135Y136650D02*
X143826Y139340D01*
X167407Y127993D02*
Y128493D01*
X159026Y136873D02*
X167407Y128493D01*
X159026Y136873D02*
Y141002D01*
X155024Y145004D02*
X159026Y141002D01*
X146247Y145004D02*
X155024D01*
X143826Y142582D02*
X146247Y145004D01*
X175812Y147155D02*
Y149934D01*
Y141950D02*
Y147155D01*
X169676Y112015D02*
X177407Y119745D01*
X150282Y185715D02*
Y196071D01*
X151812Y197600D01*
X112434Y210410D02*
X132140D01*
X138490Y204060D01*
X108148Y206124D02*
X112434Y210410D01*
X147601Y204060D02*
X151812Y199850D01*
X138490Y204060D02*
X147601D01*
X146636Y182068D02*
X150282Y185715D01*
X146636Y175515D02*
Y182068D01*
X106938Y200515D02*
X107438D01*
X151812Y197600D02*
Y199850D01*
X108148Y201225D02*
Y206124D01*
X107438Y200515D02*
X108148Y201225D01*
X154688Y112015D02*
X169676D01*
X178646Y20562D02*
X192811D01*
X237907Y123350D02*
X240189Y121068D01*
X232829Y140540D02*
X233329D01*
X235019Y138850D01*
X228511Y144857D02*
X232829Y140540D01*
X256407Y126478D02*
X259897Y129968D01*
Y130756D02*
X262677Y133536D01*
Y136920D02*
X264107Y138350D01*
X256407Y125978D02*
Y126478D01*
X259897Y129968D02*
Y130756D01*
X262677Y133536D02*
Y136920D01*
X233399Y165540D02*
Y167960D01*
Y165540D02*
X236947Y161992D01*
Y151810D02*
Y161992D01*
Y151810D02*
X237907Y150850D01*
X163947Y211986D02*
Y220455D01*
X165408Y221915D02*
X165408D01*
X163947Y220455D02*
X165408Y221915D01*
X151812Y199850D02*
X163947Y211986D01*
X113908Y234615D02*
Y245015D01*
Y221915D02*
Y234615D01*
Y221915D02*
X115368Y220455D01*
X120250Y182015D02*
Y194038D01*
X123812Y197600D01*
X128021Y193390D01*
Y182944D02*
X130136Y180830D01*
X130821D02*
X135635Y176015D01*
Y175515D02*
Y176015D01*
X130136Y180830D02*
X130821D01*
X172321Y137960D02*
X175812Y141450D01*
X170897Y132771D02*
X172321Y134196D01*
X167407Y128493D02*
X170897Y131983D01*
X175812Y141450D02*
Y141950D01*
X172321Y134196D02*
Y137960D01*
X170897Y131983D02*
Y132771D01*
X59558Y158960D02*
X61848Y161250D01*
Y163500D01*
X58848Y127580D02*
X61929Y124500D01*
Y121500D02*
Y124500D01*
X35619Y113422D02*
X37086Y111954D01*
X39052Y111000D02*
X49453D01*
X52428Y113976D01*
X35619Y113422D02*
Y121290D01*
X78093Y520400D02*
Y533100D01*
Y510000D02*
X93891Y494201D01*
X78093Y510000D02*
Y520400D01*
X49633Y612358D02*
Y614939D01*
X435004Y659137D02*
Y664886D01*
X434236Y665654D02*
X435004Y664886D01*
X434236Y665654D02*
Y684917D01*
X435714Y658427D02*
X436161D01*
X435004Y659137D02*
X435714Y658427D01*
X428561Y690340D02*
X434236Y684665D01*
X253427Y675577D02*
Y688163D01*
Y675577D02*
X253464Y675540D01*
X253390Y688201D02*
X253427Y688163D01*
X287066Y648561D02*
X291428Y652922D01*
X285308Y670560D02*
X291428Y664440D01*
X285308Y682078D02*
X304229Y701000D01*
X285308Y670560D02*
Y682078D01*
X261249Y648561D02*
X287066D01*
X291428Y652922D02*
Y664440D01*
X264354Y662500D02*
X268814Y666960D01*
X268585Y679162D02*
X276832Y670916D01*
X253464Y675040D02*
Y675540D01*
X268585Y679162D02*
Y685393D01*
X254174Y674330D02*
X263744D01*
X253464Y675040D02*
X254174Y674330D01*
X263744D02*
X264354Y673720D01*
X276832Y668206D02*
Y670916D01*
X253464Y662500D02*
X264354D01*
X242427Y675577D02*
Y682200D01*
Y675577D02*
X242464Y675540D01*
X276832Y668206D02*
X285078Y659960D01*
X256889Y644200D02*
X261249Y648561D01*
X252680Y650677D02*
X253464D01*
X252390Y650387D02*
X252680Y650677D01*
X244675Y650387D02*
X252390D01*
X149210Y694540D02*
X185486D01*
X149210D02*
Y694591D01*
X148796D02*
X149210D01*
X146750Y694131D02*
X148336D01*
X148796Y694591D01*
X258218Y695760D02*
X268585Y685393D01*
X237561Y695760D02*
X258218D01*
X236341Y694540D02*
X237561Y695760D01*
X840277Y242500D02*
X855250D01*
X840094Y582500D02*
X855250D01*
X900500Y516000D02*
X915914D01*
X450000Y682850D02*
X463500D01*
X451419Y702150D02*
X463500D01*
X296562Y618050D02*
X300963Y622451D01*
X288370D02*
X300963D01*
X589000Y413706D02*
X589000Y420199D01*
X589000Y393612D02*
X589000D01*
X589000D02*
X589000D01*
Y413706D02*
Y433611D01*
Y373923D02*
Y393612D01*
Y367112D02*
Y373923D01*
X589000Y380734D01*
X589000Y367112D02*
X589000Y373923D01*
Y433611D02*
X589000Y433612D01*
X589000Y367112D02*
X589000Y367112D01*
X589000Y420199D02*
Y433612D01*
X646420Y508846D02*
X646480Y508906D01*
X796683Y465059D02*
Y465608D01*
X788514Y453200D02*
X792873Y457559D01*
Y461249D02*
X796683Y465059D01*
X788014Y453200D02*
X788514D01*
X792873Y457559D02*
Y461249D01*
X319056Y501115D02*
X364376D01*
X216399Y183538D02*
X221688Y178249D01*
Y166750D02*
Y178249D01*
X216399Y183538D02*
Y192529D01*
X212189Y196739D02*
X216399Y192529D01*
X527996Y592406D02*
X528156Y592246D01*
X240465Y646177D02*
X244675Y650387D01*
X240465Y643927D02*
Y646177D01*
X174218Y554656D02*
X184183D01*
X174062Y554500D02*
X174218Y554656D01*
X62888Y112821D02*
X66209Y109500D01*
X61929Y121500D02*
X62888Y120540D01*
Y112821D02*
Y120540D01*
X33848Y163500D02*
X47848D01*
X199204Y466574D02*
X233250D01*
X217714Y581510D02*
X219814Y583610D01*
X207209Y658750D02*
X208255Y657705D01*
Y648137D02*
Y657705D01*
Y648137D02*
X212465Y643927D01*
X167093Y658031D02*
Y658500D01*
X154312Y645250D02*
X167093Y658031D01*
X139296Y624287D02*
X141986Y626977D01*
Y628865D02*
X149661Y636540D01*
X150102D02*
X154312Y640750D01*
X139296Y610477D02*
Y624287D01*
X141986Y626977D02*
Y628865D01*
X149661Y636540D02*
X150102D01*
X139296Y601627D02*
Y610477D01*
X140856Y584867D02*
X144796Y580927D01*
X139296Y601627D02*
X140856Y600067D01*
X144796Y580427D02*
Y580927D01*
X140856Y584867D02*
Y600067D01*
X24883Y614785D02*
Y615285D01*
X236714Y480456D02*
X249390D01*
X191039D02*
X236714D01*
X242798Y418409D02*
X267514Y443126D01*
X93891Y494201D02*
X245465D01*
X267514Y472152D01*
Y443126D02*
Y472152D01*
X249390Y480456D02*
X253245Y476600D01*
X147069Y431291D02*
X151803Y436024D01*
Y441610D01*
X161133Y450940D01*
Y455440D01*
X162593Y456900D01*
X167093D01*
X160322Y435302D02*
X163298Y438278D01*
X160322Y424102D02*
Y435302D01*
X155921Y419700D02*
X160322Y424102D01*
X117052Y440866D02*
Y455440D01*
X115592Y456900D02*
X117052Y455440D01*
X111092Y456900D02*
X115592D01*
X163298Y438278D02*
X179108D01*
X138218Y419700D02*
X155921D01*
X179108Y438278D02*
X194704Y453874D01*
X62743Y446050D02*
X73593Y456900D01*
X59209Y432365D02*
X62743Y435899D01*
X73593Y456900D02*
X78093D01*
X62743Y435899D02*
Y446050D01*
X263146Y406761D02*
X267652D01*
X269765Y404648D01*
X258075Y401690D02*
X263146Y406761D01*
X251450Y401690D02*
X258075D01*
X250229Y400469D02*
X251450Y401690D01*
X239307Y418409D02*
X242798D01*
X230787Y409889D02*
X239307Y418409D01*
X238119Y390290D02*
X238686D01*
X248865Y400469D02*
X250229D01*
X238686Y390290D02*
X248865Y400469D01*
X233939Y386110D02*
X238119Y390290D01*
X194805Y409889D02*
X230787D01*
X181643Y396727D02*
X194805Y409889D01*
X210439Y382487D02*
Y382873D01*
X212966Y385400D01*
X219561D01*
X220271Y386110D01*
X256987Y191425D02*
Y198199D01*
Y187939D02*
Y191425D01*
X233399Y167960D02*
X235689D01*
X240189Y174750D02*
Y194489D01*
X235689Y170250D02*
X240189Y174750D01*
X249741Y134485D02*
X254107Y138850D01*
X337618Y359684D02*
Y406723D01*
X320798Y423543D02*
X337618Y406723D01*
X304240Y423543D02*
X320798D01*
X299971Y427812D02*
X304240Y423543D01*
X299971Y427812D02*
Y433363D01*
X299556Y433777D02*
X299971Y433363D01*
X285118Y428543D02*
Y437435D01*
X312556Y399468D02*
X315506Y396518D01*
X312556Y399468D02*
Y412760D01*
X621446Y465382D02*
X629990D01*
X619848Y466044D02*
X620784D01*
X621446Y465382D01*
X364376Y501115D02*
X401409D01*
X833777Y98464D02*
X844908D01*
X823855D02*
X833777D01*
X741526Y133000D02*
Y142250D01*
X305450Y501115D02*
X319056D01*
X319743Y500427D01*
Y456900D02*
Y500427D01*
X443986Y513673D02*
X445819D01*
X439037Y523313D02*
Y533722D01*
Y523313D02*
X439776Y522574D01*
Y517884D02*
Y522574D01*
Y517884D02*
X443986Y513673D01*
X312556Y412760D02*
X319056D01*
X299556Y433777D02*
Y448214D01*
X296580Y451190D02*
X299556Y448214D01*
X289244Y453150D02*
X291204Y451190D01*
X296580D01*
X289244Y453150D02*
Y456900D01*
X309032Y455420D02*
X318263D01*
X319743Y456900D01*
X306056Y452444D02*
X309032Y455420D01*
X306056Y433777D02*
Y452444D01*
X152643Y376804D02*
X162441Y386602D01*
X152643Y322800D02*
Y376804D01*
X15094Y230639D02*
X40537D01*
X12119Y233615D02*
Y272360D01*
Y233615D02*
X15094Y230639D01*
X113901Y118475D02*
X122478D01*
X110434Y121942D02*
X113901Y118475D01*
X122478D02*
X126688Y114265D01*
X110264Y121942D02*
X110434D01*
X126688Y112015D02*
Y114265D01*
X128021Y182944D02*
Y193390D01*
X72562Y652500D02*
X74812D01*
X65312Y645250D02*
X72562Y652500D01*
X231097Y134928D02*
X235019Y138850D01*
X231097Y133040D02*
Y134928D01*
X228407Y130350D02*
X231097Y133040D01*
X24429Y190631D02*
Y197600D01*
X12119Y447500D02*
X16132Y451513D01*
X12119Y272360D02*
Y447500D01*
X17592Y456900D02*
X22092D01*
X16132Y451513D02*
Y455440D01*
X17592Y456900D01*
X12119Y272360D02*
X48573D01*
X67259Y257361D02*
X71467D01*
X74469Y254360D01*
X40537Y230639D02*
X67259Y257361D01*
X74469Y249860D02*
X75929Y248400D01*
X80429D01*
X74469Y249860D02*
Y254360D01*
X181643Y386630D02*
Y396727D01*
X180933Y385920D02*
X181643Y386630D01*
X180433Y385920D02*
X180933D01*
X219395Y579829D02*
X223175Y576050D01*
X217714Y581510D02*
X219395Y579829D01*
X162593Y533100D02*
X167093D01*
X199204Y452413D02*
X205164D01*
X111092Y469600D02*
X112354D01*
X110894Y471060D02*
X112354Y469600D01*
X73198Y184900D02*
X80429D01*
X103188Y100015D02*
X103998Y99205D01*
X135016D01*
X141367Y105555D01*
X150478D01*
X154688Y109765D02*
Y112015D01*
X24429Y261100D02*
X58637D01*
X60589Y263052D02*
X62541Y261100D01*
X86856Y285415D02*
X113908D01*
X376893Y232933D02*
X394393D01*
X464365Y245750D02*
X465615Y247000D01*
X589000Y380734D02*
Y393612D01*
X589000D02*
Y407212D01*
X296562Y605850D02*
Y618050D01*
X291618Y600906D02*
X296562Y605850D01*
X631420Y463754D02*
Y463952D01*
X629990Y465382D02*
X631420Y463952D01*
Y463754D02*
X632850Y465184D01*
X823840Y98448D02*
X823855Y98464D01*
X844908D02*
X844924Y98480D01*
X869177D01*
X912798Y191706D02*
X913734D01*
X908789Y187697D02*
X912798Y191706D01*
X906316Y187697D02*
X908789D01*
X904028Y185408D02*
X906316Y187697D01*
X904028Y178484D02*
Y185408D01*
X902630Y177086D02*
X904028Y178484D01*
X738594Y603467D02*
X750000D01*
X729655Y612406D02*
X738594Y603467D01*
X729155Y612406D02*
X729655D01*
X22092Y456900D02*
Y469600D01*
X80429Y248400D02*
Y261100D01*
X82719D02*
X93238Y271619D01*
X138506D02*
X152302Y285415D01*
X169907D01*
X80429Y261100D02*
X82719D01*
X93238Y271619D02*
X138506D01*
X169907Y285415D02*
Y298115D01*
X48573Y272360D02*
X54254Y278041D01*
Y279460D02*
X61687Y286892D01*
Y287400D01*
X54254Y278041D02*
Y279460D01*
X215431Y430000D02*
Y430508D01*
X205164Y440775D02*
X215431Y430508D01*
X205164Y440775D02*
Y452413D01*
X22092Y456900D02*
X26593D01*
X28052Y455440D01*
Y450940D02*
Y455440D01*
Y450940D02*
X35762Y443230D01*
Y436532D02*
Y443230D01*
Y436532D02*
X36907Y435387D01*
X39494Y430783D02*
Y431291D01*
Y430783D02*
X43476Y426801D01*
Y419603D02*
Y426801D01*
Y419603D02*
X51979Y411100D01*
X67100D01*
X99592Y443592D01*
Y449900D01*
X106592Y456900D01*
X111092D01*
X198706Y466574D02*
X199204D01*
X197246Y465113D02*
X198706Y466574D01*
X197246Y457827D02*
Y465113D01*
X111092Y456900D02*
Y469600D01*
X194704Y453874D02*
X199204D01*
X24429Y248400D02*
Y261100D01*
X113908Y285415D02*
Y298115D01*
X130689D02*
Y320177D01*
X127713Y323153D02*
X130689Y320177D01*
X116787Y323153D02*
X127713D01*
X113908Y298115D02*
X130689D01*
X78093Y456900D02*
Y469600D01*
X181109Y470527D02*
X191039Y480456D01*
X168019Y470527D02*
X181109D01*
X167093Y469600D02*
X168019Y470527D01*
X78093Y469600D02*
X82592D01*
X101213Y488221D01*
X137497D01*
X155047Y470671D01*
X166022D01*
X167093Y469600D01*
Y456900D02*
Y469600D01*
X240673Y554449D02*
X242949Y552172D01*
Y537828D02*
Y552172D01*
Y537828D02*
X250704Y530074D01*
X255204D01*
Y517374D02*
Y530074D01*
X256889Y634000D02*
Y644200D01*
X304229Y701000D02*
X375306D01*
X385965Y690340D01*
X407354D01*
X428561D01*
X208463Y558658D02*
Y568717D01*
Y558658D02*
X212673Y554449D01*
X208463Y550238D02*
X212673Y554449D01*
X208463Y539333D02*
Y550238D01*
X205164Y536034D02*
X208463Y539333D01*
X205164Y531534D02*
Y536034D01*
X203704Y530074D02*
X205164Y531534D01*
X199204Y530074D02*
X203704D01*
X169612Y631949D02*
X170736Y633073D01*
X129796Y620787D02*
Y639516D01*
X135635Y175015D02*
Y175515D01*
X11935Y84927D02*
X20785D01*
X7209Y89653D02*
X11935Y84927D01*
X26593Y533100D02*
X29323Y535830D01*
X165408Y221915D02*
X169907D01*
X291618Y490906D02*
X301577Y500866D01*
X305202D01*
X305450Y501115D01*
X401409D02*
X411617Y490906D01*
X438337D01*
X443569Y485673D01*
X445819D01*
X226465Y675540D02*
X242464D01*
Y662500D02*
Y675540D01*
D107*
X666527Y153723D02*
Y163000D01*
X693250Y127000D02*
X710750D01*
X666527Y153723D02*
X693250Y127000D01*
X710750D02*
X716459Y121291D01*
Y103970D02*
Y121291D01*
Y103970D02*
X726404Y94025D01*
X726404D02*
X733729Y86699D01*
X726404Y94025D02*
X726404D01*
X733729Y86517D02*
Y86699D01*
Y86517D02*
X734554Y85691D01*
X735054D01*
X666657Y163130D02*
Y175799D01*
X666527Y163000D02*
X666657Y163130D01*
D108*
X276813Y396066D02*
X299121Y373758D01*
Y255104D02*
Y373758D01*
X272488Y228471D02*
X299121Y255104D01*
X272488Y204821D02*
Y228471D01*
X282248Y125728D02*
Y195060D01*
X271188Y114668D02*
X282248Y125728D01*
X271188Y97248D02*
Y114668D01*
X272488Y204821D02*
X282248Y195060D01*
X249830Y75890D02*
X271188Y97248D01*
X189926Y75890D02*
X249830D01*
X69592Y574000D02*
X71569Y572023D01*
Y554828D02*
Y572023D01*
X160003Y535690D02*
X162593Y533100D01*
X160003Y535690D02*
Y554913D01*
X255204Y494715D02*
X274764Y475155D01*
Y440123D02*
Y475155D01*
X255204Y494715D02*
Y517374D01*
X245801Y411159D02*
X274764Y440123D01*
X262696Y396066D02*
X276813D01*
X255182Y394440D02*
X261071D01*
X246704Y385962D02*
X255182Y394440D01*
X261071D02*
X262696Y396066D01*
X246704Y385920D02*
Y385962D01*
X244437Y411159D02*
X245801D01*
X235917Y402639D02*
X244437Y411159D01*
X208403Y402639D02*
X235917D01*
X192188Y386425D02*
X208403Y402639D01*
X192188Y385920D02*
Y386425D01*
X183651Y82165D02*
X189926Y75890D01*
X24429Y190631D02*
X36788Y178271D01*
Y166440D02*
Y178271D01*
X33848Y163500D02*
X36788Y166440D01*
X183651Y82165D02*
Y113501D01*
X177407Y119745D02*
X183651Y113501D01*
X177407Y119745D02*
Y127993D01*
X60589Y263052D02*
X74052Y276515D01*
X64654Y184900D02*
X73198D01*
X61848Y182094D02*
X64654Y184900D01*
X61848Y163500D02*
Y182094D01*
X58637Y261100D02*
X60589Y263052D01*
X74052Y276515D02*
Y299375D01*
X67702Y305725D02*
X74052Y299375D01*
X49414Y305725D02*
X67702D01*
X43171Y299481D02*
X49414Y305725D01*
X43171Y287400D02*
Y299481D01*
X233946Y430000D02*
Y430508D01*
X250514Y447076D01*
Y453683D01*
X250704Y453874D01*
X255204D01*
X78093Y469600D02*
Y481381D01*
X55592Y579348D02*
Y579849D01*
D109*
X427019Y283802D02*
Y295274D01*
D110*
X567750Y308632D02*
X576535Y299847D01*
X567750Y308632D02*
Y321750D01*
X569250Y323250D01*
D111*
X895000Y333000D02*
D03*
Y447000D02*
D03*
D112*
X825000Y365000D02*
D03*
D113*
Y415000D02*
D03*
X970000Y365000D02*
D03*
Y390000D02*
D03*
Y415000D02*
D03*
D114*
X80000Y690000D02*
D03*
X890000D02*
D03*
Y30000D02*
D03*
X80000D02*
D03*
D115*
X764500Y104250D02*
D03*
X680500Y150500D02*
D03*
X35250Y143250D02*
D03*
X201000Y337500D02*
D03*
X294750Y646180D02*
D03*
X247250Y591000D02*
D03*
X36604Y134473D02*
D03*
X745939Y544439D02*
D03*
X621049Y378201D02*
D03*
X170750Y101500D02*
D03*
X34000Y54750D02*
D03*
X375750Y613500D02*
D03*
X385750Y619250D02*
D03*
X387923Y533018D02*
D03*
X272000Y386750D02*
D03*
X71750Y606500D02*
D03*
X419500Y580750D02*
D03*
X120750Y623000D02*
D03*
X72500Y617500D02*
D03*
X208250Y629000D02*
D03*
X159500Y625500D02*
D03*
X729500Y101500D02*
D03*
X504000Y290750D02*
D03*
X815250Y77250D02*
D03*
X32500Y91500D02*
D03*
X650500Y466000D02*
D03*
X408500Y172250D02*
D03*
X90500Y625250D02*
D03*
X260750Y333000D02*
D03*
X453750Y233750D02*
D03*
X169293Y338359D02*
D03*
X595500Y677750D02*
D03*
X465250Y328500D02*
D03*
X178000Y427750D02*
D03*
X470998Y591263D02*
D03*
X480750Y597250D02*
D03*
X484250Y606750D02*
D03*
X308750Y333000D02*
D03*
X523750Y513750D02*
D03*
X207500Y591250D02*
D03*
X101250Y343500D02*
D03*
X628500Y425750D02*
D03*
X658200Y462050D02*
D03*
X463750Y500250D02*
D03*
X468250Y493500D02*
D03*
X94500Y335250D02*
D03*
X613250Y556750D02*
D03*
X506500Y298500D02*
D03*
X446000Y296750D02*
D03*
X391250Y364750D02*
D03*
X431750Y402000D02*
D03*
X144250Y338000D02*
D03*
X520750Y573000D02*
D03*
X791500Y359000D02*
D03*
X711250Y464250D02*
D03*
X215000Y46000D02*
D03*
X810750Y454500D02*
D03*
X812500Y86000D02*
D03*
X537250Y594500D02*
D03*
X730750Y170750D02*
D03*
X430250Y189750D02*
D03*
X376500Y220500D02*
D03*
X768750Y130250D02*
D03*
X186250Y139250D02*
D03*
X304989Y212619D02*
D03*
X310190Y324537D02*
D03*
X318016Y316609D02*
D03*
X691936Y192936D02*
D03*
X182651Y621340D02*
D03*
X29592Y618927D02*
D03*
X484000Y335500D02*
D03*
X533087Y350163D02*
D03*
X510538Y346962D02*
D03*
X362500Y203000D02*
D03*
X439463Y302596D02*
D03*
X415750Y298250D02*
D03*
X498070Y238363D02*
D03*
X578550Y323629D02*
D03*
X569250Y323250D02*
D03*
X532596Y377500D02*
D03*
X483455Y283000D02*
D03*
X585233Y294826D02*
D03*
X561583Y251090D02*
D03*
X586039Y261276D02*
D03*
X710307Y204177D02*
D03*
X465615Y294614D02*
D03*
X468090Y478906D02*
D03*
X461865Y456900D02*
D03*
X472164Y320562D02*
D03*
X485042Y531303D02*
D03*
X463550Y621522D02*
D03*
X501061Y665899D02*
D03*
X495348Y660238D02*
D03*
X528739Y634007D02*
D03*
X549953Y630406D02*
D03*
X530868Y399571D02*
D03*
X720000Y84000D02*
D03*
X631373Y158239D02*
D03*
X593020Y171098D02*
D03*
X452889Y168000D02*
D03*
X596750Y190920D02*
D03*
X725000Y216021D02*
D03*
X385000Y184000D02*
D03*
X361465Y185250D02*
D03*
X308638Y175750D02*
D03*
X308630Y128386D02*
D03*
X580359Y615906D02*
D03*
X575359Y603906D02*
D03*
X582649Y599155D02*
D03*
X582920Y590906D02*
D03*
X771514Y65000D02*
D03*
X795761Y130750D02*
D03*
X412812Y233819D02*
D03*
X204322Y139633D02*
D03*
X243606Y569362D02*
D03*
X154688Y298000D02*
D03*
X439639Y334434D02*
D03*
X246704Y125978D02*
D03*
X468011Y579800D02*
D03*
X505000Y584471D02*
D03*
X517448Y607406D02*
D03*
X505000Y575461D02*
D03*
X473870Y548544D02*
D03*
X126296Y571721D02*
D03*
X130259Y219900D02*
D03*
X775000Y633399D02*
D03*
X544068Y617949D02*
D03*
X216747Y317408D02*
D03*
X258908Y323815D02*
D03*
X210439Y370440D02*
D03*
X167407Y320316D02*
D03*
X231465Y684450D02*
D03*
X610359Y467655D02*
D03*
X588220Y463400D02*
D03*
X578596D02*
D03*
X586420Y541748D02*
D03*
X581709Y570648D02*
D03*
X650240Y661677D02*
D03*
X643074Y206744D02*
D03*
X579920Y407212D02*
D03*
X597485Y669225D02*
D03*
X617920Y690340D02*
D03*
X638720Y677438D02*
D03*
X635169Y666010D02*
D03*
X82722Y396630D02*
D03*
X120250Y182015D02*
D03*
X122842Y166750D02*
D03*
X447389Y644750D02*
D03*
X616659Y611079D02*
D03*
X434236Y684917D02*
D03*
X268814Y666960D02*
D03*
X264354Y673720D02*
D03*
X253464Y650677D02*
D03*
X276256Y694131D02*
D03*
X840277Y242500D02*
D03*
X840094Y582500D02*
D03*
X915914Y516000D02*
D03*
X594500Y219314D02*
D03*
X450000Y682850D02*
D03*
X451419Y702150D02*
D03*
X288370Y622451D02*
D03*
X428819Y514162D02*
D03*
X682920Y562406D02*
D03*
X729155Y630905D02*
D03*
X367274Y427706D02*
D03*
Y442654D02*
D03*
X449019Y418532D02*
D03*
X288318Y409677D02*
D03*
X551829Y490938D02*
D03*
X541500Y492423D02*
D03*
X646480Y508906D02*
D03*
X682920Y464349D02*
D03*
X701342Y443778D02*
D03*
X796683Y465608D02*
D03*
X765714Y342500D02*
D03*
X417819Y375420D02*
D03*
X432599Y388920D02*
D03*
X800433Y486406D02*
D03*
X185486Y433777D02*
D03*
X188587Y418383D02*
D03*
X76916Y370858D02*
D03*
X48752Y359799D02*
D03*
X143385Y366442D02*
D03*
X116787Y323153D02*
D03*
X458683Y304000D02*
D03*
X451419Y631500D02*
D03*
X411617Y619545D02*
D03*
X360308Y501115D02*
D03*
X414650Y224000D02*
D03*
X211408Y174357D02*
D03*
X623316Y226874D02*
D03*
X622471Y287500D02*
D03*
X624170Y277500D02*
D03*
X587920Y281124D02*
D03*
X640410Y553467D02*
D03*
X603784Y527406D02*
D03*
X590359Y503648D02*
D03*
X574392Y526874D02*
D03*
X582920Y534031D02*
D03*
X463500Y638406D02*
D03*
X184183Y554656D02*
D03*
X113068Y141659D02*
D03*
X47848Y163500D02*
D03*
X233250Y466574D02*
D03*
X207209Y658750D02*
D03*
X167093Y658500D02*
D03*
X158592Y594927D02*
D03*
X236714Y480456D02*
D03*
X332618Y439560D02*
D03*
Y427995D02*
D03*
X269765Y404648D02*
D03*
X286260Y375150D02*
D03*
X251752Y365775D02*
D03*
X732708Y589706D02*
D03*
X690085Y591346D02*
D03*
X678653Y605398D02*
D03*
X687481Y573879D02*
D03*
X679475Y575461D02*
D03*
X484925Y543788D02*
D03*
X534333Y537705D02*
D03*
X433658Y463400D02*
D03*
X324244Y388920D02*
D03*
X210439Y382487D02*
D03*
X283729Y325000D02*
D03*
X289244Y345093D02*
D03*
X275000Y348934D02*
D03*
X236714Y365775D02*
D03*
X365878Y477641D02*
D03*
X256987Y198199D02*
D03*
X249741Y134485D02*
D03*
X337618Y359684D02*
D03*
X285118Y437435D02*
D03*
X315506Y396518D02*
D03*
X684982Y552976D02*
D03*
X686999Y538087D02*
D03*
X675850Y526345D02*
D03*
X677813Y505170D02*
D03*
X686226Y513583D02*
D03*
X620784Y466044D02*
D03*
X548789Y473136D02*
D03*
X533165Y484276D02*
D03*
X530917Y471877D02*
D03*
X519930Y479839D02*
D03*
X523973Y535015D02*
D03*
X833777Y98464D02*
D03*
X741526Y133000D02*
D03*
X438861Y533898D02*
D03*
X561477Y633399D02*
D03*
X637481Y618953D02*
D03*
X642480Y598002D02*
D03*
X655359Y599155D02*
D03*
X670618Y592805D02*
D03*
X760802Y355283D02*
D03*
X535296Y514202D02*
D03*
X457152Y433612D02*
D03*
X288318Y314158D02*
D03*
X170811Y380266D02*
D03*
X527996Y578906D02*
D03*
X101183Y373942D02*
D03*
X162441Y386602D02*
D03*
X710000Y480936D02*
D03*
X234911Y87778D02*
D03*
X80000Y490448D02*
D03*
X27460Y643000D02*
D03*
X74812Y652500D02*
D03*
X223407Y84000D02*
D03*
X82638Y62220D02*
D03*
X192811Y20562D02*
D03*
X913734Y191706D02*
D03*
X750000Y603467D02*
D03*
X803014Y363824D02*
D03*
X635359Y513382D02*
D03*
X779819Y319000D02*
D03*
X764130Y329094D02*
D03*
X591984Y613906D02*
D03*
X927085Y329094D02*
D03*
X902630Y270000D02*
D03*
X910924Y161886D02*
D03*
X818462Y476840D02*
D03*
X750000Y589000D02*
D03*
X810000Y528467D02*
D03*
X816500Y439852D02*
D03*
X644670Y612251D02*
D03*
X578596Y355283D02*
D03*
X569519Y369641D02*
D03*
X78093Y481381D02*
D03*
X401643Y212581D02*
D03*
X382393Y359000D02*
D03*
X693624Y430654D02*
D03*
X445519Y361275D02*
D03*
X451419Y444050D02*
D03*
X167093Y510000D02*
D03*
X188745Y261301D02*
D03*
X262188Y238000D02*
D03*
X113908Y245015D02*
D03*
X153383Y156235D02*
D03*
D116*
X710750Y127000D02*
D03*
X106750Y43000D02*
D03*
X688250Y177000D02*
D03*
X759500Y175750D02*
D03*
X762000Y548750D02*
D03*
X756000Y527250D02*
D03*
X738000Y526250D02*
D03*
X283000Y569250D02*
D03*
X285750Y561000D02*
D03*
X188250Y184500D02*
D03*
X249250Y616000D02*
D03*
X185500Y563000D02*
D03*
X8500Y173000D02*
D03*
X5250Y146250D02*
D03*
X787500Y175500D02*
D03*
X869500Y67250D02*
D03*
X210500Y339750D02*
D03*
X443500Y224250D02*
D03*
X365500Y176250D02*
D03*
X844500Y67000D02*
D03*
X298000Y165500D02*
D03*
X504780Y423000D02*
D03*
X545963Y415750D02*
D03*
X551533Y396250D02*
D03*
X744500Y507750D02*
D03*
X736000Y494000D02*
D03*
X728415Y500102D02*
D03*
X743529Y516145D02*
D03*
X733500Y510500D02*
D03*
X745843Y527285D02*
D03*
X609000Y369500D02*
D03*
X610288Y383962D02*
D03*
X611250Y393612D02*
D03*
X443320Y211750D02*
D03*
X390250Y357250D02*
D03*
X612375Y403625D02*
D03*
X614723Y414973D02*
D03*
X616529Y423279D02*
D03*
X873250Y162750D02*
D03*
X868250Y507250D02*
D03*
X390279Y214000D02*
D03*
X444320Y193750D02*
D03*
X608250Y178000D02*
D03*
X369250Y398552D02*
D03*
X270750Y569750D02*
D03*
X164000Y611250D02*
D03*
X95500Y569500D02*
D03*
X64350Y578400D02*
D03*
Y533100D02*
D03*
X120250Y146250D02*
D03*
X102250Y137250D02*
D03*
X70250Y97250D02*
D03*
X540500Y444250D02*
D03*
X761877Y559373D02*
D03*
X753007Y566257D02*
D03*
X793273Y556500D02*
D03*
X782134Y556706D02*
D03*
X770994Y558134D02*
D03*
X774680Y568500D02*
D03*
X786250Y566000D02*
D03*
X800323Y53677D02*
D03*
X335000Y212500D02*
D03*
X308000Y194500D02*
D03*
X775117Y105633D02*
D03*
X808000Y114086D02*
D03*
X809000Y430700D02*
D03*
X812750Y326344D02*
D03*
X729250Y151320D02*
D03*
X729500Y134000D02*
D03*
X77785Y308900D02*
D03*
X766000Y37594D02*
D03*
X382500Y158250D02*
D03*
X418750Y558040D02*
D03*
X279626Y533898D02*
D03*
X419750Y570604D02*
D03*
X96250Y184750D02*
D03*
X425750Y651750D02*
D03*
X14250Y104000D02*
D03*
X305057Y646999D02*
D03*
X456045Y412500D02*
D03*
X195500Y140000D02*
D03*
X29000Y99000D02*
D03*
X89200Y359250D02*
D03*
X198750Y694540D02*
D03*
X103750Y113000D02*
D03*
X101000Y63355D02*
D03*
X167750Y84250D02*
D03*
X211000Y66000D02*
D03*
X278657Y87250D02*
D03*
X272250Y621750D02*
D03*
X198000Y557000D02*
D03*
X170750Y644500D02*
D03*
X110000Y519250D02*
D03*
X19062Y553062D02*
D03*
X483500Y309000D02*
D03*
X50250Y590250D02*
D03*
X33125Y582265D02*
D03*
X708500Y163750D02*
D03*
X748750Y38000D02*
D03*
X522250Y311250D02*
D03*
X576535Y299847D02*
D03*
X680250Y244250D02*
D03*
X703750Y241500D02*
D03*
X499000Y172000D02*
D03*
X815000Y695000D02*
D03*
X755000Y666010D02*
D03*
M02*
