G04*
G04 #@! TF.GenerationSoftware,Altium Limited,Altium Designer,22.1.2 (22)*
G04*
G04 Layer_Color=128*
%FSLAX44Y44*%
%MOMM*%
G71*
G04*
G04 #@! TF.SameCoordinates,DF868C21-73AE-4418-8FF8-C31C1020728F*
G04*
G04*
G04 #@! TF.FilePolarity,Positive*
G04*
G01*
G75*
%ADD21R,0.7500X0.6500*%
%ADD25R,0.6500X0.7500*%
%ADD26R,0.6400X0.5400*%
%ADD31R,0.3750X1.1565*%
G04:AMPARAMS|DCode=32|XSize=1.1565mm|YSize=0.375mm|CornerRadius=0.1875mm|HoleSize=0mm|Usage=FLASHONLY|Rotation=90.000|XOffset=0mm|YOffset=0mm|HoleType=Round|Shape=RoundedRectangle|*
%AMROUNDEDRECTD32*
21,1,1.1565,0.0000,0,0,90.0*
21,1,0.7815,0.3750,0,0,90.0*
1,1,0.3750,0.0000,0.3908*
1,1,0.3750,0.0000,-0.3908*
1,1,0.3750,0.0000,-0.3908*
1,1,0.3750,0.0000,0.3908*
%
%ADD32ROUNDEDRECTD32*%
%ADD38R,0.5400X0.6400*%
%ADD39R,0.9000X1.6500*%
%ADD43R,1.2000X1.1000*%
%ADD44R,1.8000X1.3500*%
%ADD45R,0.6500X0.5500*%
%ADD46R,0.5500X0.6500*%
%ADD117O,2.3000X0.6000*%
%ADD118R,1.0000X3.0000*%
%ADD119R,2.5400X1.2700*%
%ADD120R,1.1500X0.3000*%
G04:AMPARAMS|DCode=121|XSize=0.6mm|YSize=1.15mm|CornerRadius=0.15mm|HoleSize=0mm|Usage=FLASHONLY|Rotation=90.000|XOffset=0mm|YOffset=0mm|HoleType=Round|Shape=RoundedRectangle|*
%AMROUNDEDRECTD121*
21,1,0.6000,0.8500,0,0,90.0*
21,1,0.3000,1.1500,0,0,90.0*
1,1,0.3000,0.4250,0.1500*
1,1,0.3000,0.4250,-0.1500*
1,1,0.3000,-0.4250,-0.1500*
1,1,0.3000,-0.4250,0.1500*
%
%ADD121ROUNDEDRECTD121*%
G04:AMPARAMS|DCode=122|XSize=0.6mm|YSize=1.1mm|CornerRadius=0.15mm|HoleSize=0mm|Usage=FLASHONLY|Rotation=90.000|XOffset=0mm|YOffset=0mm|HoleType=Round|Shape=RoundedRectangle|*
%AMROUNDEDRECTD122*
21,1,0.6000,0.8000,0,0,90.0*
21,1,0.3000,1.1000,0,0,90.0*
1,1,0.3000,0.4000,0.1500*
1,1,0.3000,0.4000,-0.1500*
1,1,0.3000,-0.4000,-0.1500*
1,1,0.3000,-0.4000,0.1500*
%
%ADD122ROUNDEDRECTD122*%
%ADD123R,2.0000X2.1800*%
%ADD124R,3.0000X1.0000*%
%ADD125O,1.7000X0.4500*%
%ADD126R,1.1565X0.3750*%
G04:AMPARAMS|DCode=127|XSize=1.1565mm|YSize=0.375mm|CornerRadius=0.1875mm|HoleSize=0mm|Usage=FLASHONLY|Rotation=0.000|XOffset=0mm|YOffset=0mm|HoleType=Round|Shape=RoundedRectangle|*
%AMROUNDEDRECTD127*
21,1,1.1565,0.0000,0,0,0.0*
21,1,0.7815,0.3750,0,0,0.0*
1,1,0.3750,0.3908,0.0000*
1,1,0.3750,-0.3908,0.0000*
1,1,0.3750,-0.3908,0.0000*
1,1,0.3750,0.3908,0.0000*
%
%ADD127ROUNDEDRECTD127*%
%ADD128R,1.2000X1.4000*%
%ADD129R,1.6500X0.9000*%
%ADD130R,1.7062X1.1544*%
%ADD131R,1.1500X1.1000*%
%ADD132R,4.3500X3.2000*%
%ADD133R,3.2500X1.7000*%
%ADD134R,1.0000X1.7000*%
D21*
X401643Y353942D02*
D03*
Y364942D02*
D03*
Y330500D02*
D03*
Y341500D02*
D03*
X530583Y461099D02*
D03*
Y450099D02*
D03*
X103884Y317408D02*
D03*
Y328408D02*
D03*
D25*
X452889Y388920D02*
D03*
X441889D02*
D03*
Y375420D02*
D03*
X452889D02*
D03*
X439639Y323920D02*
D03*
X450639D02*
D03*
X441889Y402420D02*
D03*
X452889D02*
D03*
X560500Y171000D02*
D03*
X571500D02*
D03*
X469500Y172000D02*
D03*
X480500D02*
D03*
D26*
X143385Y357525D02*
D03*
Y347525D02*
D03*
X602920Y481406D02*
D03*
Y491406D02*
D03*
X591420Y481406D02*
D03*
Y491406D02*
D03*
X594500Y199670D02*
D03*
Y209670D02*
D03*
X279456Y485448D02*
D03*
Y495448D02*
D03*
X279626Y506904D02*
D03*
Y516904D02*
D03*
X428819Y504674D02*
D03*
Y494674D02*
D03*
X86000Y326616D02*
D03*
Y316616D02*
D03*
D31*
X129342Y344266D02*
D03*
D32*
X122842D02*
D03*
X116342D02*
D03*
X109842D02*
D03*
Y365283D02*
D03*
X116342D02*
D03*
X122842D02*
D03*
X129342D02*
D03*
D38*
X718883Y598906D02*
D03*
X708883D02*
D03*
X712420Y587406D02*
D03*
X702420D02*
D03*
X548587Y530074D02*
D03*
X558587D02*
D03*
X550420Y542406D02*
D03*
X560420D02*
D03*
X570481Y616345D02*
D03*
X560481D02*
D03*
X438861Y545332D02*
D03*
X428861D02*
D03*
D39*
X110345Y388380D02*
D03*
X140845D02*
D03*
D43*
X530868Y432654D02*
D03*
Y411653D02*
D03*
D44*
X458750Y219000D02*
D03*
Y247000D02*
D03*
D45*
X276500Y555250D02*
D03*
Y545250D02*
D03*
D46*
X284250Y579500D02*
D03*
X274250D02*
D03*
X437519Y558130D02*
D03*
X427519D02*
D03*
X439236Y570560D02*
D03*
X429236D02*
D03*
D117*
X306118Y494448D02*
D03*
Y507148D02*
D03*
Y519848D02*
D03*
Y532548D02*
D03*
Y545248D02*
D03*
Y557948D02*
D03*
Y570648D02*
D03*
Y583348D02*
D03*
X397118Y494448D02*
D03*
Y507148D02*
D03*
Y519848D02*
D03*
Y532548D02*
D03*
Y545248D02*
D03*
Y557948D02*
D03*
Y570648D02*
D03*
Y583348D02*
D03*
D118*
X48459Y70078D02*
D03*
X68459D02*
D03*
X91459Y120078D02*
D03*
X25459D02*
D03*
X135645Y25000D02*
D03*
X155645D02*
D03*
X178645Y75000D02*
D03*
X112645D02*
D03*
X223407Y25000D02*
D03*
X243407D02*
D03*
X266407Y75000D02*
D03*
X200407D02*
D03*
X62062Y650500D02*
D03*
X42062D02*
D03*
X19062Y600500D02*
D03*
X85062D02*
D03*
X152811Y649340D02*
D03*
X132811D02*
D03*
X109811Y599340D02*
D03*
X175811D02*
D03*
X239214Y649340D02*
D03*
X219214D02*
D03*
X196214Y599340D02*
D03*
X262214D02*
D03*
D119*
X781798Y648600D02*
D03*
X836398D02*
D03*
X781798Y674000D02*
D03*
X836398D02*
D03*
X781798Y699400D02*
D03*
X836398D02*
D03*
D120*
X61800Y377500D02*
D03*
Y372500D02*
D03*
Y367500D02*
D03*
Y362500D02*
D03*
Y357500D02*
D03*
Y352500D02*
D03*
Y347500D02*
D03*
Y342500D02*
D03*
D121*
X62000Y384000D02*
D03*
Y336000D02*
D03*
D122*
X62300Y392000D02*
D03*
Y328000D02*
D03*
D123*
X56050Y411100D02*
D03*
Y308900D02*
D03*
X16750Y411100D02*
D03*
Y308900D02*
D03*
D124*
X750000Y50000D02*
D03*
X300000D02*
D03*
D125*
X465615Y359684D02*
D03*
Y353184D02*
D03*
Y346684D02*
D03*
Y340184D02*
D03*
X423615Y359684D02*
D03*
Y353184D02*
D03*
Y346684D02*
D03*
Y340184D02*
D03*
D126*
X610517Y190920D02*
D03*
D127*
Y197420D02*
D03*
Y203920D02*
D03*
Y210420D02*
D03*
X631534D02*
D03*
Y203920D02*
D03*
Y197420D02*
D03*
Y190920D02*
D03*
D128*
X669480Y553467D02*
D03*
X652480D02*
D03*
X428519Y283052D02*
D03*
X445519D02*
D03*
X557000Y336780D02*
D03*
X540000D02*
D03*
X583484Y556345D02*
D03*
X600484D02*
D03*
X620784Y513388D02*
D03*
X603784D02*
D03*
D129*
X575000Y223580D02*
D03*
Y193080D02*
D03*
D130*
X407854Y418532D02*
D03*
Y444050D02*
D03*
X383618Y418532D02*
D03*
Y444050D02*
D03*
X433617Y418532D02*
D03*
Y444050D02*
D03*
D131*
X552115Y210124D02*
D03*
Y192624D02*
D03*
D132*
X507615Y201374D02*
D03*
D133*
X533000Y244500D02*
D03*
D134*
X556000Y313500D02*
D03*
X533000D02*
D03*
X510000D02*
D03*
M02*
