G04*
G04 #@! TF.GenerationSoftware,Altium Limited,Altium Designer,22.1.2 (22)*
G04*
G04 Layer_Color=16711935*
%FSLAX44Y44*%
%MOMM*%
G71*
G04*
G04 #@! TF.SameCoordinates,DF868C21-73AE-4418-8FF8-C31C1020728F*
G04*
G04*
G04 #@! TF.FilePolarity,Positive*
G04*
G01*
G75*
%ADD151C,0.0510*%
%ADD152C,0.0000*%
%ADD153C,0.0508*%
D151*
X950000Y690000D02*
G03*
X970000Y670000I20000J0D01*
G01*
X970000Y50001D02*
G03*
X949999Y30000I0J-20001D01*
G01*
X30000Y670000D02*
G03*
X50000Y690000I0J20000D01*
G01*
X50000Y30000D02*
G03*
X30000Y50000I-20000J0D01*
G01*
D152*
X0Y670000D02*
X30000D01*
X0Y50000D02*
Y670000D01*
Y50000D02*
X30000D01*
X650000Y150000D02*
X700000Y100000D01*
X400000Y150000D02*
X650000D01*
X50000Y720000D02*
X290000D01*
X50000Y690000D02*
Y720000D01*
X700000Y0D02*
X950000D01*
X700000D02*
Y100013D01*
X350000Y100000D02*
X400000Y150000D01*
X350000Y0D02*
Y100000D01*
X50000Y0D02*
X350000D01*
X50000D02*
Y30000D01*
D153*
X949999Y25749D02*
Y30000D01*
Y25749D02*
X950000Y25750D01*
X290000Y720000D02*
X300000Y710000D01*
X700000D01*
X710000Y720000D01*
X970000Y670000D02*
X1000000D01*
X950000Y690000D02*
Y720000D01*
X710000D02*
X950000D01*
X1000000Y50000D02*
Y670000D01*
X970000Y50000D02*
X1000000D01*
X950000Y0D02*
Y25750D01*
M02*
